{"glyphs":{"0":{"ha":940,"x_min":102,"x_max":873,"o":"m 666 898 q 754 873 715 898 q 819 804 793 848 q 860 703 846 761 q 873 580 873 646 q 849 402 873 484 q 782 254 824 320 q 684 137 740 188 q 568 52 629 86 q 444 0 507 18 q 324 -18 381 -18 q 237 -5 277 -18 q 166 32 196 7 q 119 94 136 56 q 102 182 102 132 q 123 379 102 286 q 183 551 144 472 q 274 695 221 631 q 389 804 326 759 q 522 873 452 849 q 666 898 593 898 m 237 205 q 247 131 237 162 q 273 79 256 100 q 312 48 290 58 q 361 39 335 39 q 439 57 398 39 q 522 109 481 75 q 601 194 563 144 q 667 309 638 244 q 712 451 695 373 q 730 620 730 530 q 720 718 730 677 q 692 787 709 760 q 650 827 674 814 q 597 840 626 840 q 520 819 561 840 q 439 759 479 798 q 363 665 399 720 q 298 538 326 609 q 254 384 271 468 q 237 205 237 300 z "},"1":{"ha":564,"x_min":69,"x_max":574,"o":"m 69 62 q 74 79 70 73 q 82 89 77 85 q 93 96 87 93 q 102 104 98 99 q 123 147 111 119 q 150 208 136 175 q 178 277 163 241 q 205 341 193 312 q 225 392 217 371 q 236 417 234 413 q 265 472 248 438 q 301 546 281 505 q 343 630 321 586 q 387 718 365 675 q 432 801 410 762 q 475 870 454 840 q 514 918 496 900 q 545 935 532 935 q 568 917 562 935 q 574 876 574 899 q 562 826 570 857 q 533 742 553 795 q 482 609 514 689 q 401 410 450 528 q 372 346 391 386 q 331 261 354 307 q 280 169 307 215 q 225 85 253 123 q 171 24 197 47 q 121 1 144 1 q 100 2 109 1 q 83 8 90 3 q 73 24 77 14 q 69 55 69 35 l 69 62 z "},"2":{"ha":718,"x_min":3,"x_max":690,"o":"m 592 31 q 562 17 583 22 q 518 10 541 12 q 476 7 496 7 q 450 6 457 6 q 428 6 442 6 q 396 5 414 5 q 329 6 367 5 q 249 7 290 6 q 168 9 208 7 q 95 12 128 10 q 40 16 62 14 q 12 21 17 18 q 4 28 6 22 q 3 39 3 33 q 7 57 3 48 q 20 66 12 65 l 37 69 q 58 73 46 71 q 85 79 70 75 l 86 79 q 299 239 210 159 q 444 400 387 319 q 527 563 500 481 q 553 727 553 645 q 545 783 553 760 q 520 821 536 806 q 482 841 505 835 q 433 847 460 847 q 366 840 403 847 q 293 822 330 833 q 281 819 287 820 q 273 819 276 819 q 259 825 262 819 q 256 839 256 831 q 258 846 256 842 q 262 851 259 850 q 304 873 280 863 q 356 889 329 882 q 411 899 382 896 q 466 903 439 903 q 550 892 509 903 q 621 857 590 881 q 671 794 652 833 q 690 700 690 755 q 668 561 690 626 q 607 439 646 496 q 518 332 569 382 q 411 240 468 283 q 296 160 355 197 q 182 94 237 124 q 223 99 199 96 q 275 103 248 101 q 333 108 303 106 q 388 112 362 110 q 436 114 414 113 q 469 116 457 115 q 485 117 475 116 q 506 120 495 119 q 530 123 517 121 q 554 124 542 124 q 595 117 577 124 q 612 88 612 109 q 608 56 612 71 q 592 31 603 40 z "},"3":{"ha":826,"x_min":54,"x_max":770,"o":"m 149 182 q 200 169 186 178 q 214 146 214 160 q 205 122 214 131 q 185 110 197 114 q 163 104 174 105 q 149 103 153 103 q 143 98 146 103 q 138 86 140 93 q 133 74 135 79 q 132 66 132 68 q 131 59 131 62 q 130 54 130 56 q 148 11 130 28 q 192 -19 165 -7 q 252 -36 219 -31 q 315 -41 285 -41 q 411 -15 369 -41 q 481 53 452 11 q 524 147 509 94 q 538 253 538 199 q 529 336 538 296 q 500 412 520 377 q 451 475 481 448 q 378 520 420 503 l 389 572 q 492 591 447 574 q 570 633 538 608 q 618 687 602 659 q 635 741 635 716 q 627 779 635 761 q 603 809 618 796 q 567 830 587 823 q 523 838 546 838 q 477 835 500 838 q 433 829 454 833 q 392 822 411 826 q 360 815 373 819 q 353 814 356 814 q 332 830 332 814 q 337 838 332 836 q 464 879 403 867 q 578 891 524 891 q 656 879 621 891 q 717 846 692 866 q 756 799 743 825 q 770 745 770 772 q 755 686 770 719 q 707 624 741 654 q 618 570 673 593 q 484 538 563 547 q 580 481 539 515 q 648 407 621 448 q 689 321 675 366 q 702 229 702 275 q 677 108 702 167 q 604 3 652 49 q 481 -72 555 -43 q 311 -100 408 -100 q 213 -90 260 -100 q 132 -60 167 -79 q 75 -13 96 -41 q 54 51 54 15 q 56 73 54 61 q 74 127 62 106 q 100 160 86 148 q 126 177 113 172 q 149 182 140 182 z "},"4":{"ha":1078,"x_min":52,"x_max":1068,"o":"m 591 -33 q 581 -41 591 -35 q 555 -52 571 -46 q 519 -62 539 -58 q 481 -67 500 -67 q 464 -66 475 -67 q 444 -61 453 -65 q 431 -51 435 -58 q 434 -31 427 -43 q 453 5 444 -10 q 474 36 463 20 q 497 68 484 51 q 525 110 509 85 q 559 168 540 134 q 602 249 578 201 q 421 266 499 255 q 283 289 342 277 q 147 227 201 227 q 75 245 98 227 q 52 288 52 262 q 67 331 52 310 q 107 370 83 352 q 162 400 132 387 q 223 420 193 414 q 322 489 264 446 q 452 590 380 531 q 607 724 524 648 q 785 892 691 800 l 898 889 q 916 909 907 903 q 932 916 925 916 q 944 901 944 916 q 942 889 944 896 q 880 714 911 799 q 821 553 850 630 q 766 409 792 477 q 717 285 740 342 q 731 283 724 283 q 745 283 738 283 l 766 283 q 838 291 800 283 q 914 307 877 298 q 984 323 951 315 q 1037 330 1016 330 q 1065 317 1061 330 l 1067 302 q 1068 295 1068 300 q 1050 267 1068 277 q 1003 252 1032 257 q 937 244 974 246 q 861 243 899 243 q 779 243 818 243 q 703 244 739 243 q 654 109 673 163 q 622 24 635 56 q 603 -20 610 -7 q 591 -33 595 -33 m 351 338 q 406 327 378 333 q 467 315 435 321 q 538 305 500 310 q 625 296 577 300 q 736 515 679 390 q 848 796 793 640 q 734 676 795 738 q 608 554 673 614 q 477 438 543 494 q 351 338 412 383 z "},"5":{"ha":787,"x_min":28,"x_max":731,"o":"m 317 844 q 329 861 322 853 q 351 871 335 869 q 399 874 368 873 q 468 878 431 876 q 545 880 505 879 q 618 880 584 880 q 674 879 652 880 q 708 875 696 878 q 726 866 721 872 q 731 852 731 861 q 728 831 731 842 q 719 811 725 820 q 706 797 713 803 q 691 791 699 791 q 649 792 678 791 q 579 793 619 792 q 493 795 540 794 q 399 798 446 796 q 324 639 365 724 q 233 463 283 555 q 286 499 261 484 q 334 523 310 514 q 385 537 359 532 q 444 541 412 541 q 559 522 512 541 q 635 470 606 503 q 676 397 664 438 q 689 313 689 356 q 665 198 689 257 q 596 91 642 139 q 483 11 550 42 q 329 -20 416 -20 q 239 -17 279 -20 q 166 -6 199 -14 q 104 12 132 1 q 50 40 76 24 q 33 57 39 46 q 28 79 28 68 q 30 89 28 83 q 35 102 31 96 q 46 113 39 109 q 62 118 52 118 q 74 115 69 118 q 120 86 94 98 q 174 66 146 74 q 229 55 202 58 q 279 51 256 51 q 382 61 335 51 q 464 99 429 72 q 523 172 500 125 q 556 291 547 218 q 558 321 558 305 q 552 373 558 347 q 529 422 545 400 q 484 458 512 444 q 412 472 455 472 q 335 462 373 472 q 264 440 297 452 q 206 418 231 428 q 168 408 180 408 q 148 432 148 408 q 150 454 148 441 q 159 481 152 466 q 248 680 211 591 q 317 844 284 770 z "},"6":{"ha":943,"x_min":100,"x_max":865,"o":"m 836 852 q 859 841 852 850 q 865 821 865 831 q 857 796 865 807 q 834 785 848 785 q 819 786 824 785 q 811 788 814 787 q 804 789 808 789 q 791 790 800 790 q 627 764 702 790 q 491 697 551 737 q 386 612 431 658 q 313 528 341 566 q 357 535 336 532 q 399 537 378 537 q 527 516 466 537 q 635 459 589 495 q 709 375 682 423 q 736 271 736 326 q 703 146 736 201 q 613 53 669 91 q 488 -4 558 16 q 345 -24 418 -24 q 254 -5 298 -24 q 176 50 210 13 q 121 142 142 87 q 100 271 100 197 q 122 403 100 334 q 182 537 143 471 q 277 662 222 603 q 400 765 332 720 q 548 835 469 809 q 713 861 627 861 q 774 859 744 861 q 836 852 804 857 m 273 467 q 227 411 244 438 q 201 355 210 383 q 189 297 192 327 q 186 234 186 267 q 203 148 186 184 q 249 87 220 111 q 314 51 277 62 q 390 39 351 39 q 471 53 431 39 q 543 97 511 68 q 595 168 575 125 q 614 268 614 211 q 596 356 614 317 q 545 425 577 396 q 470 468 513 453 q 378 484 427 484 q 273 467 326 484 z "},"7":{"ha":873,"x_min":155,"x_max":946,"o":"m 225 -24 q 334 189 275 85 q 460 390 393 293 q 602 575 528 486 q 755 746 675 665 q 714 762 737 755 q 665 773 691 768 q 610 779 638 777 q 553 781 582 781 q 476 773 514 781 q 399 756 437 766 q 322 739 361 747 q 243 731 283 731 q 218 733 233 731 q 189 742 203 735 q 165 763 175 749 q 155 800 155 777 q 164 848 155 820 q 196 915 174 876 q 211 923 199 921 q 233 926 222 926 q 249 925 243 926 q 256 922 256 924 l 256 786 q 310 792 275 786 q 384 807 344 799 q 463 822 423 815 q 534 828 503 828 q 654 819 589 828 q 785 791 719 809 q 814 818 799 804 q 844 843 829 831 q 872 867 859 856 q 897 887 886 878 l 946 869 q 910 836 935 863 q 854 767 886 808 q 783 672 822 726 q 702 559 744 618 q 617 437 660 500 q 533 313 574 374 q 456 197 492 252 q 393 96 420 141 q 347 20 365 52 q 325 -24 329 -12 l 225 -24 z "},"8":{"ha":830,"x_min":69,"x_max":930,"o":"m 70 203 q 69 209 69 206 q 69 216 69 212 q 82 282 69 250 q 117 345 96 315 q 166 402 138 375 q 222 454 194 430 q 278 500 251 479 q 326 538 305 521 q 322 547 326 538 q 313 570 318 555 q 304 606 308 585 q 300 654 300 627 q 329 741 300 704 q 405 801 358 777 q 511 836 452 825 q 631 848 570 848 q 744 838 690 848 q 839 809 798 828 q 905 762 880 790 q 930 698 930 734 q 906 609 930 656 q 842 514 883 562 q 745 421 800 467 q 624 338 689 376 q 671 261 651 306 q 690 155 690 217 q 669 71 690 106 q 613 13 648 36 q 532 -21 578 -10 q 436 -32 486 -32 q 310 -16 374 -32 q 195 30 247 0 q 108 104 142 60 q 70 203 74 148 m 228 229 q 255 142 232 180 q 312 80 278 105 q 387 41 346 54 q 469 28 429 28 q 540 36 511 28 q 587 56 569 43 q 614 86 606 68 q 622 125 622 104 q 609 189 622 155 q 574 259 595 223 q 524 329 552 294 q 466 395 496 364 q 407 452 437 427 q 354 493 378 477 q 307 445 330 473 q 267 384 284 417 q 238 315 249 351 q 227 245 227 279 q 227 236 227 240 q 228 229 227 232 m 363 645 q 383 582 364 613 q 430 520 401 551 q 495 458 459 489 q 566 396 531 427 q 607 432 583 412 q 656 477 631 453 q 706 529 682 502 q 751 583 731 555 q 783 639 770 611 q 795 694 795 667 q 779 742 795 721 q 735 777 762 762 q 673 798 709 791 q 599 805 637 805 q 512 795 554 805 q 437 766 470 786 q 384 716 404 746 q 363 645 363 686 z "},"9":{"ha":830,"x_min":88,"x_max":771,"o":"m 635 488 q 644 542 641 514 q 646 597 646 569 q 631 713 646 665 q 591 791 616 761 q 533 835 566 821 q 464 848 500 848 q 370 829 417 848 q 283 777 322 810 q 220 699 245 743 q 196 606 196 655 q 217 538 196 565 q 274 496 239 512 q 353 475 309 481 q 443 469 397 469 q 551 475 500 469 q 635 488 602 481 m 309 -46 q 290 -48 299 -48 q 259 -42 273 -48 q 245 -25 245 -35 q 252 -13 245 -20 q 275 2 258 -5 q 386 66 336 30 q 475 144 436 103 q 542 228 513 185 q 588 309 570 270 q 616 382 607 349 q 627 439 626 416 q 530 409 582 418 q 426 399 479 399 q 301 414 361 399 q 193 458 240 429 q 117 530 146 487 q 88 631 88 574 q 119 740 88 690 q 200 825 150 789 q 313 881 250 861 q 442 901 377 901 q 564 881 505 901 q 669 817 623 861 q 743 704 715 773 q 771 537 771 635 q 761 425 771 484 q 727 308 750 366 q 668 194 704 249 q 580 92 631 138 q 461 9 529 45 q 309 -46 394 -26 z "},"\r":{"ha":0,"x_min":0,"x_max":0,"o":""}," ":{"ha":407,"x_min":0,"x_max":0,"o":""},"!":{"ha":494,"x_min":7,"x_max":480,"o":"m 338 951 q 384 1057 359 1025 q 439 1088 410 1088 q 463 1083 454 1088 q 475 1067 471 1078 q 479 1040 479 1057 q 480 1000 480 1023 q 469 946 480 986 q 437 851 457 906 q 392 730 418 795 q 338 599 366 665 q 301 516 321 560 q 261 427 281 472 q 221 338 241 382 q 184 255 201 294 q 176 243 181 247 q 165 239 170 239 q 155 252 155 239 q 155 255 155 254 q 156 260 155 257 l 229 542 q 260 658 244 599 q 290 771 275 717 q 316 872 304 826 q 338 951 329 919 m 52 -24 q 18 -6 28 -24 q 7 33 7 11 q 13 70 7 51 q 30 105 19 90 q 57 131 41 121 q 93 141 73 141 q 127 136 113 141 q 151 121 142 130 q 163 101 159 113 q 167 77 167 90 q 156 38 167 56 q 129 6 146 20 q 92 -16 113 -8 q 52 -24 72 -24 z "},"\"":{"ha":610,"x_min":77,"x_max":549,"o":"m 140 1013 q 118 994 132 1002 q 96 987 104 987 q 82 994 87 987 q 77 1015 77 1000 q 83 1063 77 1033 q 99 1129 89 1094 q 123 1201 109 1164 q 152 1266 137 1237 q 182 1314 167 1295 q 212 1332 198 1332 q 248 1327 233 1332 q 270 1315 262 1322 q 282 1297 279 1308 q 286 1277 286 1287 q 281 1248 286 1262 q 271 1224 276 1234 q 239 1162 253 1188 q 210 1112 224 1135 q 179 1065 195 1088 q 140 1013 163 1042 m 401 1023 q 372 994 385 1002 q 351 986 360 986 q 334 997 340 986 q 328 1023 328 1008 q 328 1029 328 1026 q 329 1036 328 1032 q 338 1084 332 1055 q 352 1146 344 1113 q 371 1212 360 1179 q 394 1272 381 1245 q 422 1315 407 1299 q 456 1332 437 1332 q 501 1327 483 1332 q 529 1314 519 1322 q 544 1296 540 1306 q 549 1275 549 1286 q 534 1225 549 1257 q 496 1157 519 1194 q 448 1084 474 1120 q 401 1023 422 1048 z "},"#":{"ha":1289,"x_min":29,"x_max":1263,"o":"m 335 846 q 328 855 328 849 q 332 868 328 861 q 338 883 337 876 q 393 890 357 888 q 474 894 429 892 l 553 1095 q 582 1165 564 1122 q 622 1257 600 1208 q 667 1356 644 1306 q 711 1446 690 1405 q 748 1511 732 1486 q 774 1536 765 1536 q 784 1532 780 1536 q 788 1518 788 1528 q 787 1507 787 1513 q 785 1493 787 1501 q 774 1456 779 1469 q 765 1436 769 1443 q 759 1426 762 1430 q 753 1415 755 1421 q 732 1369 745 1399 q 705 1302 720 1339 q 674 1226 690 1265 q 645 1154 658 1187 q 623 1098 632 1120 q 613 1070 614 1075 q 586 1007 605 1053 q 541 895 568 961 l 570 895 q 690 895 642 895 q 773 893 739 895 q 828 892 806 892 q 868 890 850 891 q 904 888 886 889 q 946 886 922 887 q 988 996 968 944 q 1028 1095 1009 1048 q 1057 1165 1039 1122 q 1096 1257 1075 1208 q 1141 1356 1118 1306 q 1185 1446 1164 1405 q 1223 1511 1206 1486 q 1249 1536 1240 1536 q 1259 1532 1255 1536 q 1263 1518 1263 1528 q 1262 1507 1262 1513 q 1259 1493 1261 1501 q 1249 1456 1253 1469 q 1240 1436 1244 1443 q 1233 1426 1236 1430 q 1227 1415 1230 1421 q 1207 1369 1220 1399 q 1179 1302 1194 1339 q 1148 1226 1164 1265 q 1120 1154 1133 1187 q 1098 1098 1107 1120 q 1088 1070 1089 1075 q 1059 1003 1079 1052 q 1011 882 1040 954 q 1062 878 1040 880 q 1097 875 1083 876 l 1126 872 q 1154 864 1141 871 q 1167 850 1167 857 q 1121 834 1167 838 q 989 829 1076 831 l 849 472 q 935 468 901 469 q 988 463 969 467 q 1015 455 1008 460 q 1023 442 1023 451 q 1009 433 1023 437 q 970 427 996 429 q 909 423 945 425 q 829 421 873 422 q 755 236 792 328 q 684 59 718 143 q 619 -99 650 -26 q 565 -226 589 -172 q 527 -310 542 -279 q 507 -340 511 -340 q 504 -331 504 -340 q 505 -316 505 -325 q 509 -296 506 -307 l 515 -270 q 624 30 562 -140 q 769 420 686 199 q 703 420 736 420 q 637 420 670 420 q 565 420 600 420 q 500 420 530 420 q 447 421 471 420 q 408 422 423 421 l 354 422 q 280 236 317 329 q 209 59 243 143 q 144 -99 175 -26 q 91 -225 114 -172 q 52 -310 67 -279 q 33 -340 37 -340 q 29 -331 29 -340 q 31 -316 30 -325 q 34 -296 31 -307 l 40 -270 q 91 -129 64 -204 q 150 31 119 -54 q 218 214 182 117 q 295 422 254 311 q 251 424 272 422 q 215 428 231 425 q 189 434 199 430 q 180 444 180 438 q 184 456 180 450 q 190 471 189 463 q 242 477 209 475 q 317 481 276 479 l 450 833 q 415 833 433 833 q 381 836 397 834 q 353 840 366 838 q 335 846 341 842 m 516 832 q 451 668 486 756 q 378 481 416 579 l 434 481 q 547 481 501 481 q 625 481 593 481 q 678 480 657 481 q 716 479 699 479 q 750 477 733 478 q 789 475 766 476 l 924 829 q 888 828 906 829 q 852 828 870 828 q 760 828 806 828 q 675 829 715 829 q 605 831 636 830 q 555 832 574 831 l 516 832 z "},"$":{"ha":1160,"x_min":20,"x_max":1124,"o":"m 1004 1251 q 998 1234 1001 1240 q 993 1225 996 1229 q 988 1219 990 1221 q 984 1212 986 1217 q 973 1189 979 1202 q 960 1158 967 1175 q 1032 1119 1001 1141 q 1083 1070 1063 1096 q 1114 1015 1104 1044 q 1124 959 1124 987 q 1110 897 1124 926 q 1068 844 1096 867 q 997 807 1040 821 q 897 793 954 793 q 819 808 850 793 l 711 536 q 786 453 749 495 q 851 369 823 412 q 898 281 880 326 q 916 191 916 237 q 896 93 916 138 q 842 13 876 49 q 762 -50 808 -23 q 666 -95 717 -77 q 561 -122 614 -113 q 455 -131 507 -131 l 444 -131 q 414 -201 427 -170 q 390 -254 400 -232 q 373 -288 380 -276 q 363 -300 366 -300 q 360 -292 360 -300 q 361 -279 361 -286 q 364 -262 362 -271 l 370 -239 q 385 -198 376 -223 q 410 -130 394 -172 q 231 -102 304 -125 q 110 -45 157 -79 q 41 32 63 -10 q 20 116 20 74 q 35 188 20 153 q 80 250 51 223 q 149 294 109 277 q 239 310 189 310 q 255 311 247 310 q 276 311 263 311 q 270 305 271 310 q 269 294 269 300 l 269 288 q 268 277 269 282 q 261 273 267 273 q 189 261 220 273 q 137 230 158 250 q 104 184 115 210 q 94 130 94 158 q 113 55 94 92 q 172 -14 132 17 q 273 -63 212 -44 q 418 -83 334 -83 q 422 -82 420 -83 q 427 -82 425 -82 q 469 31 446 -31 q 517 163 492 93 q 572 309 543 233 q 629 462 600 385 q 536 563 585 513 q 447 665 488 614 q 380 766 406 715 q 354 869 354 817 q 374 968 354 924 q 428 1049 394 1013 q 506 1111 462 1084 q 596 1155 549 1137 q 691 1180 644 1172 q 779 1189 739 1189 q 851 1184 818 1189 q 915 1172 884 1180 q 943 1227 929 1201 q 968 1273 956 1253 q 988 1305 979 1293 q 1003 1316 998 1316 q 1014 1301 1014 1316 q 1012 1282 1014 1295 q 1004 1251 1010 1270 m 510 857 q 523 786 510 821 q 559 716 536 751 q 611 647 581 682 q 673 576 640 612 q 726 717 700 650 q 776 846 752 784 q 761 905 761 869 q 782 970 761 939 q 848 1023 803 1002 q 873 1082 860 1052 q 901 1143 887 1113 q 808 1163 856 1163 q 743 1155 777 1163 q 676 1131 709 1147 q 613 1089 644 1114 q 560 1030 583 1065 q 524 953 537 996 q 510 857 510 910 m 763 203 q 735 312 763 258 q 665 419 708 366 q 613 287 640 354 q 561 156 587 220 q 511 33 535 92 q 465 -79 486 -27 q 571 -51 517 -73 q 667 6 624 -30 q 736 91 709 41 q 763 203 763 140 m 1064 930 q 1056 980 1064 954 q 1031 1032 1047 1006 q 994 1080 1016 1057 q 945 1120 972 1103 l 905 1022 l 906 1019 l 903 1017 q 884 968 891 987 q 871 937 876 949 q 864 918 867 925 q 859 904 861 911 q 852 890 856 898 q 844 868 849 882 q 872 830 850 842 q 922 819 893 819 q 986 828 959 819 q 1030 852 1013 837 q 1056 887 1048 867 q 1064 930 1064 907 z "},"%":{"ha":1514,"x_min":28,"x_max":1481,"o":"m 1138 1457 q 1117 1406 1132 1439 q 1083 1332 1102 1373 q 1042 1247 1063 1291 q 1002 1164 1021 1203 q 970 1097 983 1126 q 954 1059 957 1069 q 928 997 947 1039 q 882 896 909 954 q 821 766 855 837 q 750 619 787 695 q 674 466 713 543 q 599 316 635 389 q 529 181 562 244 q 470 71 496 118 q 426 -2 444 24 q 404 -29 409 -29 q 396 -27 403 -29 q 381 -22 389 -26 q 368 -13 374 -19 q 361 0 361 -7 q 362 5 361 4 q 378 40 363 9 q 416 122 392 71 q 472 241 439 173 q 542 389 504 309 q 622 556 580 468 q 706 734 663 644 q 792 915 749 825 q 876 1088 836 1004 q 908 1156 888 1114 q 954 1245 929 1198 q 1004 1340 978 1293 q 1054 1427 1030 1388 q 1096 1490 1077 1466 q 1123 1514 1114 1514 q 1132 1511 1128 1514 q 1138 1503 1136 1508 q 1142 1493 1141 1498 q 1143 1482 1143 1487 q 1138 1457 1143 1466 m 1324 898 q 1391 879 1361 898 q 1440 827 1420 860 q 1471 750 1460 794 q 1481 657 1481 707 q 1462 523 1481 585 q 1412 411 1443 461 q 1338 322 1380 360 q 1250 257 1296 283 q 1156 218 1204 231 q 1065 205 1108 205 q 999 214 1029 205 q 945 242 968 223 q 909 289 922 261 q 897 356 897 317 q 913 505 897 434 q 958 635 929 575 q 1027 744 987 696 q 1114 827 1067 793 q 1215 880 1162 861 q 1324 898 1268 898 m 1000 373 q 1007 317 1000 340 q 1026 278 1014 294 q 1056 255 1039 262 q 1093 248 1073 248 q 1152 261 1121 248 q 1215 301 1183 275 q 1274 365 1246 327 q 1325 452 1303 403 q 1360 560 1347 500 q 1373 688 1373 619 q 1365 762 1373 730 q 1344 814 1357 793 q 1312 844 1331 834 q 1272 854 1293 854 q 1214 838 1244 854 q 1153 793 1183 823 q 1095 721 1122 764 q 1046 625 1067 679 q 1012 508 1025 572 q 1000 373 1000 445 m 447 1203 q 512 1184 484 1203 q 561 1134 541 1166 q 590 1059 580 1102 q 600 967 600 1016 q 582 836 600 896 q 532 726 564 775 q 460 639 501 676 q 374 576 419 602 q 282 537 329 550 q 193 524 235 524 q 129 533 159 524 q 76 561 98 543 q 41 607 54 579 q 28 673 28 635 q 44 818 28 749 q 89 946 60 887 q 156 1053 117 1005 q 242 1134 195 1100 q 340 1185 288 1167 q 447 1203 393 1203 m 129 689 q 155 596 129 626 q 221 566 181 566 q 279 579 248 566 q 340 618 310 593 q 398 681 370 644 q 447 766 426 718 q 481 872 469 814 q 494 997 494 930 q 486 1070 494 1039 q 466 1121 479 1101 q 435 1150 452 1141 q 396 1160 417 1160 q 309 1126 355 1160 q 222 1030 262 1092 q 155 882 182 968 q 129 689 129 795 z "},"&":{"ha":1839,"x_min":-42,"x_max":1998,"o":"m -28 259 q 40 304 5 281 q 104 347 70 324 q 170 392 139 370 q 262 463 216 424 q 347 537 308 503 q 433 619 391 578 l 503 720 q 531 758 516 736 q 558 799 545 779 q 587 845 573 821 q 574 908 578 873 q 570 984 570 943 q 578 1106 570 1041 q 601 1238 586 1171 q 638 1372 616 1305 q 687 1500 660 1439 q 746 1614 714 1562 q 814 1706 778 1667 q 889 1766 850 1744 q 969 1788 928 1788 q 1050 1777 1017 1788 q 1105 1747 1084 1767 q 1136 1699 1126 1727 q 1146 1636 1146 1671 q 1135 1550 1146 1596 q 1102 1452 1123 1503 q 1054 1347 1082 1400 q 994 1238 1026 1293 q 925 1131 961 1184 q 854 1029 890 1078 q 783 937 818 981 q 718 859 748 894 q 736 761 723 808 q 773 676 750 713 q 830 617 796 639 q 909 595 863 595 q 953 604 932 595 q 990 628 973 613 q 985 691 987 661 q 983 753 983 722 q 989 837 983 796 q 1009 908 996 877 q 1041 958 1023 939 q 1084 977 1060 977 q 1125 951 1112 977 q 1137 885 1137 925 q 1117 760 1137 827 q 1050 629 1096 693 q 1073 537 1060 582 q 1098 457 1086 492 q 1119 397 1110 421 q 1127 367 1127 373 q 1123 349 1127 357 q 1114 334 1120 340 q 1100 323 1107 328 q 1084 319 1093 319 q 1069 325 1078 319 q 1048 355 1060 330 q 1024 431 1037 380 q 998 574 1011 482 q 952 547 976 557 q 899 537 928 537 q 844 547 873 537 q 726 627 773 572 q 653 757 680 682 q 542 599 593 677 q 452 449 490 522 q 392 310 414 376 q 370 189 370 244 q 396 87 370 130 q 468 17 422 45 q 578 -23 515 -10 q 715 -36 641 -36 q 874 -23 791 -36 q 1043 14 958 -10 q 1212 73 1128 38 q 1372 152 1296 108 q 1513 250 1448 197 q 1626 363 1578 303 q 1700 491 1673 424 q 1727 631 1727 558 q 1727 649 1727 640 q 1726 667 1727 657 q 1660 685 1694 675 q 1593 703 1626 694 q 1528 717 1560 711 q 1470 723 1497 723 q 1436 719 1450 723 q 1413 709 1423 715 q 1395 695 1403 703 q 1377 682 1387 688 q 1355 671 1368 675 q 1322 667 1341 667 q 1299 672 1308 667 q 1283 686 1289 677 q 1273 703 1276 694 q 1270 722 1270 713 q 1289 770 1270 751 q 1333 798 1307 788 q 1387 812 1359 808 q 1434 815 1415 815 q 1505 806 1470 815 q 1573 784 1539 797 q 1639 754 1607 770 q 1705 725 1672 739 q 1770 703 1737 712 q 1838 694 1803 694 q 1873 702 1857 694 q 1904 721 1889 711 q 1933 740 1919 732 q 1966 749 1948 749 q 1991 741 1984 749 q 1998 722 1998 734 q 1980 692 1998 706 q 1938 668 1963 678 q 1887 652 1913 658 q 1842 646 1860 646 q 1802 650 1824 646 q 1757 659 1781 653 l 1757 652 q 1761 614 1760 633 q 1763 578 1763 596 q 1733 410 1763 490 q 1652 260 1704 330 q 1530 131 1600 191 q 1376 23 1459 72 q 1200 -63 1293 -26 q 1014 -126 1108 -100 q 827 -164 920 -151 q 650 -178 734 -178 q 486 -163 562 -178 q 356 -119 411 -149 q 269 -43 300 -89 q 237 64 237 2 q 250 152 237 100 q 282 260 262 203 q 326 375 302 317 q 374 482 351 433 q 356 464 372 477 q 314 432 340 451 q 257 391 289 413 q 191 345 225 368 q 124 300 157 322 q 63 260 91 277 q 16 230 36 242 q -11 215 -4 218 q -24 210 -18 210 q -38 217 -33 210 q -42 233 -42 224 q -28 259 -42 250 m 976 1740 q 904 1715 937 1740 q 844 1649 871 1691 q 795 1553 817 1608 q 756 1437 773 1499 q 727 1312 739 1376 q 708 1189 715 1249 q 696 1078 700 1130 q 692 991 692 1027 l 692 970 q 770 1064 730 1009 q 850 1181 811 1119 q 924 1310 889 1244 q 985 1440 959 1377 q 1027 1558 1012 1503 q 1043 1655 1043 1614 q 1027 1717 1043 1695 q 976 1740 1012 1740 m 1075 772 q 1093 836 1087 805 q 1099 890 1099 867 q 1095 918 1099 907 q 1080 928 1090 928 q 1060 916 1069 928 q 1044 885 1050 904 q 1033 841 1037 865 q 1029 791 1029 816 q 1031 742 1029 768 q 1038 690 1033 716 q 1059 733 1051 711 q 1075 772 1067 754 z "},"'":{"ha":467,"x_min":122,"x_max":331,"o":"m 186 1027 q 163 1008 177 1015 q 142 1000 149 1000 q 127 1007 133 1000 q 122 1028 122 1014 q 128 1076 122 1046 q 144 1139 134 1105 q 169 1207 155 1173 q 197 1270 182 1242 q 228 1315 212 1297 q 258 1332 243 1332 q 293 1327 279 1332 q 316 1315 307 1322 q 328 1297 324 1308 q 331 1277 331 1287 q 326 1248 331 1262 q 317 1224 321 1234 q 284 1164 298 1188 q 256 1119 270 1139 q 225 1077 241 1098 q 186 1027 208 1056 z "},"(":{"ha":949,"x_min":60,"x_max":946,"o":"m 924 1441 q 946 1422 946 1432 q 936 1409 946 1415 q 915 1403 926 1403 q 911 1403 913 1403 q 905 1404 909 1404 q 806 1417 852 1417 q 688 1388 745 1417 q 577 1307 630 1358 q 478 1185 525 1255 q 391 1031 431 1114 q 319 856 351 948 q 265 668 288 763 q 231 480 243 574 q 219 300 219 386 q 234 126 219 206 q 280 -14 249 45 q 361 -106 312 -73 q 480 -140 411 -140 q 565 -128 520 -140 q 569 -127 566 -128 q 574 -126 571 -126 q 586 -133 581 -126 q 591 -149 591 -140 q 574 -174 591 -163 q 532 -191 556 -184 q 482 -201 507 -198 q 440 -204 456 -204 q 268 -161 340 -204 q 150 -44 196 -118 q 82 130 104 31 q 60 344 60 230 q 74 533 60 435 q 112 727 87 630 q 174 916 138 823 q 257 1092 211 1009 q 359 1244 303 1175 q 477 1365 414 1314 q 610 1444 541 1415 q 756 1472 680 1472 q 924 1441 839 1472 z "},")":{"ha":911,"x_min":5,"x_max":860,"o":"m 28 -160 q 10 -155 15 -159 q 5 -147 5 -151 q 8 -138 5 -142 q 18 -129 12 -133 q 32 -122 24 -125 q 46 -120 39 -120 q 172 -89 110 -120 q 291 -1 233 -57 q 402 130 349 54 q 500 295 454 206 q 582 481 545 384 q 644 679 618 579 q 684 876 670 779 q 699 1061 699 973 q 684 1220 699 1147 q 638 1348 669 1294 q 558 1431 607 1401 q 440 1461 509 1461 q 380 1457 412 1461 q 311 1444 349 1453 q 310 1443 310 1444 q 309 1443 309 1443 q 295 1451 301 1443 q 290 1466 290 1458 q 300 1481 290 1474 q 328 1494 311 1489 q 366 1503 345 1499 q 406 1509 386 1507 q 443 1513 426 1512 q 468 1514 459 1514 q 647 1475 572 1514 q 768 1369 721 1436 q 838 1209 816 1301 q 860 1012 860 1118 q 844 819 860 919 q 798 620 828 720 q 726 423 768 520 q 631 239 684 326 q 515 79 578 153 q 382 -48 452 5 q 235 -132 312 -102 q 77 -162 158 -162 q 28 -160 54 -162 z "},"*":{"ha":642,"x_min":38,"x_max":614,"o":"m 353 872 q 372 882 363 880 q 393 885 382 885 q 412 879 406 885 q 418 855 418 873 q 412 814 418 840 q 397 756 406 787 q 377 690 388 724 q 355 627 366 656 q 465 671 408 648 q 578 708 523 694 q 588 710 584 710 q 607 701 601 710 q 614 680 614 692 q 606 658 612 669 q 585 637 600 647 q 551 627 577 633 q 490 612 524 621 q 421 596 456 604 q 361 584 386 589 q 416 478 392 524 q 451 401 439 432 q 451 400 451 400 q 452 399 452 400 q 452 399 452 399 q 445 388 452 394 q 429 377 438 382 q 411 368 420 372 q 395 364 401 364 q 387 366 390 364 q 360 416 372 389 q 336 471 347 444 q 317 521 326 498 q 302 556 309 544 q 277 537 293 551 q 242 507 262 524 q 202 471 223 490 q 160 433 180 451 q 120 400 139 415 q 89 376 102 385 q 78 374 86 374 q 51 384 64 374 q 38 410 38 394 q 43 425 38 416 q 58 441 47 433 q 112 481 83 460 q 168 523 141 503 q 216 559 194 543 q 250 588 237 576 q 214 602 235 593 q 170 619 193 610 q 124 638 146 629 q 83 657 101 648 q 53 674 64 667 q 42 686 42 682 q 46 698 43 691 q 55 711 50 705 q 65 722 60 718 q 77 726 71 726 l 78 726 q 121 711 94 723 q 178 684 148 699 q 237 654 208 669 q 284 632 266 640 q 299 695 291 658 q 316 768 307 732 q 334 833 324 804 q 353 872 343 862 z "},"+":{"ha":602,"x_min":18,"x_max":591,"o":"m 385 818 q 409 831 397 828 q 433 835 420 835 l 443 835 q 456 821 453 834 q 455 784 458 807 q 444 731 452 762 q 424 667 435 701 q 396 586 411 629 q 366 503 380 543 q 401 502 384 502 q 411 502 406 502 q 452 503 415 503 l 506 503 q 569 498 547 503 q 585 479 591 494 q 575 454 579 459 q 560 448 571 448 q 527 448 548 448 q 477 448 505 448 q 417 447 450 448 q 349 446 384 447 q 291 299 322 374 q 224 136 259 224 q 204 115 218 121 q 176 109 191 109 q 159 112 168 109 q 144 119 151 115 q 133 128 137 123 q 131 138 130 133 q 144 180 135 154 q 163 238 153 207 q 185 303 174 270 q 207 366 197 336 q 225 419 218 395 q 235 454 233 443 q 198 455 218 454 q 167 455 178 456 q 141 455 157 454 q 109 456 126 455 q 75 460 92 458 q 45 465 58 462 q 25 472 33 468 q 20 481 18 476 q 21 487 20 484 q 23 492 22 489 q 44 505 26 500 q 91 510 62 509 q 153 512 119 512 q 224 512 188 512 q 239 512 231 512 q 255 511 248 512 l 289 606 q 297 629 291 612 q 310 666 302 645 q 328 710 318 687 q 347 754 337 733 q 367 793 357 776 q 385 818 376 810 z "},",":{"ha":433,"x_min":40,"x_max":380,"o":"m 48 -113 q 81 -117 63 -117 q 161 -89 125 -117 q 226 -17 197 -60 q 171 -5 193 -15 q 134 21 148 5 q 113 54 119 36 q 106 90 106 73 q 118 146 106 118 q 150 198 130 175 q 197 235 170 220 q 253 250 223 250 q 299 241 276 250 q 339 219 321 233 q 369 185 357 205 q 380 142 380 165 q 370 79 380 112 q 342 13 360 45 q 299 -51 324 -20 q 243 -104 274 -81 q 178 -140 213 -127 q 106 -154 144 -154 q 40 -144 78 -154 l 48 -113 z "},"-":{"ha":1146,"x_min":95,"x_max":1081,"o":"m 113 252 q 98 271 102 260 q 95 294 95 281 q 110 308 95 302 q 150 315 125 313 q 207 319 175 318 q 271 320 238 320 q 356 319 304 320 q 467 315 407 317 q 593 311 528 313 q 723 305 659 308 q 844 300 787 302 q 945 295 901 297 q 1014 292 988 294 q 1040 290 1040 290 q 1068 278 1055 288 q 1081 258 1081 268 q 1073 245 1081 250 q 1040 237 1065 241 q 978 232 1015 234 q 894 228 941 229 q 796 225 847 226 q 691 223 745 224 q 585 222 637 222 q 503 222 543 222 q 430 223 463 222 q 373 224 397 223 q 334 225 348 224 q 310 225 326 225 q 271 227 293 226 q 225 229 250 227 q 179 234 201 231 q 139 241 157 237 q 113 252 121 245 z "},".":{"ha":450,"x_min":75,"x_max":387,"o":"m 163 -12 q 124 -3 140 -12 q 96 21 107 6 q 80 55 85 36 q 75 96 75 75 q 87 166 75 130 q 120 233 98 203 q 173 282 142 263 q 242 302 203 302 q 310 292 282 302 q 355 264 338 281 q 379 225 372 248 q 387 180 387 203 q 366 106 387 141 q 314 45 346 71 q 242 4 281 19 q 163 -12 202 -12 z "},"/":{"ha":781,"x_min":4,"x_max":777,"o":"m 765 1460 q 758 1441 762 1448 q 752 1430 755 1434 q 747 1423 749 1426 q 741 1415 744 1420 q 721 1369 734 1399 q 693 1302 708 1339 q 662 1226 678 1265 q 633 1154 646 1187 q 612 1098 621 1120 q 602 1070 603 1075 q 572 1002 593 1052 q 524 880 552 952 q 460 719 495 808 q 388 533 426 630 q 312 337 351 437 q 236 144 273 237 q 165 -31 199 51 q 106 -174 132 -113 q 63 -270 81 -235 q 41 -305 46 -305 q 38 -306 41 -306 q 34 -307 37 -307 q 30 -307 32 -307 q 13 -303 21 -307 q 4 -288 4 -299 q 8 -270 4 -280 q 98 -34 52 -154 q 190 207 144 86 q 282 445 236 327 q 373 677 328 564 q 460 896 417 790 q 542 1095 503 1001 q 571 1165 553 1122 q 610 1257 589 1208 q 655 1356 632 1306 q 699 1446 678 1405 q 737 1511 720 1486 q 763 1536 754 1536 q 772 1532 768 1536 q 777 1518 777 1528 q 774 1496 777 1510 q 765 1460 772 1482 z "},":":{"ha":387,"x_min":73,"x_max":321,"o":"m 321 618 q 309 567 321 589 q 278 528 297 544 q 234 504 258 513 q 187 496 210 496 q 150 502 168 496 q 119 519 132 507 q 98 550 106 531 q 90 594 90 568 q 98 643 90 620 q 123 682 106 665 q 162 708 139 699 q 214 718 185 718 q 264 709 243 718 q 297 686 285 700 q 316 653 310 671 q 321 618 321 635 m 172 45 q 127 53 146 45 q 97 74 109 61 q 79 105 85 87 q 73 141 73 122 q 81 189 73 165 q 105 233 90 214 q 141 265 120 253 q 187 277 161 277 q 238 270 217 277 q 271 250 258 262 q 289 220 283 237 q 295 186 295 204 q 288 132 295 157 q 266 87 281 106 q 228 57 252 68 q 172 45 205 45 z "},";":{"ha":355,"x_min":58,"x_max":306,"o":"m 59 -71 q 103 -61 83 -71 q 138 -36 123 -52 q 165 2 153 -20 q 184 47 176 23 q 157 45 171 45 q 112 53 130 45 q 81 74 93 61 q 63 105 69 87 q 58 141 58 122 q 66 189 58 165 q 89 233 74 214 q 125 265 104 253 q 172 277 146 277 q 222 270 201 277 q 255 250 243 262 q 274 220 268 237 q 279 186 279 204 q 275 128 279 159 q 261 64 271 96 q 234 3 251 33 q 193 -49 218 -26 q 135 -85 168 -72 q 59 -99 102 -99 l 59 -71 m 306 618 q 294 567 306 589 q 262 528 281 544 q 219 504 243 513 q 172 496 195 496 q 134 502 152 496 q 103 519 117 507 q 82 550 90 531 q 74 594 74 568 q 82 643 74 620 q 107 682 91 665 q 146 708 123 699 q 198 718 170 718 q 249 709 228 718 q 282 686 269 700 q 300 653 294 671 q 306 618 306 635 z "},"<":{"ha":455,"x_min":22,"x_max":394,"o":"m 50 378 q 159 458 111 424 q 244 515 207 492 q 308 549 281 538 q 357 561 336 561 q 369 559 363 561 q 381 554 376 557 q 390 546 387 551 q 394 534 394 541 q 374 506 394 524 q 320 466 353 489 q 244 414 287 443 q 157 352 201 385 l 132 333 q 178 277 153 305 q 228 224 204 248 q 269 181 251 199 q 290 157 286 163 q 318 100 318 119 q 313 84 318 90 q 301 74 308 77 q 289 68 295 70 q 281 66 283 66 q 233 90 263 66 q 168 150 203 114 q 97 228 132 186 q 33 305 61 269 q 25 320 27 313 q 22 333 22 327 q 25 348 22 341 q 33 361 28 355 q 42 372 37 368 q 50 378 47 376 z "},"=":{"ha":768,"x_min":94,"x_max":688,"o":"m 104 583 q 95 600 95 590 q 126 645 95 632 q 218 658 158 658 q 306 655 259 658 q 397 652 352 652 q 509 649 465 652 q 581 641 553 646 q 621 632 608 636 q 638 628 633 629 q 656 624 647 627 q 672 615 665 621 q 683 603 679 610 q 688 591 688 597 q 669 570 688 578 q 618 559 650 563 q 542 554 585 555 q 449 553 498 553 q 400 555 422 553 q 369 559 378 557 q 349 559 363 559 q 313 559 334 559 q 255 559 287 559 q 193 563 223 560 q 139 570 163 565 q 104 583 115 575 m 104 306 q 94 326 94 313 q 116 348 94 340 q 172 361 137 357 q 250 366 206 365 q 337 367 293 367 q 479 366 423 367 q 569 363 535 364 q 617 360 602 361 q 638 359 633 359 q 656 354 647 357 q 672 345 665 350 q 683 333 679 339 q 688 320 688 326 q 658 298 688 306 q 579 286 629 290 q 467 280 530 281 q 336 279 404 279 q 352 279 345 279 q 363 280 358 280 q 369 282 369 281 q 349 282 363 282 q 313 281 334 281 q 255 282 287 281 q 193 285 223 283 q 139 293 163 288 q 104 306 115 298 z "},">":{"ha":449,"x_min":53,"x_max":426,"o":"m 398 260 q 287 177 334 212 q 204 117 239 141 q 142 82 168 94 q 96 71 116 71 q 84 72 92 71 q 70 76 77 73 q 58 83 63 79 q 53 93 53 87 q 75 122 53 103 q 132 168 97 142 q 211 224 167 193 q 298 287 254 254 l 323 306 q 279 362 302 333 q 234 418 255 392 q 198 463 214 444 q 178 489 182 482 q 151 546 151 527 q 156 562 151 555 q 167 572 161 568 q 179 577 173 576 q 187 579 185 579 q 214 568 198 579 q 249 537 230 556 q 289 492 268 517 q 332 440 310 467 q 375 385 353 412 q 415 334 396 357 q 423 319 420 326 q 426 306 425 312 q 415 277 426 289 q 398 260 405 265 z "},"?":{"ha":1015,"x_min":60,"x_max":986,"o":"m 355 50 q 330 58 330 50 q 352 87 330 68 q 409 137 374 107 q 490 208 445 167 q 583 300 536 248 q 675 414 630 351 q 756 552 721 477 q 814 713 792 627 q 836 899 836 800 q 823 957 836 929 q 783 1004 810 984 q 711 1037 755 1025 q 604 1049 667 1049 q 452 1030 526 1049 q 320 972 378 1010 q 227 876 262 933 q 191 742 191 818 q 207 665 191 696 q 245 613 222 633 q 295 581 268 593 q 345 563 321 569 q 383 554 368 557 q 398 549 398 551 q 401 539 398 547 q 405 524 405 532 q 399 510 405 516 q 378 504 394 504 q 235 522 295 504 q 136 571 175 541 q 78 642 97 602 q 60 726 60 682 q 85 828 60 779 q 154 919 111 877 q 257 995 198 961 q 382 1054 315 1029 q 522 1092 450 1078 q 664 1105 594 1105 q 788 1090 730 1105 q 891 1043 847 1076 q 960 961 935 1011 q 986 840 986 911 q 962 684 986 760 q 897 538 937 608 q 805 404 857 468 q 697 286 753 340 q 585 188 641 232 q 483 114 530 144 q 402 66 436 83 q 355 50 368 50 m 252 -293 q 219 -286 233 -293 q 196 -266 205 -278 q 182 -237 186 -254 q 178 -203 178 -221 q 188 -144 178 -175 q 216 -89 198 -114 q 260 -47 234 -64 q 317 -31 286 -31 q 374 -40 351 -31 q 411 -62 397 -48 q 432 -95 425 -77 q 438 -133 438 -113 q 421 -195 438 -165 q 377 -245 404 -224 q 317 -280 351 -267 q 252 -293 284 -293 z "},"@":{"ha":1790,"x_min":92,"x_max":1715,"o":"m 1715 286 q 1694 219 1715 251 q 1638 158 1674 186 q 1553 103 1602 129 q 1449 57 1504 78 q 1333 19 1393 35 q 1215 -9 1274 2 q 1101 -27 1156 -21 q 1001 -33 1046 -33 q 967 -22 981 -33 q 944 7 953 -12 q 932 52 936 26 q 928 107 928 77 q 929 153 928 129 q 935 203 930 178 q 893 107 920 148 q 831 40 865 67 q 760 0 798 13 q 688 -14 722 -14 q 631 -4 658 -14 q 585 23 605 5 q 553 70 565 42 q 542 135 542 98 q 544 170 542 151 q 553 210 547 189 q 594 295 564 254 q 669 374 625 337 q 766 440 713 410 q 875 492 819 471 q 987 526 931 514 q 1090 538 1042 538 q 1184 522 1143 538 q 1242 469 1224 505 l 1137 469 q 1110 368 1125 418 q 1079 263 1095 318 q 1046 148 1063 209 q 1014 14 1029 86 l 1014 12 q 1036 3 1014 3 q 1095 11 1057 3 q 1181 33 1133 19 q 1283 64 1229 46 q 1390 105 1337 83 q 1492 151 1443 127 q 1578 200 1541 175 q 1637 249 1615 224 q 1659 296 1659 273 q 1642 444 1659 371 q 1591 583 1625 517 q 1509 704 1558 648 q 1397 801 1460 760 q 1257 865 1334 842 q 1092 888 1181 888 q 886 866 994 888 q 674 801 779 844 q 477 694 570 758 q 312 548 383 631 q 199 365 241 466 q 157 146 157 264 q 171 -17 157 54 q 213 -141 186 -88 q 277 -231 239 -195 q 361 -290 315 -267 q 461 -322 408 -313 q 574 -332 515 -332 q 757 -314 662 -332 q 947 -269 852 -296 q 1134 -210 1042 -241 q 1306 -149 1226 -178 q 1452 -100 1387 -121 q 1560 -77 1517 -80 l 1580 -98 q 1489 -155 1546 -124 q 1361 -217 1433 -186 q 1205 -278 1289 -249 q 1030 -331 1120 -308 q 846 -368 939 -354 q 663 -382 753 -382 q 513 -370 585 -382 q 377 -332 441 -358 q 261 -262 314 -305 q 171 -157 209 -220 q 113 -12 134 -95 q 92 178 92 71 q 130 425 92 315 q 234 619 168 534 q 389 764 300 703 q 582 863 479 825 q 797 920 685 902 q 1021 939 909 939 q 1315 890 1186 939 q 1531 756 1443 842 q 1666 549 1619 669 q 1715 286 1713 429 m 1022 471 q 955 467 994 471 q 874 451 916 463 q 789 416 831 439 q 714 356 747 393 q 661 266 682 319 q 640 138 640 212 q 656 55 640 79 q 699 31 673 31 q 744 43 719 31 q 793 76 768 56 q 843 122 819 96 q 888 175 867 149 q 923 228 908 202 q 943 273 937 254 l 1022 471 z "},"A":{"ha":1978,"x_min":-543,"x_max":2360,"o":"m 1978 279 q 1986 281 1982 281 q 2001 273 1994 281 q 2008 255 2008 264 q 2001 236 2008 245 q 1980 217 1994 227 q 1944 195 1966 208 q 1890 163 1921 182 q 1839 131 1871 152 q 1767 84 1807 109 q 1683 32 1727 58 q 1593 -17 1638 5 q 1506 -53 1548 -39 q 1430 -67 1464 -67 q 1392 -61 1409 -67 q 1362 -41 1375 -55 q 1343 -5 1350 -27 q 1337 49 1337 17 q 1351 145 1337 92 q 1387 257 1365 199 q 1436 372 1409 314 q 1490 481 1463 430 q 1539 572 1516 532 q 1573 636 1561 613 q 1482 640 1530 637 q 1393 649 1435 643 q 1317 664 1350 655 q 1270 685 1284 673 q 1127 526 1206 608 q 958 367 1048 444 q 769 221 868 290 q 567 101 670 153 q 357 20 463 50 q 147 -10 251 -10 q 71 -7 107 -10 q 0 2 34 -5 q -65 21 -34 9 q -125 52 -96 33 q -149 68 -137 60 q -171 84 -161 76 q -188 100 -181 92 q -195 115 -194 108 l -180 115 q -164 109 -180 115 q -124 96 -149 104 q -66 78 -99 87 q 2 60 -34 68 q 76 46 39 52 q 149 41 114 41 q 318 71 235 41 q 479 154 400 102 q 634 277 558 207 q 785 426 711 347 q 933 588 860 505 q 1078 749 1006 671 q 1223 898 1151 828 q 1370 1021 1296 968 q 1518 1104 1443 1074 q 1671 1135 1594 1135 q 1762 1120 1726 1135 q 1819 1081 1798 1105 q 1848 1024 1839 1057 q 1856 957 1856 992 q 1849 878 1856 918 q 1832 800 1841 837 q 1813 734 1822 764 q 1802 688 1805 705 l 1801 683 q 2006 738 1918 703 q 2153 814 2094 772 q 2241 906 2212 857 q 2271 1003 2271 954 q 2230 1113 2271 1059 q 2109 1207 2190 1166 q 1906 1273 2028 1248 q 1619 1297 1784 1297 q 1458 1290 1548 1297 q 1268 1269 1369 1282 q 1056 1240 1166 1256 q 829 1206 945 1223 q 597 1173 714 1189 q 368 1143 481 1156 q 149 1123 255 1131 q -53 1115 42 1115 q -193 1122 -129 1115 q -306 1145 -257 1129 q -334 1160 -313 1147 q -380 1191 -354 1173 q -435 1230 -407 1209 q -488 1270 -464 1251 q -527 1304 -511 1289 q -543 1323 -543 1318 q -539 1325 -543 1325 q -523 1321 -534 1325 q -492 1306 -512 1316 q -253 1233 -389 1254 q 60 1211 -116 1211 q 272 1221 154 1211 q 525 1244 390 1230 q 809 1274 660 1258 q 1115 1304 958 1291 q 1431 1328 1271 1318 q 1750 1337 1592 1337 q 2025 1311 1910 1337 q 2215 1240 2140 1284 q 2325 1138 2289 1196 q 2360 1019 2360 1081 q 2342 928 2360 974 q 2289 841 2324 883 q 2203 762 2254 800 q 2087 697 2153 725 q 1943 650 2022 669 q 1772 627 1864 632 q 1748 585 1766 614 q 1705 516 1730 556 q 1650 430 1680 477 q 1589 336 1619 384 q 1530 241 1558 288 q 1479 155 1501 194 q 1444 86 1457 115 q 1431 45 1431 58 q 1440 13 1431 22 q 1468 3 1450 3 q 1522 16 1489 3 q 1596 53 1556 30 q 1684 104 1637 75 q 1780 164 1731 133 q 1880 224 1830 195 q 1978 279 1930 254 m 1601 685 q 1645 773 1621 726 q 1690 865 1669 819 q 1725 953 1711 911 q 1740 1028 1740 996 q 1728 1072 1740 1059 q 1697 1084 1716 1084 q 1638 1067 1672 1084 q 1566 1022 1604 1050 q 1488 957 1527 994 q 1414 881 1449 920 q 1351 803 1379 842 q 1309 730 1323 764 q 1346 711 1317 720 q 1417 697 1375 703 q 1507 688 1458 691 q 1601 685 1555 685 z "},"B":{"ha":2247,"x_min":0,"x_max":2280,"o":"m 0 350 q 23 505 0 427 q 91 653 46 582 q 199 786 135 724 q 344 892 262 847 q 524 964 426 938 q 733 989 621 989 q 916 974 833 989 q 1066 931 1000 958 q 1183 873 1133 905 q 1266 808 1234 841 q 1325 962 1295 889 q 1392 1098 1356 1036 q 1472 1211 1428 1160 q 1574 1296 1516 1261 q 1706 1351 1632 1332 q 1875 1370 1780 1370 q 1993 1349 1942 1370 q 2081 1293 2045 1329 q 2136 1208 2117 1257 q 2155 1103 2155 1159 q 2134 991 2155 1046 q 2071 883 2114 937 q 1964 779 2029 830 q 1809 677 1899 727 q 1951 638 1891 670 q 2051 558 2011 607 q 2110 448 2091 510 q 2130 320 2130 387 q 2117 209 2130 263 q 2160 232 2138 220 q 2203 255 2183 244 l 2247 279 q 2264 283 2257 283 q 2280 267 2280 283 q 2272 245 2280 255 q 2252 228 2264 236 q 2223 211 2239 219 q 2191 193 2207 202 q 2148 168 2167 180 q 2107 143 2129 155 q 2013 -101 2077 6 q 1862 -281 1950 -208 q 1665 -393 1773 -355 q 1438 -431 1556 -431 q 1330 -422 1383 -431 q 1227 -396 1277 -412 q 1133 -357 1178 -379 q 1051 -310 1088 -335 q 984 -258 1013 -285 q 937 -207 955 -232 q 676 -195 799 -207 q 450 -157 553 -183 q 262 -87 346 -130 q 121 18 179 -44 q 31 162 62 79 q 0 350 0 244 m 918 566 q 941 587 918 574 q 1004 614 964 600 q 1099 642 1044 628 q 1219 669 1154 656 l 1251 767 q 1177 821 1219 796 q 1074 863 1134 845 q 931 890 1013 880 q 739 901 849 901 q 537 880 630 901 q 369 822 445 859 q 236 734 294 785 q 138 626 178 684 q 79 503 99 567 q 59 374 59 438 q 80 254 59 313 q 140 141 101 195 q 237 43 180 88 q 365 -36 294 -3 q 522 -87 437 -68 q 705 -106 608 -106 l 709 -106 q 707 -88 707 -96 q 706 -71 706 -79 q 716 -16 706 -39 q 742 22 726 7 q 779 44 758 37 q 823 51 800 51 q 879 42 851 51 q 929 17 907 33 q 1004 113 970 59 q 1067 229 1038 167 q 1121 360 1096 292 q 1169 502 1145 429 q 1100 499 1135 500 q 1029 498 1066 498 q 948 515 978 498 q 918 566 918 531 m 997 -141 q 1223 -113 1107 -132 q 1457 -60 1338 -93 q 1701 21 1577 -26 q 1955 134 1826 69 q 1968 208 1962 165 q 1975 309 1975 250 q 1971 381 1975 344 q 1956 453 1967 418 q 1928 520 1946 488 q 1883 576 1910 551 q 1816 616 1855 601 q 1727 635 1778 632 q 1643 600 1684 616 q 1558 570 1603 584 q 1465 544 1514 555 q 1354 523 1415 532 q 1304 335 1333 427 q 1232 160 1275 242 q 1128 9 1188 77 q 985 -106 1067 -59 q 990 -123 987 -115 q 997 -141 994 -132 m 1554 708 q 1690 700 1625 708 q 1962 908 1872 800 q 2051 1126 2051 1015 q 2038 1202 2051 1167 q 1999 1261 2025 1236 q 1932 1301 1972 1286 q 1838 1315 1891 1315 q 1689 1293 1750 1315 q 1584 1232 1627 1272 q 1512 1136 1540 1192 q 1463 1012 1484 1080 q 1427 864 1443 943 q 1392 698 1411 785 q 1436 702 1417 700 q 1473 705 1455 703 q 1510 707 1491 707 q 1554 708 1529 708 m 1946 65 q 1825 5 1886 36 q 1697 -56 1763 -26 q 1557 -113 1630 -86 q 1401 -160 1485 -140 q 1223 -194 1318 -181 q 1017 -208 1128 -206 q 1092 -267 1048 -237 q 1188 -323 1137 -298 q 1297 -364 1240 -348 q 1410 -380 1354 -380 q 1612 -345 1522 -380 q 1768 -249 1702 -310 q 1880 -107 1835 -189 q 1946 65 1924 -26 m 1379 633 q 1374 607 1376 620 q 1368 583 1372 595 q 1434 596 1405 589 q 1489 613 1463 604 q 1540 632 1515 622 q 1598 655 1566 643 q 1587 656 1592 656 q 1576 656 1582 656 q 1525 652 1548 654 q 1479 647 1501 650 q 1433 641 1457 644 q 1379 633 1409 637 m 1033 567 q 1093 563 1063 564 q 1152 562 1123 562 l 1183 562 q 1187 576 1185 570 q 1192 590 1190 583 q 1104 574 1143 581 q 1033 567 1064 567 z "},"C":{"ha":1218,"x_min":102,"x_max":1809,"o":"m 989 1387 q 1119 1374 1063 1387 q 1217 1340 1175 1362 q 1350 1403 1281 1375 q 1491 1451 1419 1431 q 1634 1481 1562 1470 q 1775 1492 1706 1492 q 1800 1484 1791 1492 q 1809 1467 1809 1476 q 1802 1453 1809 1459 q 1779 1447 1794 1447 q 1662 1437 1725 1447 q 1533 1407 1599 1426 q 1401 1361 1467 1388 q 1275 1301 1335 1334 q 1341 1206 1320 1260 q 1361 1088 1361 1152 q 1340 936 1361 1015 q 1281 782 1318 858 q 1194 639 1244 707 q 1087 520 1144 571 q 968 439 1029 469 q 846 409 906 409 q 763 421 798 409 q 706 455 728 433 q 673 508 684 477 q 662 577 662 539 q 679 692 662 630 q 727 819 696 753 q 804 951 759 884 q 904 1082 848 1019 q 1026 1205 960 1146 q 1166 1312 1093 1263 q 1083 1338 1129 1329 q 979 1347 1037 1347 q 808 1321 887 1347 q 663 1250 729 1295 q 543 1143 597 1205 q 447 1009 489 1082 q 374 858 405 937 q 323 697 343 778 q 293 536 303 616 q 283 385 283 457 q 308 245 283 312 q 380 126 333 178 q 495 43 427 74 q 650 12 563 12 q 734 26 688 12 q 832 63 781 41 q 937 115 884 86 q 1041 173 990 144 q 1137 231 1091 203 q 1218 279 1182 258 q 1225 281 1221 281 q 1238 274 1232 281 q 1243 258 1243 267 q 1237 239 1243 249 q 1218 222 1232 230 q 1122 166 1171 196 q 1022 106 1073 136 q 920 49 972 77 q 813 1 867 22 q 704 -33 760 -20 q 590 -45 648 -45 q 371 -11 463 -45 q 219 83 279 24 q 130 223 159 143 q 102 394 102 303 q 130 616 102 501 q 211 842 157 732 q 341 1051 264 952 q 516 1225 418 1150 q 734 1343 615 1299 q 989 1387 853 1387 m 922 498 q 1021 523 972 498 q 1113 588 1069 547 q 1194 685 1157 629 q 1259 802 1232 740 q 1302 929 1286 863 q 1317 1057 1317 995 q 1296 1176 1317 1120 q 1227 1272 1275 1232 q 1108 1176 1164 1229 q 1003 1066 1051 1123 q 916 948 955 1008 q 850 830 878 888 q 809 720 823 772 q 794 623 794 667 q 825 532 794 566 q 922 498 855 498 z "},"D":{"ha":1660,"x_min":0,"x_max":1685,"o":"m 1388 1314 q 1408 1306 1401 1314 q 1415 1287 1415 1298 q 1407 1272 1415 1280 q 1384 1256 1398 1264 q 1357 1241 1371 1249 q 1330 1225 1342 1233 q 1426 1111 1383 1173 q 1498 978 1468 1049 q 1544 827 1528 907 q 1560 661 1560 748 q 1530 485 1560 565 q 1446 338 1499 404 q 1321 221 1393 273 q 1164 130 1249 169 q 1204 108 1182 115 q 1253 102 1227 102 q 1316 110 1282 102 q 1384 130 1350 117 q 1452 158 1418 142 q 1516 190 1486 174 q 1588 232 1553 210 q 1660 279 1624 254 q 1668 281 1663 281 q 1680 275 1674 281 q 1685 259 1685 269 q 1676 239 1685 250 q 1651 216 1666 228 q 1615 191 1635 203 q 1575 166 1596 178 q 1535 144 1554 155 q 1500 126 1515 134 q 1426 91 1466 108 q 1346 60 1387 73 q 1263 39 1305 47 q 1182 31 1221 31 q 1119 37 1149 31 q 1062 58 1089 44 l 1029 75 q 888 35 960 52 q 746 7 816 18 q 609 -8 675 -3 q 485 -14 543 -14 q 387 -4 436 -14 q 286 17 337 5 q 186 -17 237 -5 q 81 -29 136 -29 q 53 -25 67 -29 q 27 -13 39 -21 q 7 7 15 -5 q 0 36 0 20 q 13 67 0 55 q 43 85 25 79 q 81 94 61 92 q 117 96 101 96 q 161 94 139 96 q 205 89 184 92 q 350 210 282 143 q 479 351 417 277 q 598 506 541 426 q 714 667 656 586 q 829 829 771 749 q 950 984 888 909 q 1081 1124 1013 1058 q 1228 1244 1150 1191 q 1031 1356 1147 1314 q 761 1397 914 1397 q 610 1385 688 1397 q 458 1347 532 1373 q 316 1281 383 1321 q 198 1187 249 1242 q 118 1061 148 1132 q 89 903 89 990 q 100 811 89 848 q 131 750 111 774 q 179 716 151 727 q 239 706 206 706 q 334 724 283 706 q 435 771 385 741 q 532 839 486 800 q 614 918 578 877 q 671 1000 650 959 q 692 1075 692 1040 q 682 1116 692 1095 q 680 1122 680 1118 q 684 1129 680 1126 q 691 1135 687 1133 q 701 1139 696 1137 q 710 1140 706 1140 q 728 1133 720 1140 q 736 1112 736 1126 l 736 1108 q 755 1013 755 1061 q 736 918 755 963 q 683 836 716 873 q 604 767 649 798 q 508 716 559 737 q 404 683 458 694 q 298 671 350 671 q 198 685 245 671 q 115 726 151 698 q 58 798 79 753 q 37 903 37 842 q 66 1066 37 991 q 143 1203 94 1141 q 259 1312 193 1265 q 401 1391 326 1359 q 559 1440 477 1423 q 722 1457 642 1457 q 1023 1410 884 1457 q 1275 1274 1162 1363 q 1326 1298 1300 1287 q 1383 1314 1353 1308 l 1388 1314 m 1001 196 q 1059 214 1033 214 q 1086 208 1069 214 q 1229 336 1167 265 q 1332 487 1291 408 q 1395 650 1374 566 q 1416 817 1416 734 q 1383 1018 1416 923 q 1282 1191 1350 1113 q 1166 1078 1223 1143 q 1055 939 1110 1014 q 947 782 1000 864 q 839 617 893 700 q 729 453 785 534 q 614 299 673 372 q 493 165 555 227 q 362 59 430 103 q 439 46 401 52 q 517 41 477 41 q 756 66 647 41 q 959 135 865 90 q 957 146 957 140 q 967 170 957 158 q 1001 196 977 182 m 89 25 q 138 41 113 25 l 128 41 q 93 39 111 41 q 61 32 76 37 q 75 26 68 28 q 89 25 81 25 z "},"E":{"ha":1311,"x_min":-56,"x_max":1460,"o":"m 1141 131 q 1093 146 1109 131 q 1078 178 1078 161 q 1088 204 1078 193 q 1121 216 1099 216 q 1151 216 1135 216 q 1181 218 1166 217 q 1206 221 1195 219 q 1221 225 1217 222 l 1311 279 q 1326 283 1319 283 q 1337 278 1333 283 q 1341 265 1341 273 q 1334 243 1341 253 q 1310 223 1326 233 q 1272 200 1295 213 q 1219 169 1249 187 q 1220 159 1220 163 q 1220 149 1220 154 q 1186 -17 1220 56 q 1096 -146 1153 -90 q 964 -241 1039 -202 q 807 -306 889 -281 q 640 -342 724 -330 q 477 -353 555 -353 q 311 -331 386 -353 q 176 -270 235 -309 q 73 -175 117 -230 q 0 -56 29 -121 q -42 81 -28 9 q -56 230 -56 154 q -38 407 -56 318 q 17 576 -19 495 q 107 728 54 658 q 231 851 161 799 q 386 932 300 903 q 573 962 472 962 q 642 960 610 962 q 704 953 675 958 q 785 1099 739 1030 q 885 1219 831 1168 q 1000 1301 939 1271 q 1130 1331 1062 1331 q 1208 1310 1179 1331 q 1255 1255 1238 1289 q 1308 1330 1282 1295 q 1356 1392 1335 1365 q 1394 1436 1378 1419 q 1414 1454 1409 1452 q 1426 1442 1419 1449 q 1440 1428 1433 1435 q 1452 1412 1447 1420 q 1460 1398 1458 1404 q 1430 1365 1450 1386 q 1385 1316 1411 1344 q 1332 1255 1360 1288 q 1276 1185 1303 1221 q 1280 1154 1279 1170 q 1281 1121 1281 1137 q 1272 1028 1281 1077 q 1248 939 1263 980 q 1211 870 1232 897 q 1163 844 1189 844 q 1140 850 1149 844 q 1124 869 1130 857 q 1115 896 1118 880 q 1112 928 1112 911 q 1120 987 1112 955 q 1143 1054 1128 1019 q 1178 1128 1158 1090 q 1223 1206 1199 1166 q 1188 1253 1212 1234 q 1121 1272 1164 1272 q 1024 1243 1070 1272 q 936 1167 977 1215 q 860 1057 895 1119 q 796 928 825 995 q 928 816 884 893 q 972 609 972 739 q 969 537 972 574 q 960 459 966 500 q 879 186 935 276 q 747 96 823 96 q 682 120 711 96 q 632 189 652 144 q 601 296 612 233 q 590 435 590 358 q 595 541 590 486 q 611 655 600 596 q 639 774 622 713 q 680 895 656 834 q 627 900 654 899 q 570 902 600 902 q 445 876 503 902 q 341 803 388 849 q 259 694 294 757 q 199 559 223 631 q 162 407 174 486 q 150 249 150 328 q 160 110 150 178 q 190 -19 170 42 q 241 -132 210 -80 q 313 -221 272 -183 q 407 -279 355 -258 q 523 -300 459 -300 q 637 -291 576 -300 q 761 -261 699 -282 q 885 -206 823 -240 q 1001 -123 947 -172 q 1101 -8 1056 -74 q 1176 143 1146 58 q 1160 135 1168 139 q 1141 131 1152 131 m 926 465 q 933 528 931 498 q 935 585 935 558 q 924 694 935 647 q 892 776 913 741 q 841 834 871 810 q 773 873 811 858 q 723 719 743 793 q 696 591 704 644 q 684 479 689 536 q 680 368 680 422 q 684 280 680 321 q 697 209 688 239 q 721 161 706 178 q 757 143 735 143 q 804 159 779 143 q 851 213 828 176 q 894 312 874 251 q 926 465 913 374 m 1233 1042 q 1237 1077 1235 1058 q 1238 1117 1238 1097 l 1238 1132 q 1176 1024 1200 1076 q 1153 928 1153 971 q 1157 903 1153 913 q 1171 892 1161 892 q 1191 905 1181 892 q 1208 939 1200 918 q 1223 987 1217 960 q 1233 1042 1229 1015 z "},"F":{"ha":1239,"x_min":0,"x_max":2686,"o":"m 1239 279 q 1254 283 1247 283 q 1265 278 1261 283 q 1270 265 1270 273 q 1262 244 1270 256 q 1239 222 1255 232 q 1160 171 1200 195 q 1079 126 1120 147 q 1005 91 1044 108 q 924 60 966 73 q 841 39 883 47 q 761 31 800 31 q 701 37 729 31 q 616 -82 663 -28 q 518 -180 570 -136 q 412 -256 467 -223 q 304 -311 357 -289 q 200 -344 250 -333 q 106 -355 150 -355 q 70 -352 84 -355 q 46 -344 55 -349 q 34 -333 37 -339 q 30 -321 30 -327 q 37 -302 30 -310 q 53 -294 45 -294 q 139 -279 94 -294 q 232 -237 185 -264 q 325 -173 279 -210 q 413 -89 371 -135 q 490 9 454 -43 q 551 117 525 61 q 536 146 536 132 q 547 170 536 157 q 581 196 557 182 l 584 198 q 611 261 594 223 q 648 347 627 300 q 692 446 668 393 q 740 551 715 498 q 669 547 705 549 q 595 542 633 545 q 547 424 579 473 q 473 341 515 374 q 383 294 431 309 q 286 278 335 278 q 180 297 231 278 q 88 351 128 315 q 24 439 48 387 q 0 558 0 492 q 35 782 0 686 q 132 949 70 879 q 281 1065 195 1019 q 469 1138 367 1111 q 687 1177 572 1166 q 922 1188 802 1188 q 1036 1186 980 1188 q 1149 1181 1091 1184 q 1175 1185 1162 1185 q 1200 1182 1189 1185 q 1219 1175 1211 1179 q 1451 1153 1337 1166 q 1666 1127 1565 1139 q 1852 1107 1767 1116 q 1997 1099 1936 1099 q 2139 1105 2072 1099 q 2264 1123 2205 1112 q 2372 1149 2323 1135 q 2462 1179 2422 1164 q 2551 1217 2510 1197 q 2627 1260 2591 1236 l 2686 1215 q 2567 1116 2632 1156 q 2429 1051 2502 1076 q 2275 1017 2356 1027 q 2109 1006 2195 1006 q 1887 1020 2001 1006 q 1657 1052 1773 1033 q 1428 1091 1541 1070 q 1205 1128 1314 1112 q 1151 1074 1183 1106 q 1087 1004 1119 1041 q 1027 928 1055 967 q 985 856 1000 890 q 941 738 962 801 q 899 604 920 674 q 1101 605 999 604 q 1300 606 1204 606 q 1483 608 1397 607 q 1638 610 1570 609 q 1752 611 1706 610 q 1811 612 1797 612 q 1857 607 1840 612 q 1881 597 1874 602 q 1885 572 1885 580 q 1881 559 1885 562 q 1870 556 1877 556 q 1848 558 1861 556 q 1817 560 1834 560 q 1646 561 1727 560 q 1491 562 1565 561 q 1348 563 1417 562 q 1215 563 1280 563 q 1048 562 1128 563 q 886 558 968 561 q 850 440 868 499 q 815 325 833 380 q 781 220 798 270 q 746 128 764 170 q 785 108 764 114 q 832 102 807 102 q 896 110 862 102 q 963 130 929 117 q 1031 158 998 142 q 1096 190 1065 174 q 1167 232 1133 210 q 1239 279 1202 254 m 899 899 q 911 920 903 905 q 933 956 920 935 q 964 1002 947 977 q 1000 1052 981 1027 q 1041 1101 1020 1078 q 1085 1143 1063 1124 q 997 1150 1040 1147 q 913 1153 954 1153 q 701 1142 804 1153 q 507 1105 597 1131 q 339 1036 416 1079 q 208 927 263 992 q 123 771 153 861 q 92 564 92 682 q 106 452 92 498 q 144 377 120 406 q 200 335 168 349 q 269 322 232 322 q 358 339 312 322 q 448 386 405 356 q 526 455 490 415 q 583 541 562 494 l 554 538 q 546 538 550 538 q 539 538 543 538 q 485 551 503 538 q 467 581 467 564 q 494 618 467 603 q 574 631 519 631 q 580 631 577 631 q 617 629 602 631 q 645 624 633 627 q 667 618 656 621 q 690 611 677 614 q 720 606 703 608 q 764 604 738 604 q 815 716 791 663 q 858 810 840 770 q 883 863 877 850 l 899 899 z "},"G":{"ha":1635,"x_min":-678,"x_max":1935,"o":"m 1635 279 q 1650 283 1643 283 q 1662 278 1657 283 q 1666 265 1666 273 q 1658 244 1666 256 q 1635 222 1651 232 q 1556 172 1596 195 q 1475 127 1516 148 q 1400 92 1440 109 q 1320 61 1361 75 q 1237 39 1279 47 q 1156 31 1196 31 q 1145 31 1151 31 q 1134 32 1139 31 q 1066 -56 1094 -20 q 1018 -120 1038 -92 q 981 -169 997 -147 q 947 -214 964 -191 q 908 -266 929 -237 q 856 -334 886 -294 q 1122 -384 989 -357 q 1379 -436 1255 -412 q 1615 -477 1503 -460 q 1818 -494 1727 -494 q 1844 -500 1835 -494 q 1852 -515 1852 -507 q 1831 -541 1852 -528 q 1767 -553 1811 -553 q 1560 -534 1672 -551 q 1324 -492 1447 -516 q 1070 -441 1200 -468 q 810 -394 940 -414 l 795 -414 q 601 -655 692 -549 q 428 -836 511 -762 q 270 -949 346 -909 q 121 -988 195 -988 q -33 -972 31 -988 q -137 -928 -96 -956 q -196 -863 -177 -901 q -214 -782 -214 -825 q -191 -674 -214 -730 q -125 -562 -167 -617 q -25 -458 -83 -507 q 100 -371 33 -408 q 243 -311 168 -333 q 395 -288 318 -288 q 575 -297 484 -288 q 763 -319 666 -305 q 800 -271 785 -291 q 831 -231 816 -250 q 864 -190 846 -212 q 907 -137 882 -168 q 969 -61 933 -105 q 1059 48 1006 -16 q 1034 59 1046 54 q 1011 72 1022 65 q 868 -25 937 16 q 738 -91 800 -65 q 621 -129 676 -117 q 517 -140 566 -140 q 377 -111 438 -140 q 274 -31 315 -82 q 210 91 232 21 q 189 241 189 160 q 207 396 189 316 q 265 557 224 476 q 373 718 306 638 q 537 873 439 798 q 765 1016 634 948 q 1065 1141 896 1084 q 942 1182 1013 1165 q 785 1210 871 1199 q 598 1225 699 1220 q 385 1230 498 1230 q -110 1215 158 1230 q -678 1180 -377 1201 q -674 1185 -675 1183 q -673 1189 -673 1187 q -674 1195 -673 1192 q -676 1200 -676 1198 q -671 1209 -676 1204 q -653 1209 -661 1209 q -635 1208 -644 1208 q -503 1213 -574 1208 q -351 1224 -431 1217 q -182 1239 -271 1232 q 1 1254 -94 1247 q 194 1266 95 1261 q 395 1270 293 1270 q 763 1251 579 1270 q 1128 1179 947 1232 q 1302 1232 1221 1213 q 1459 1250 1383 1250 q 1672 1230 1582 1250 q 1820 1178 1761 1210 q 1907 1109 1879 1147 q 1935 1036 1935 1071 q 1924 992 1935 1013 q 1889 957 1912 972 q 1832 932 1866 941 q 1753 924 1798 924 q 1677 931 1718 924 q 1592 949 1636 938 q 1503 976 1548 961 q 1418 1006 1459 991 q 1321 1045 1369 1025 q 1223 1089 1272 1066 q 937 959 1065 1029 q 707 811 808 888 q 531 653 606 734 q 408 494 456 573 q 335 341 359 416 q 311 203 311 267 q 324 110 311 152 q 365 38 337 68 q 434 -8 392 8 q 533 -25 476 -25 q 712 8 610 -25 q 947 115 815 41 q 932 146 932 131 q 941 166 932 155 q 964 188 949 178 q 997 207 979 199 q 1034 214 1015 214 q 1081 197 1057 214 q 1222 295 1149 241 q 1377 415 1295 349 l 1375 338 l 1191 105 q 1208 102 1200 103 q 1227 102 1217 102 q 1291 109 1257 102 q 1359 129 1324 117 q 1427 158 1393 142 q 1491 190 1461 174 q 1563 232 1528 210 q 1635 279 1598 254 m 718 -380 q 569 -365 642 -370 q 424 -359 496 -359 q 291 -378 359 -359 q 158 -430 222 -397 q 36 -506 93 -463 q -65 -595 -22 -549 q -133 -689 -108 -642 q -158 -778 -158 -736 q -142 -835 -158 -809 q -93 -881 -127 -861 q -6 -911 -60 -900 q 124 -922 47 -922 q 245 -894 186 -922 q 359 -821 304 -866 q 465 -719 414 -776 q 558 -604 515 -662 q 639 -493 602 -547 q 703 -401 675 -439 l 718 -380 m 1775 970 q 1836 981 1817 970 q 1855 1009 1855 991 q 1842 1042 1855 1024 q 1808 1079 1830 1061 q 1757 1116 1786 1098 q 1694 1147 1728 1133 q 1625 1169 1661 1160 q 1553 1177 1588 1177 q 1485 1174 1517 1177 q 1421 1165 1452 1171 q 1359 1148 1390 1158 q 1295 1126 1328 1139 q 1342 1106 1310 1120 q 1415 1075 1373 1092 q 1505 1039 1457 1057 q 1602 1005 1554 1021 q 1695 980 1650 990 q 1775 970 1740 970 m 1257 289 q 1185 220 1220 252 q 1116 157 1150 188 l 1120 152 q 1125 145 1122 149 q 1131 138 1128 141 l 1257 289 z "},"H":{"ha":1576,"x_min":-325,"x_max":2059,"o":"m 932 84 q 923 108 932 99 q 903 122 914 117 q 883 133 892 128 q 873 146 873 138 q 884 170 873 158 q 918 196 894 182 q 920 197 918 196 q 919 217 919 207 q 919 236 919 227 q 950 502 919 366 q 1035 771 982 637 q 888 667 965 723 q 733 553 812 610 q 576 443 654 496 q 423 348 497 390 q 327 99 378 204 q 223 -79 276 -5 q 115 -198 170 -152 q 8 -269 60 -243 q -93 -303 -44 -294 q -183 -312 -141 -312 q -291 -291 -257 -312 q -325 -229 -325 -270 q -286 -124 -325 -186 q -173 11 -247 -63 q 6 170 -100 85 q 244 342 111 254 q 330 541 287 436 q 413 751 373 645 q 489 962 453 858 q 555 1162 526 1067 q 607 1338 585 1257 q 641 1480 629 1420 q 653 1497 646 1491 q 669 1502 661 1502 q 688 1493 682 1502 q 694 1471 694 1485 l 694 1466 q 666 1339 681 1411 q 634 1187 651 1268 q 597 1018 616 1106 q 557 838 578 929 q 512 654 536 746 q 464 477 489 563 q 620 565 541 515 q 776 668 698 615 q 929 773 854 721 q 1077 869 1005 825 q 1160 1032 1116 954 q 1251 1178 1204 1110 q 1346 1302 1298 1246 q 1439 1398 1394 1358 q 1527 1460 1485 1438 q 1604 1482 1569 1482 q 1650 1476 1631 1482 q 1680 1460 1668 1470 q 1696 1437 1691 1451 q 1701 1409 1701 1423 q 1690 1352 1701 1382 q 1664 1294 1678 1321 q 1634 1245 1649 1266 q 1612 1218 1619 1225 l 1613 1221 q 1587 1203 1609 1219 q 1528 1159 1565 1187 q 1441 1093 1491 1131 q 1332 1008 1392 1055 q 1234 806 1282 912 q 1149 590 1187 699 q 1090 372 1112 480 q 1067 164 1067 263 l 1067 143 q 1114 111 1087 119 q 1174 102 1141 102 q 1200 104 1187 102 q 1227 115 1213 106 l 1244 112 q 1332 141 1289 123 q 1416 180 1375 158 q 1497 227 1457 201 q 1576 279 1537 252 q 1591 283 1584 283 q 1603 278 1598 283 q 1607 265 1607 273 q 1599 244 1607 256 q 1576 222 1592 232 q 1455 146 1515 180 q 1325 83 1395 113 q 1335 67 1334 76 q 1337 52 1337 59 q 1534 40 1440 52 q 1708 7 1628 28 q 1853 -41 1788 -14 q 1964 -99 1918 -68 q 2034 -163 2009 -130 q 2059 -229 2059 -197 q 2030 -302 2059 -271 q 1952 -354 2001 -333 q 1835 -386 1902 -376 q 1693 -397 1769 -397 q 1522 -384 1611 -397 q 1349 -346 1434 -372 q 1189 -282 1265 -320 q 1057 -191 1114 -243 q 966 -74 1000 -139 q 932 71 932 -8 l 932 84 m 1097 31 q 1088 31 1093 31 q 1080 31 1084 31 q 1117 -93 1087 -38 q 1192 -191 1147 -149 q 1295 -263 1237 -233 q 1415 -313 1352 -294 q 1542 -341 1478 -332 q 1666 -351 1607 -351 q 1769 -343 1721 -351 q 1853 -323 1817 -336 q 1909 -291 1889 -310 q 1929 -248 1929 -272 q 1910 -209 1929 -230 q 1856 -167 1890 -189 q 1775 -124 1822 -145 q 1677 -83 1729 -102 q 1567 -46 1624 -63 q 1454 -17 1510 -29 q 1346 3 1398 -4 q 1250 10 1293 10 q 1180 7 1207 10 q 1146 4 1152 4 q 1107 20 1107 4 q 1112 31 1107 26 l 1097 31 m 162 170 q 64 97 113 134 q -30 25 15 60 q -115 -42 -75 -9 q -183 -104 -154 -75 q -229 -157 -212 -133 q -245 -199 -245 -181 q -223 -229 -245 -218 q -147 -239 -200 -239 q -83 -228 -111 -239 q -31 -194 -55 -216 q 13 -137 -7 -171 q 56 -58 34 -103 q 104 45 79 -12 q 162 170 130 102 m 1604 1428 q 1573 1396 1595 1423 q 1521 1325 1552 1369 q 1453 1220 1491 1280 q 1376 1089 1416 1160 q 1496 1184 1442 1139 q 1589 1267 1550 1229 q 1649 1338 1628 1306 q 1670 1393 1670 1369 q 1617 1444 1670 1430 l 1611 1436 q 1606 1431 1608 1433 q 1604 1428 1604 1428 z "},"I":{"ha":1426,"x_min":0,"x_max":1457,"o":"m 1426 279 q 1441 283 1434 283 q 1453 278 1449 283 q 1457 265 1457 273 q 1449 244 1457 255 q 1426 222 1442 233 q 1349 174 1388 197 q 1270 130 1310 151 q 1198 96 1236 113 q 1120 67 1160 79 q 1041 46 1081 54 q 965 39 1002 39 q 904 45 932 39 q 849 67 875 52 q 756 -52 808 1 q 637 -142 704 -104 q 487 -199 570 -179 q 299 -219 404 -219 q 168 -199 224 -219 q 74 -145 111 -180 q 18 -65 37 -111 q 0 33 0 -20 q 19 150 0 89 q 74 273 39 212 q 160 392 110 334 q 272 499 210 450 q 407 586 334 548 q 559 645 479 624 q 597 810 564 730 q 698 954 630 890 q 873 1060 766 1017 q 1131 1115 979 1103 q 1132 1115 1131 1115 q 1134 1116 1133 1116 q 1178 1105 1164 1116 q 1192 1071 1192 1095 q 1178 997 1192 1044 q 1141 877 1164 951 q 1088 709 1112 789 q 1041 548 1065 628 q 1089 492 1067 524 q 1129 421 1112 460 q 1158 332 1147 381 q 1173 225 1170 283 q 1175 214 1175 219 q 1171 200 1175 206 q 1159 193 1166 193 q 1148 199 1151 193 q 1141 213 1145 204 q 1079 327 1113 269 q 1007 438 1046 385 q 946 262 978 344 q 873 109 914 180 q 949 75 896 75 q 1015 84 979 75 q 1090 107 1051 93 q 1169 140 1129 121 q 1246 177 1209 158 q 1335 225 1291 199 q 1426 279 1379 250 m 660 -26 q 701 46 681 -2 q 745 157 722 94 q 669 257 703 203 q 610 370 635 311 q 572 492 586 429 q 559 616 559 554 q 427 561 491 597 q 305 478 362 525 q 200 376 248 431 q 118 264 153 321 q 64 151 83 208 q 45 43 45 94 q 61 -37 45 1 q 109 -104 77 -75 q 192 -151 142 -134 q 311 -168 242 -168 q 510 -133 421 -168 q 660 -26 598 -98 m 726 667 q 759 665 739 667 q 803 660 779 664 q 854 650 827 656 q 910 631 882 643 q 962 780 937 708 q 1011 913 987 852 q 1058 1020 1036 974 q 1099 1090 1080 1066 q 919 1055 1002 1090 q 773 962 836 1021 q 671 824 711 903 q 622 658 632 746 q 673 664 648 662 q 726 667 699 667 m 771 227 q 828 390 800 304 q 888 566 857 476 q 798 618 845 599 q 696 637 751 637 q 657 636 676 637 q 620 631 637 634 q 619 615 619 623 q 619 600 619 608 q 655 410 619 505 q 771 227 691 314 z "},"J":{"ha":1072,"x_min":0,"x_max":2768,"o":"m 1072 279 q 1087 283 1080 283 q 1099 278 1095 283 q 1103 265 1103 273 q 1095 244 1103 255 q 1072 222 1088 233 l 1021 189 q 965 152 998 173 q 891 108 932 132 l 891 107 q 771 -93 839 -7 q 628 -238 703 -180 q 476 -326 553 -296 q 328 -355 399 -355 q 187 -327 248 -355 q 84 -254 126 -299 q 21 -153 43 -210 q 0 -40 0 -97 q 16 54 0 9 q 66 134 33 100 q 152 190 100 169 q 273 211 203 211 q 339 199 308 211 q 394 162 370 186 q 432 100 418 138 q 446 12 446 63 q 437 -14 446 -3 q 507 -5 469 -14 q 587 18 545 3 q 673 53 629 33 q 762 95 718 73 q 778 130 770 112 q 793 167 786 148 q 814 219 799 183 q 850 302 829 254 q 896 408 871 351 q 947 524 921 465 q 1000 641 974 583 q 1049 749 1026 699 q 1091 839 1073 800 q 1120 899 1109 878 q 804 956 937 928 q 587 1008 672 983 q 461 1056 501 1034 q 420 1099 420 1079 q 449 1135 420 1118 q 541 1165 477 1152 q 706 1189 605 1179 q 954 1206 808 1199 q 1293 1217 1100 1214 q 1734 1221 1487 1220 q 2096 1216 1942 1221 q 2358 1206 2250 1211 q 2533 1196 2466 1200 q 2631 1192 2599 1192 q 2659 1193 2648 1192 q 2678 1201 2671 1194 q 2688 1221 2685 1207 q 2691 1258 2691 1234 q 2703 1285 2691 1276 q 2730 1295 2715 1295 q 2756 1285 2744 1295 q 2768 1258 2768 1276 q 2766 1211 2768 1232 q 2754 1176 2764 1190 q 2725 1154 2745 1162 q 2669 1147 2705 1147 q 2562 1146 2608 1147 q 2478 1144 2515 1145 q 2408 1142 2440 1143 q 2345 1139 2376 1140 q 2279 1136 2313 1137 q 2201 1133 2244 1134 q 2103 1131 2158 1132 q 1976 1131 2048 1131 q 1877 1131 1933 1131 q 1754 1132 1820 1131 q 1613 1134 1688 1133 q 1461 1137 1539 1135 q 1465 1119 1464 1128 q 1466 1100 1466 1109 q 1463 1067 1466 1083 q 1455 1039 1459 1050 q 1402 941 1432 976 q 1340 889 1373 907 q 1273 866 1308 872 q 1206 856 1239 861 q 1173 775 1193 823 q 1130 670 1154 727 q 1080 549 1106 612 q 1027 421 1054 485 q 975 298 1001 358 q 927 187 949 238 q 986 223 960 206 q 1031 252 1012 240 l 1072 279 m 276 -294 q 386 -271 328 -294 q 502 -207 444 -248 q 614 -110 560 -165 q 713 11 669 -54 q 621 -31 667 -12 q 529 -65 574 -51 q 442 -88 484 -79 q 363 -96 399 -96 q 301 -88 328 -96 q 256 -67 274 -79 q 229 -40 238 -54 q 220 -12 220 -25 q 237 26 220 9 q 276 50 254 43 q 268 73 272 62 q 258 93 264 84 q 243 106 252 101 q 219 111 234 111 q 145 98 176 111 q 95 62 115 84 q 65 9 75 39 q 56 -53 56 -20 q 71 -138 56 -95 q 115 -216 86 -181 q 184 -272 143 -250 q 276 -294 224 -294 m 1137 930 q 1166 981 1150 954 q 1202 1037 1183 1009 q 1243 1092 1221 1065 q 1289 1138 1265 1118 q 1217 1139 1253 1139 q 1144 1139 1181 1139 q 983 1138 1061 1139 q 836 1135 905 1137 q 709 1129 767 1133 q 610 1119 652 1125 q 546 1106 569 1114 q 523 1088 523 1098 q 556 1061 523 1076 q 663 1026 589 1046 q 853 983 736 1007 q 1137 930 970 959 m 1376 1137 l 1209 890 q 1214 889 1212 889 q 1219 889 1217 889 q 1266 900 1242 889 q 1313 929 1291 911 q 1354 971 1335 947 q 1387 1019 1373 994 q 1409 1067 1401 1043 q 1417 1109 1417 1090 q 1407 1137 1417 1129 l 1376 1137 z "},"K":{"ha":1692,"x_min":51,"x_max":2077,"o":"m 1692 279 q 1707 283 1700 283 q 1718 278 1714 283 q 1723 265 1723 273 q 1715 244 1723 256 q 1692 222 1708 232 l 1537 117 q 1426 50 1476 77 q 1334 8 1375 24 q 1260 -14 1293 -8 q 1198 -20 1226 -20 q 1132 -4 1160 -20 q 1087 40 1105 12 q 1061 107 1069 68 q 1053 192 1053 146 q 1075 363 1053 272 q 1136 548 1097 455 q 1138 559 1138 553 q 1135 579 1138 568 q 1129 601 1133 590 q 1124 621 1126 611 q 1121 637 1121 631 q 1131 661 1121 649 q 1153 682 1140 673 q 1181 697 1166 692 q 1206 703 1196 703 q 1232 696 1218 703 q 1259 675 1246 689 q 1293 646 1276 656 q 1328 631 1310 635 q 1362 626 1345 627 q 1398 626 1380 626 q 1453 641 1425 626 q 1508 680 1482 655 q 1558 737 1535 705 q 1598 805 1581 770 q 1626 878 1615 841 q 1636 947 1636 914 q 1613 1035 1636 1008 q 1550 1061 1590 1061 q 1479 1047 1519 1061 q 1394 1007 1439 1032 q 1299 948 1348 982 q 1200 874 1250 913 q 1100 793 1149 836 q 1006 709 1051 751 q 921 629 960 668 q 850 557 881 590 q 799 500 819 525 q 770 464 778 476 q 710 365 743 418 q 643 259 677 313 q 575 154 608 205 q 511 56 541 102 q 458 -26 481 11 q 420 -85 434 -62 q 401 -111 410 -97 q 384 -138 393 -125 q 368 -161 376 -151 q 354 -176 360 -172 q 288 -193 320 -193 q 234 -177 256 -193 q 212 -136 212 -162 q 222 -125 212 -134 q 245 -104 231 -117 q 274 -77 258 -92 q 300 -46 289 -62 q 381 66 337 3 q 474 203 425 130 q 575 355 523 275 q 678 516 627 435 q 779 678 730 597 q 873 833 829 758 q 954 975 917 908 q 1019 1095 991 1042 q 1061 1186 1046 1149 q 1076 1241 1076 1224 q 1067 1253 1076 1253 q 1039 1225 1064 1253 q 974 1152 1015 1198 q 878 1048 932 1106 q 761 928 824 989 q 629 809 699 867 q 490 705 560 751 q 352 631 420 659 q 221 604 283 604 q 160 616 191 604 q 105 655 130 629 q 66 718 81 680 q 51 804 51 755 q 85 915 51 857 q 180 1031 119 972 q 327 1147 241 1089 q 517 1261 413 1206 q 741 1368 621 1316 q 988 1463 860 1419 q 1250 1545 1116 1508 q 1517 1608 1384 1581 q 1781 1648 1651 1634 q 2030 1662 1910 1662 q 2066 1652 2054 1662 q 2077 1631 2077 1643 q 2065 1608 2077 1618 q 2030 1598 2053 1598 q 1723 1574 1883 1598 q 1404 1509 1564 1550 q 1089 1413 1244 1468 q 794 1295 934 1358 q 537 1165 655 1232 q 333 1031 419 1097 q 198 905 247 966 q 150 794 150 844 q 157 748 150 767 q 177 716 165 728 q 205 698 189 704 q 237 692 220 692 q 316 712 271 692 q 413 764 361 731 q 520 841 465 797 q 634 934 576 884 q 747 1035 691 983 q 856 1137 804 1087 q 954 1230 908 1186 q 1035 1306 999 1274 q 1095 1359 1071 1339 q 1127 1378 1118 1378 l 1141 1381 q 1155 1384 1147 1383 q 1171 1385 1162 1385 q 1193 1380 1183 1385 q 1203 1361 1203 1375 q 1177 1224 1203 1298 q 1105 1061 1152 1150 q 994 864 1058 971 q 852 625 929 756 q 960 739 899 677 q 1088 862 1021 800 q 1226 983 1155 924 q 1364 1086 1297 1041 q 1495 1158 1432 1131 q 1607 1185 1557 1185 q 1693 1174 1657 1185 q 1751 1141 1729 1162 q 1784 1092 1773 1120 q 1794 1029 1794 1063 q 1776 929 1794 983 q 1726 822 1758 876 q 1652 720 1695 769 q 1559 634 1609 671 q 1456 574 1510 597 q 1350 552 1402 552 q 1322 554 1337 552 q 1293 561 1307 557 l 1261 570 q 1223 490 1240 531 q 1195 407 1206 448 q 1176 327 1183 366 q 1170 254 1170 288 q 1176 192 1170 220 q 1196 145 1183 165 q 1231 114 1210 125 q 1281 103 1252 103 q 1390 118 1339 103 q 1487 156 1442 134 q 1571 204 1532 178 q 1645 250 1611 229 l 1692 279 z "},"L":{"ha":1225,"x_min":0,"x_max":1920,"o":"m 901 793 q 936 782 917 787 q 973 774 954 777 q 1009 769 991 771 q 1042 766 1027 766 q 1106 912 1067 844 q 1191 1036 1145 980 q 1287 1134 1236 1091 q 1387 1206 1337 1177 q 1483 1251 1437 1236 q 1569 1265 1530 1265 q 1648 1240 1618 1265 q 1678 1160 1678 1214 q 1660 1088 1678 1128 q 1609 1007 1643 1049 q 1529 924 1576 966 q 1422 844 1481 882 q 1292 775 1362 806 q 1144 726 1222 745 q 1081 557 1114 643 q 1012 386 1048 471 q 933 220 975 301 q 839 64 890 138 q 959 -41 899 11 q 1080 -134 1018 -93 q 1207 -199 1141 -174 q 1346 -224 1273 -224 q 1517 -189 1426 -224 q 1714 -71 1608 -153 q 1834 -1 1786 -23 q 1903 22 1881 22 q 1920 9 1920 22 q 1881 -53 1920 -9 q 1758 -161 1842 -96 q 1649 -240 1701 -208 q 1549 -293 1597 -273 q 1455 -323 1500 -313 q 1369 -332 1411 -332 q 1214 -301 1287 -332 q 1072 -219 1141 -269 q 937 -106 1004 -169 q 801 18 870 -44 q 705 -78 756 -35 q 596 -154 654 -122 q 473 -202 538 -185 q 334 -220 408 -220 q 185 -195 248 -220 q 81 -131 122 -171 q 20 -40 40 -91 q 0 64 0 12 q 19 167 0 117 q 75 256 38 217 q 165 319 111 295 q 290 342 220 342 q 421 326 359 342 q 540 282 483 310 q 649 218 597 255 q 751 141 701 182 q 826 281 790 208 q 897 429 863 354 q 964 581 931 505 q 1029 730 997 656 q 998 731 1015 730 q 961 733 980 732 q 923 737 942 734 q 888 743 905 739 q 826 750 858 748 q 765 760 793 753 q 714 782 736 767 q 679 828 691 798 q 673 853 673 841 q 677 872 673 863 q 689 889 682 882 q 708 902 697 897 q 731 907 718 907 q 776 894 752 907 q 823 863 800 881 q 866 825 846 844 q 901 793 886 806 m 326 -168 q 447 -149 391 -168 q 551 -96 503 -130 q 640 -15 599 -62 q 718 88 682 32 q 620 158 671 125 q 515 215 570 191 q 400 253 460 239 q 273 267 340 267 q 202 250 233 267 q 152 205 172 233 q 121 142 132 178 q 111 67 111 106 q 124 -18 111 24 q 163 -94 137 -60 q 231 -148 190 -127 q 326 -168 271 -168 m 1158 777 q 1283 833 1224 800 q 1393 905 1343 867 q 1485 985 1444 944 q 1554 1065 1525 1027 q 1598 1137 1583 1104 q 1613 1192 1613 1170 q 1582 1222 1613 1222 q 1525 1206 1560 1222 q 1448 1160 1489 1190 q 1363 1089 1407 1130 q 1280 998 1320 1048 q 1209 893 1241 949 q 1158 777 1177 837 z "},"M":{"ha":2206,"x_min":-75,"x_max":2237,"o":"m 2206 279 q 2221 283 2214 283 q 2233 278 2228 283 q 2237 265 2237 273 q 2229 244 2237 256 q 2206 222 2222 232 l 2105 163 q 1992 97 2056 135 q 1849 12 1927 58 q 1729 -48 1777 -31 q 1648 -66 1681 -66 q 1612 -59 1626 -66 q 1589 -42 1598 -53 q 1576 -18 1579 -32 q 1572 9 1572 -5 q 1580 106 1572 47 q 1601 235 1588 164 q 1631 385 1614 306 q 1668 542 1649 463 q 1706 696 1687 621 q 1741 836 1725 772 q 1771 947 1758 899 q 1791 1019 1784 995 l 1145 31 q 1138 20 1145 31 q 1120 -2 1131 10 q 1092 -24 1108 -14 q 1057 -34 1076 -34 q 1035 -24 1040 -34 q 1029 -3 1029 -14 q 1030 5 1029 1 q 1031 11 1030 9 l 1101 737 q 1032 622 1073 689 q 940 476 991 554 q 828 314 888 399 q 703 148 768 230 q 721 58 721 106 q 710 -18 721 20 q 680 -91 700 -56 q 631 -157 660 -126 q 566 -211 602 -188 q 486 -246 530 -233 q 393 -259 443 -259 q 388 -256 391 -259 q 383 -250 385 -254 q 378 -241 380 -245 q 376 -233 376 -236 q 378 -229 376 -231 q 382 -227 380 -227 q 490 -202 439 -227 q 578 -137 541 -176 q 638 -48 616 -97 q 660 47 660 0 q 654 94 660 71 q 530 -28 593 29 q 401 -127 466 -85 q 271 -194 336 -170 q 143 -219 206 -219 q 54 -210 94 -219 q -15 -181 14 -201 q -59 -132 -43 -162 q -75 -59 -75 -101 q -51 43 -75 -3 q 13 128 -26 90 q 105 195 53 166 q 214 244 157 224 q 327 273 271 263 q 433 283 384 283 q 557 267 505 283 q 644 222 609 251 q 805 438 728 325 q 947 666 883 551 q 1056 891 1010 781 q 1120 1100 1101 1002 q 1125 1121 1120 1101 q 1139 1168 1130 1140 q 1162 1229 1149 1196 q 1192 1289 1175 1261 q 1229 1335 1208 1316 q 1272 1353 1249 1353 q 1302 1344 1291 1353 q 1320 1323 1314 1336 q 1329 1295 1326 1311 q 1331 1265 1331 1280 q 1331 1250 1331 1257 q 1330 1237 1331 1242 l 1202 234 l 1836 1187 q 1843 1224 1838 1204 q 1858 1260 1848 1243 q 1883 1287 1868 1276 q 1921 1298 1898 1298 q 1957 1294 1944 1298 q 1977 1285 1970 1291 q 1985 1273 1984 1280 q 1987 1259 1987 1265 q 1975 1150 1987 1217 q 1944 1000 1963 1083 q 1899 823 1924 917 q 1848 636 1874 730 q 1797 453 1822 542 q 1752 290 1772 363 q 1721 162 1733 216 q 1709 85 1709 109 q 1710 67 1709 77 q 1715 48 1711 57 q 1727 34 1719 40 q 1750 28 1735 28 q 1784 35 1763 28 q 1836 60 1805 42 q 2034 175 1941 119 q 2206 279 2127 230 m 153 -174 q 239 -149 189 -174 q 347 -77 289 -123 q 470 32 406 -31 q 600 170 534 96 q 533 201 573 190 q 437 213 492 213 q 339 205 390 213 q 239 181 288 197 q 146 143 190 165 q 69 90 102 120 q 16 23 36 60 q -3 -58 -3 -14 q 39 -146 -3 -119 q 153 -174 81 -174 z "},"N":{"ha":1649,"x_min":-137,"x_max":1752,"o":"m 1649 279 q 1664 283 1657 283 q 1676 278 1672 283 q 1680 265 1680 273 q 1672 244 1680 256 q 1649 222 1665 232 q 1568 174 1611 199 q 1481 122 1525 148 q 1394 72 1437 96 q 1313 29 1351 47 q 1243 -2 1274 10 q 1190 -16 1211 -14 q 1173 -29 1190 -19 q 1131 -50 1156 -39 q 1078 -69 1106 -60 q 1029 -78 1050 -78 q 1001 -71 1012 -78 q 989 -46 989 -64 q 990 -41 989 -45 q 991 -36 991 -38 l 823 947 q 662 533 734 719 q 524 208 591 348 q 628 171 585 194 q 701 118 672 148 q 743 53 729 89 q 756 -22 756 17 q 740 -115 756 -65 q 693 -216 723 -165 q 623 -317 664 -267 q 534 -411 583 -368 q 518 -423 529 -416 q 496 -437 508 -430 q 473 -448 484 -444 q 455 -453 462 -453 q 449 -448 449 -453 q 458 -425 449 -441 q 537 -307 495 -362 q 613 -202 578 -252 q 671 -107 648 -153 q 694 -18 694 -62 q 684 44 694 15 q 649 96 673 73 q 590 136 626 119 q 502 163 553 153 q 422 9 474 74 q 307 -99 370 -56 q 176 -163 244 -142 q 47 -184 108 -184 q -25 -176 8 -184 q -84 -150 -59 -167 q -123 -107 -109 -132 q -137 -47 -137 -81 q -121 14 -137 -18 q -75 77 -104 46 q -5 136 -46 109 q 84 185 35 164 q 189 219 133 206 q 303 231 244 231 q 357 230 332 231 q 407 227 383 229 q 484 389 446 304 q 561 562 523 475 q 636 734 599 648 q 708 897 673 819 q 778 1041 744 975 q 843 1155 812 1107 q 903 1231 874 1203 q 958 1258 932 1258 q 983 1252 972 1258 q 999 1237 993 1246 q 1007 1216 1004 1228 q 1009 1192 1009 1204 q 1008 1170 1009 1181 q 1005 1151 1006 1160 q 1002 1137 1004 1143 q 1001 1131 1001 1131 l 1173 118 l 1541 1046 q 1566 1098 1551 1070 q 1598 1148 1580 1125 q 1636 1187 1615 1172 q 1678 1203 1656 1203 q 1715 1199 1702 1203 q 1737 1190 1729 1196 q 1748 1178 1745 1185 q 1752 1164 1751 1171 l 1226 61 q 1330 101 1278 77 q 1434 154 1381 125 q 1539 214 1486 182 q 1649 279 1593 246 m 380 174 q 378 176 380 176 q 276 165 328 176 q 176 136 224 155 q 86 94 128 118 q 12 43 43 70 q -39 -10 -20 17 q -57 -60 -57 -37 q -33 -118 -57 -99 q 31 -136 -8 -136 q 124 -116 73 -136 q 225 -56 176 -96 q 317 41 275 -17 q 380 174 359 98 z "},"O":{"ha":1625,"x_min":-813,"x_max":1758,"o":"m 1625 279 q 1640 283 1633 283 q 1651 278 1647 283 q 1655 265 1655 273 q 1648 244 1655 256 q 1625 222 1640 232 l 1474 133 q 1426 112 1449 119 q 1381 106 1402 106 q 1304 124 1340 106 q 1236 174 1268 142 q 1029 47 1135 104 q 826 -53 924 -11 q 640 -117 727 -94 q 490 -140 553 -140 q 349 -111 410 -140 q 246 -31 288 -82 q 182 91 204 21 q 161 241 161 160 q 179 372 161 300 q 235 522 198 444 q 325 681 271 600 q 450 837 379 761 q 607 980 520 912 q 795 1099 694 1047 q 677 1136 738 1118 q 551 1166 617 1153 q 411 1186 484 1179 q 255 1194 338 1194 q -236 1179 28 1194 q -804 1145 -500 1164 q -809 1149 -808 1145 q -812 1158 -811 1153 q -813 1168 -813 1163 q -813 1175 -813 1173 q -811 1182 -813 1179 q -802 1185 -809 1185 q -765 1188 -800 1185 q -674 1196 -731 1191 q -540 1207 -616 1201 q -378 1220 -464 1213 q -203 1233 -293 1227 q -27 1244 -113 1239 q 135 1252 58 1249 q 269 1255 211 1255 q 419 1246 345 1255 q 567 1220 493 1236 q 715 1182 641 1204 q 862 1137 789 1161 q 1082 1209 967 1183 q 1329 1235 1197 1235 q 1503 1218 1425 1235 q 1637 1172 1581 1200 q 1722 1104 1692 1143 q 1752 1025 1752 1066 q 1748 991 1752 1008 q 1732 959 1743 975 q 1758 871 1758 921 q 1722 700 1758 786 q 1624 531 1686 614 q 1477 368 1561 448 q 1299 218 1394 289 q 1344 179 1319 194 q 1398 165 1369 165 q 1439 173 1417 165 q 1484 194 1461 182 q 1530 221 1507 207 q 1572 248 1552 236 l 1625 279 m 505 -25 q 638 -7 560 -25 q 805 46 715 12 q 992 129 895 80 q 1182 237 1088 177 q 1135 317 1156 275 q 1099 401 1114 359 q 1077 483 1084 444 q 1069 553 1069 522 q 1081 669 1069 612 q 1118 779 1094 726 q 1177 876 1142 831 q 1259 955 1213 921 q 1117 998 1185 974 q 981 1047 1049 1021 q 783 926 876 995 q 612 779 690 857 q 473 621 534 702 q 370 463 412 539 q 305 319 328 387 q 283 203 283 252 q 296 110 283 152 q 337 38 309 68 q 406 -8 364 8 q 505 -25 448 -25 m 1191 546 q 1195 493 1191 524 q 1206 427 1198 462 q 1226 356 1215 392 q 1255 287 1238 319 q 1418 419 1341 349 q 1551 566 1494 490 q 1641 725 1608 643 q 1674 892 1674 807 q 1672 917 1674 907 q 1617 909 1645 909 q 1474 916 1541 909 q 1343 935 1407 923 q 1276 857 1305 902 q 1228 761 1247 812 q 1200 654 1209 709 q 1191 546 1191 600 m 1452 1161 q 1242 1139 1341 1161 q 1046 1077 1142 1116 q 1187 1033 1118 1054 q 1327 996 1255 1013 q 1415 1026 1369 1015 q 1514 1036 1461 1036 q 1626 1024 1581 1036 q 1702 990 1671 1012 q 1713 1043 1713 1015 q 1692 1096 1713 1074 q 1635 1132 1671 1118 q 1552 1154 1600 1147 q 1452 1161 1505 1161 m 1529 1003 q 1467 997 1496 1003 q 1411 979 1437 990 q 1527 962 1471 968 q 1643 956 1583 956 q 1649 956 1646 956 q 1655 956 1652 956 q 1609 990 1640 978 q 1529 1003 1578 1003 z "},"P":{"ha":1470,"x_min":163,"x_max":1959,"o":"m 1470 279 q 1485 283 1478 283 q 1496 278 1492 283 q 1500 265 1500 273 q 1493 244 1500 256 q 1470 222 1485 232 q 1370 171 1421 194 q 1269 127 1320 148 q 1183 91 1228 109 q 1090 61 1137 74 q 995 39 1043 47 q 903 31 947 31 q 867 33 884 31 q 834 39 850 35 q 809 -17 824 14 q 779 -78 795 -47 q 749 -134 764 -108 q 727 -174 735 -160 q 689 -216 715 -203 q 633 -229 663 -229 q 605 -224 618 -229 q 580 -212 591 -220 q 563 -192 569 -203 q 556 -165 556 -180 q 559 -152 556 -157 q 583 -101 567 -134 q 616 -30 598 -68 q 653 50 635 9 q 685 125 671 91 q 679 136 680 131 q 677 146 677 141 q 685 167 677 157 q 709 189 692 177 q 764 295 736 243 q 814 393 791 348 q 854 475 837 439 q 879 531 871 511 q 798 546 835 532 q 735 584 762 559 q 695 641 709 608 q 680 714 680 674 q 702 812 680 768 q 758 887 723 856 q 836 936 792 918 q 924 953 880 953 q 1019 933 983 953 q 1077 883 1056 914 q 1104 812 1097 852 q 1112 734 1112 773 q 1104 684 1112 708 q 1088 639 1097 660 q 1072 602 1080 618 q 1065 574 1065 585 l 1065 571 q 1146 579 1097 575 q 1255 590 1196 583 q 1378 608 1314 597 q 1504 635 1442 618 q 1623 677 1567 652 q 1722 736 1679 701 q 1790 817 1765 770 q 1815 922 1815 863 q 1780 1003 1815 966 q 1685 1069 1744 1040 q 1549 1122 1626 1099 q 1390 1159 1472 1144 q 1225 1182 1308 1174 q 1072 1190 1143 1190 q 903 1186 993 1190 q 726 1173 814 1183 q 558 1143 638 1163 q 416 1087 477 1122 q 318 1001 355 1053 q 281 876 281 949 q 300 847 281 857 q 348 834 319 838 q 410 828 376 830 q 471 819 443 825 q 519 799 500 812 q 538 759 538 785 q 513 742 538 747 q 449 736 488 736 q 389 739 421 736 q 326 750 357 743 q 264 768 294 757 q 212 794 235 779 q 176 829 190 809 q 163 873 163 848 q 189 984 163 935 q 260 1070 215 1032 q 366 1134 305 1107 q 497 1180 427 1161 q 641 1210 566 1198 q 790 1228 716 1221 q 931 1236 863 1234 q 1056 1238 1000 1238 q 1195 1235 1121 1238 q 1344 1225 1268 1232 q 1495 1205 1420 1217 q 1638 1175 1570 1193 q 1766 1133 1707 1157 q 1867 1078 1824 1109 q 1935 1007 1910 1046 q 1959 920 1959 968 q 1933 816 1959 863 q 1863 732 1908 770 q 1758 666 1819 695 q 1628 616 1697 637 q 1481 578 1558 594 q 1330 552 1405 563 q 1182 534 1254 541 q 1048 524 1110 528 q 1017 470 1036 508 q 975 380 998 432 q 926 267 952 328 q 871 144 899 205 q 916 112 890 121 q 973 102 942 102 q 1049 109 1009 102 q 1129 129 1088 117 q 1209 158 1169 142 q 1285 190 1249 174 q 1377 232 1331 210 q 1470 279 1423 255 m 895 572 q 927 637 909 603 q 961 706 945 671 q 988 773 977 741 q 999 833 999 806 q 980 895 999 871 q 914 918 962 918 q 838 905 874 918 q 774 866 802 891 q 731 804 747 840 q 715 724 715 768 q 728 659 715 687 q 766 611 742 631 q 823 582 789 592 q 895 572 856 572 z "},"Q":{"ha":1693,"x_min":0,"x_max":2882,"o":"m 573 538 q 586 686 573 616 q 623 823 600 755 q 497 735 562 785 q 371 626 433 686 q 254 498 309 566 q 157 355 199 430 q 92 201 116 281 q 67 39 67 121 q 63 11 67 22 q 54 -9 59 -1 q 42 -20 48 -16 q 34 -24 37 -24 q 20 -15 26 -24 q 9 7 14 -6 q 2 35 5 20 q 0 62 0 50 q 29 259 0 165 q 108 437 58 353 q 223 593 157 520 q 362 725 289 665 q 513 833 436 785 q 663 915 591 881 q 751 1054 701 989 q 861 1173 802 1119 q 985 1269 920 1227 q 1119 1340 1050 1311 q 1256 1384 1187 1369 q 1390 1399 1324 1399 q 1555 1371 1478 1399 q 1690 1283 1632 1343 q 1782 1131 1748 1223 q 1815 909 1815 1038 q 1793 739 1815 828 q 1730 558 1771 650 q 1631 374 1689 466 q 1502 197 1573 283 q 1348 36 1431 112 q 1174 -102 1265 -41 q 1409 -217 1290 -159 q 1650 -320 1527 -274 q 1899 -396 1773 -367 q 2155 -425 2025 -425 q 2247 -424 2197 -425 q 2352 -419 2298 -422 q 2461 -407 2406 -415 q 2568 -385 2517 -399 q 2664 -350 2619 -371 q 2743 -297 2709 -328 q 2795 -225 2776 -267 q 2814 -131 2814 -184 q 2804 -98 2814 -120 q 2782 -53 2794 -77 q 2759 -6 2770 -28 q 2749 31 2749 17 q 2771 45 2749 45 q 2821 27 2800 45 q 2856 -17 2842 9 q 2876 -72 2869 -43 q 2882 -123 2882 -100 q 2861 -240 2882 -187 q 2803 -337 2839 -294 q 2717 -413 2766 -380 q 2613 -471 2669 -446 q 2498 -514 2557 -496 q 2382 -542 2439 -531 q 2274 -557 2325 -552 q 2182 -562 2222 -562 q 1988 -544 2083 -562 q 1800 -495 1892 -526 q 1617 -424 1707 -465 q 1439 -338 1527 -384 q 1266 -244 1352 -292 q 1097 -151 1181 -196 q 869 -253 985 -216 q 633 -289 754 -289 q 460 -267 533 -289 q 339 -209 387 -244 q 268 -130 292 -174 q 245 -43 245 -86 q 259 22 245 -9 q 301 77 273 54 q 369 115 328 101 q 463 129 410 129 q 610 115 536 129 q 759 76 684 100 q 911 19 834 52 q 1067 -51 988 -14 q 1216 75 1145 5 q 1348 223 1287 145 q 1459 385 1409 301 q 1543 551 1508 468 q 1597 715 1578 635 q 1616 868 1616 795 q 1590 1054 1616 977 q 1520 1181 1565 1132 q 1415 1254 1475 1231 q 1287 1277 1355 1277 q 1140 1254 1216 1277 q 990 1187 1063 1230 q 852 1083 918 1144 q 738 947 787 1022 q 845 981 798 970 q 928 993 893 993 q 1001 981 970 993 q 1050 949 1031 970 q 1079 901 1070 929 q 1088 841 1088 873 q 1074 752 1088 799 q 1035 659 1060 705 q 973 571 1009 613 q 894 497 937 529 q 802 446 851 465 q 699 427 752 427 q 656 433 679 427 q 616 453 634 439 q 585 488 597 467 q 573 538 573 509 m 602 -222 q 802 -189 705 -222 q 996 -98 900 -155 q 862 -34 928 -63 q 730 17 795 -4 q 600 51 665 39 q 472 63 536 63 q 402 55 432 63 q 354 33 373 47 q 325 0 334 19 q 316 -39 316 -18 q 335 -102 316 -69 q 391 -161 355 -134 q 481 -205 428 -188 q 602 -222 534 -222 m 866 924 q 792 908 838 924 q 689 861 747 892 q 642 731 659 798 q 626 590 626 664 q 628 562 626 577 q 635 533 629 547 q 651 511 640 520 q 680 502 662 502 q 751 517 717 502 q 817 558 786 532 q 872 617 847 584 q 915 687 897 651 q 943 759 933 723 q 954 827 954 795 q 948 866 954 848 q 933 897 943 884 q 906 917 922 909 q 866 924 889 924 z "},"R":{"ha":1898,"x_min":0,"x_max":2026,"o":"m 1898 279 q 1912 283 1906 283 q 1924 278 1920 283 q 1928 265 1928 273 q 1921 244 1928 256 q 1898 222 1913 232 q 1719 117 1807 170 q 1552 22 1632 64 q 1405 -46 1473 -20 q 1286 -72 1337 -72 q 1239 -64 1260 -72 q 1204 -38 1219 -56 q 1182 7 1190 -20 q 1175 74 1175 35 q 1179 137 1175 102 q 1192 214 1183 172 q 1217 308 1202 260 q 1250 402 1233 356 q 1282 488 1267 448 q 1307 556 1298 528 q 1278 554 1291 554 q 1197 571 1232 554 q 1141 617 1163 589 q 1108 684 1119 646 q 1097 763 1097 722 q 1112 861 1097 812 q 1156 948 1127 909 q 1226 1011 1185 987 q 1322 1036 1268 1036 q 1429 1014 1388 1036 q 1494 957 1470 992 q 1525 879 1517 922 q 1533 791 1533 835 q 1531 731 1533 760 q 1526 677 1529 702 q 1521 633 1523 652 q 1518 602 1518 613 q 1699 680 1626 633 q 1816 783 1772 727 q 1880 902 1861 839 q 1899 1027 1899 964 q 1865 1181 1899 1116 q 1772 1289 1830 1246 q 1635 1352 1713 1331 q 1468 1372 1556 1372 q 1228 1344 1355 1372 q 1149 1066 1191 1196 q 1066 826 1108 936 q 984 625 1024 715 q 909 463 944 534 q 846 342 873 392 q 801 262 818 292 q 890 196 851 223 q 959 149 930 168 q 1008 116 988 129 q 1039 92 1027 102 l 1027 73 q 999 81 1017 73 q 957 100 980 88 q 908 128 934 113 q 858 161 882 144 q 814 194 834 178 q 781 224 793 210 q 702 125 748 168 q 601 51 656 81 q 482 5 546 21 q 349 -10 418 -10 q 205 2 273 -10 q 76 50 138 14 q 51 64 64 56 q 27 79 38 71 q 9 94 16 87 q 0 107 1 101 l 12 107 q 39 96 14 107 q 104 72 64 85 q 195 47 144 58 q 296 37 245 37 q 391 49 346 37 q 474 82 435 61 q 543 131 512 103 q 598 188 574 158 q 638 249 622 218 q 661 308 654 280 q 535 422 587 366 q 449 533 482 478 q 399 641 415 588 q 384 745 384 694 q 416 892 384 821 q 505 1025 448 962 q 638 1142 562 1088 q 805 1240 715 1196 q 992 1317 895 1284 q 1190 1370 1090 1350 q 1212 1423 1201 1396 q 1235 1476 1223 1449 l 1259 1476 q 1248 1427 1254 1451 q 1236 1379 1242 1402 q 1353 1394 1296 1389 q 1464 1400 1409 1400 q 1612 1389 1540 1400 q 1746 1356 1683 1378 q 1860 1300 1808 1334 q 1948 1222 1911 1267 q 2005 1120 1985 1177 q 2026 994 2026 1063 q 2018 904 2026 951 q 1971 786 2007 843 q 1872 682 1935 729 q 1717 600 1809 634 q 1503 549 1626 565 q 1486 499 1498 534 q 1457 418 1473 464 q 1422 320 1440 372 q 1387 223 1403 269 q 1358 140 1371 176 q 1341 87 1345 103 q 1337 62 1337 73 q 1352 25 1337 38 q 1394 12 1367 12 q 1441 20 1415 12 q 1501 47 1468 28 q 1572 89 1535 67 q 1656 137 1609 110 q 1761 198 1702 163 q 1898 279 1820 233 m 715 367 q 744 420 722 377 q 800 530 766 463 q 877 687 834 598 q 968 880 920 777 q 1069 1098 1017 984 q 1173 1331 1121 1213 q 1011 1275 1090 1308 q 860 1200 931 1242 q 728 1107 789 1158 q 624 998 668 1056 q 556 875 581 940 q 531 741 531 810 q 574 559 531 653 q 715 367 618 465 m 1314 596 q 1337 665 1324 629 q 1362 739 1350 702 q 1382 811 1374 776 q 1390 876 1390 846 q 1371 942 1390 917 q 1300 966 1351 966 q 1224 949 1257 966 q 1171 903 1192 931 q 1139 838 1149 874 q 1128 765 1128 802 q 1137 700 1128 731 q 1163 644 1145 668 q 1207 605 1181 619 q 1269 590 1234 590 q 1314 596 1290 590 z "},"S":{"ha":1758,"x_min":-3,"x_max":2136,"o":"m 1607 193 q 1642 211 1620 199 q 1686 235 1664 222 q 1729 260 1709 248 q 1758 279 1748 272 q 1773 286 1767 286 q 1781 276 1778 286 q 1784 256 1784 267 q 1784 252 1784 254 q 1784 248 1784 250 q 1762 224 1782 239 q 1710 191 1742 210 q 1639 151 1678 172 q 1561 109 1600 130 q 1488 70 1522 88 q 1429 40 1453 52 q 1332 -9 1380 15 q 1238 -48 1283 -33 q 1075 -92 1166 -77 q 867 -106 983 -106 q 700 -84 778 -106 q 564 -21 622 -62 q 472 78 506 20 q 439 205 439 135 q 439 223 439 214 q 441 242 440 233 q 372 223 403 231 q 314 209 341 215 q 260 201 286 203 q 205 198 234 198 q 111 210 151 198 q 46 242 71 221 q 8 291 20 262 q -3 355 -3 320 q 17 460 -3 404 q 76 578 38 517 q 167 700 114 638 q 284 818 220 761 q 424 924 349 875 q 579 1010 498 973 q 745 1067 660 1046 q 916 1088 830 1088 q 988 1083 958 1088 q 1037 1068 1018 1077 q 1064 1049 1055 1059 q 1073 1031 1073 1040 q 1067 1019 1073 1023 q 1054 1015 1061 1015 q 1029 1021 1044 1015 q 991 1033 1014 1026 q 936 1044 968 1039 q 860 1050 904 1050 q 731 1030 798 1050 q 598 976 665 1010 q 466 896 531 942 q 342 798 401 850 q 234 690 284 746 q 149 578 184 633 q 92 472 113 524 q 72 380 72 421 q 81 330 72 353 q 112 292 91 308 q 164 267 132 276 q 242 258 197 258 q 292 260 271 258 q 336 267 314 262 q 385 278 359 271 q 448 294 411 285 q 490 441 461 368 q 559 581 519 514 q 648 705 599 648 q 751 804 697 762 q 862 870 805 846 q 973 895 918 895 q 1053 880 1014 895 q 1127 834 1092 865 q 1193 753 1162 803 q 1249 634 1224 704 q 1374 709 1314 671 q 1493 787 1434 747 q 1516 949 1503 873 q 1550 1096 1529 1026 q 1639 1302 1590 1216 q 1742 1445 1687 1389 q 1858 1528 1797 1501 q 1983 1554 1919 1554 q 2044 1547 2016 1554 q 2093 1527 2072 1540 q 2124 1494 2113 1514 q 2136 1449 2136 1474 q 2133 1422 2136 1434 q 2089 1300 2121 1366 q 2003 1163 2058 1234 q 1869 1016 1948 1091 q 1683 865 1790 941 q 1662 750 1672 808 q 1642 634 1652 692 q 1622 521 1632 576 q 1600 414 1612 465 q 1548 258 1578 332 q 1471 123 1518 185 q 1550 164 1514 145 q 1607 193 1587 183 m 1400 291 q 1428 392 1415 336 q 1453 509 1442 449 q 1473 628 1464 569 q 1489 736 1482 686 q 1257 598 1375 664 q 1262 575 1260 587 q 1264 549 1264 563 q 1261 516 1264 535 q 1252 479 1258 496 q 1235 450 1245 462 q 1213 437 1225 437 q 1195 445 1202 437 q 1187 464 1187 452 q 1190 488 1187 476 q 1192 510 1192 499 q 1185 559 1192 538 q 830 384 1004 460 q 498 258 656 307 q 497 249 497 253 q 497 239 497 244 q 527 117 497 168 q 606 36 556 67 q 723 -10 656 4 q 862 -24 789 -24 q 946 -21 907 -24 q 1023 -10 986 -17 q 1008 18 1012 5 q 1004 35 1004 31 q 1011 61 1004 49 q 1029 81 1018 73 q 1057 94 1041 90 q 1090 99 1072 99 q 1134 89 1113 99 q 1168 58 1155 79 q 1181 41 1173 48 q 1314 148 1262 83 q 1400 291 1367 212 m 1180 596 q 1129 709 1156 662 q 1072 786 1102 756 q 1009 831 1042 817 q 942 845 977 845 q 860 826 901 845 q 777 772 818 807 q 696 689 736 738 q 622 581 657 640 q 555 452 586 521 q 499 308 524 383 q 830 428 659 355 q 1180 596 1002 502 m 1738 1080 q 1715 1003 1725 1042 q 1695 923 1705 964 q 1855 1056 1789 990 q 1965 1184 1921 1122 q 2033 1303 2009 1246 q 2068 1406 2058 1359 q 2068 1415 2068 1408 q 2046 1455 2068 1439 q 1986 1470 2023 1470 q 1920 1451 1950 1470 q 1863 1387 1891 1432 q 1805 1267 1834 1342 q 1738 1080 1775 1192 z "},"T":{"ha":1507,"x_min":0,"x_max":1628,"o":"m 1507 279 q 1522 283 1515 283 q 1533 278 1529 283 q 1537 265 1537 273 q 1530 244 1537 256 q 1507 222 1522 232 q 1428 171 1468 195 q 1347 126 1388 147 q 1272 91 1312 108 q 1192 60 1233 74 q 1109 39 1151 47 q 1028 31 1067 31 q 932 47 974 31 q 903 0 918 23 q 874 -44 888 -22 q 1010 -122 944 -83 q 1135 -199 1076 -162 q 1243 -269 1194 -236 q 1331 -328 1293 -302 q 1391 -371 1368 -354 q 1419 -393 1414 -388 q 1443 -421 1436 -406 q 1450 -450 1450 -437 q 1444 -469 1450 -461 q 1430 -476 1439 -476 q 1406 -467 1418 -476 q 1377 -437 1393 -458 q 1341 -403 1367 -424 q 1278 -355 1316 -382 q 1191 -296 1240 -328 q 1084 -231 1141 -264 q 964 -164 1027 -198 q 835 -98 901 -130 q 729 -213 784 -164 q 612 -293 673 -261 q 483 -340 551 -325 q 338 -355 415 -355 q 190 -329 253 -355 q 84 -260 126 -302 q 21 -164 42 -218 q 0 -55 0 -110 q 16 58 0 12 q 62 133 33 104 q 134 175 92 162 q 227 189 176 189 q 346 175 282 189 q 479 138 410 161 q 621 82 548 114 q 766 13 694 50 q 796 61 782 37 q 825 111 810 85 q 809 128 815 119 q 804 146 804 137 q 821 178 804 160 q 878 210 838 195 q 967 398 925 302 q 1046 585 1009 494 q 1116 754 1083 675 q 1176 893 1148 834 q 1229 987 1204 953 q 1273 1021 1253 1021 q 1136 1031 1213 1021 q 975 1057 1059 1042 q 803 1091 890 1073 q 635 1124 715 1109 q 485 1150 554 1140 q 366 1160 415 1160 q 264 1145 306 1160 q 195 1103 222 1129 q 157 1042 169 1077 q 145 970 145 1008 q 163 872 145 922 q 211 784 180 823 q 281 719 241 744 q 366 694 321 694 q 509 709 453 694 q 598 746 565 724 q 647 795 631 769 q 667 845 662 822 q 673 882 673 867 q 677 897 673 897 q 691 892 684 897 q 704 878 699 886 q 713 859 709 869 q 716 839 716 848 q 692 742 716 784 q 628 670 668 699 q 535 627 587 642 q 427 612 483 612 q 275 643 342 612 q 159 724 207 674 q 85 835 111 774 q 60 958 60 897 q 77 1049 60 1005 q 130 1127 94 1093 q 222 1180 166 1160 q 355 1200 278 1200 q 489 1192 418 1200 q 636 1170 560 1183 q 792 1141 713 1156 q 949 1112 871 1125 q 1104 1090 1028 1099 q 1251 1081 1181 1081 q 1411 1096 1331 1081 q 1581 1145 1491 1110 q 1596 1137 1588 1142 q 1612 1127 1605 1133 q 1624 1115 1619 1121 q 1628 1101 1628 1108 q 1613 1081 1628 1090 q 1553 1049 1579 1061 q 1506 1030 1527 1037 q 1463 1021 1484 1023 q 1421 1019 1443 1019 q 1371 1020 1398 1019 q 1308 1021 1345 1021 q 1146 531 1223 747 q 989 155 1068 316 l 991 152 q 1037 113 1010 125 q 1099 102 1065 102 q 1163 110 1129 102 q 1231 130 1196 117 q 1299 158 1265 142 q 1363 190 1333 174 q 1435 232 1400 210 q 1507 279 1470 254 m 359 -294 q 460 -276 411 -294 q 554 -225 509 -258 q 643 -147 600 -193 q 725 -47 685 -102 q 594 7 659 -18 q 467 50 528 32 q 349 78 405 68 q 244 88 292 88 q 173 76 203 88 q 123 43 143 64 q 94 -4 104 23 q 84 -60 84 -31 q 102 -142 84 -100 q 154 -218 119 -184 q 240 -273 189 -252 q 359 -294 292 -294 z "},"U":{"ha":1438,"x_min":-814,"x_max":1687,"o":"m 1542 1081 q 1541 1082 1541 1081 l 1542 1082 q 1542 1081 1542 1082 m 1355 -492 q 1451 -475 1407 -492 q 1529 -430 1496 -458 q 1581 -367 1563 -402 q 1600 -296 1600 -332 q 1582 -231 1600 -262 q 1525 -176 1565 -200 q 1424 -137 1486 -151 q 1273 -122 1362 -122 q 1136 -124 1204 -122 q 1008 -128 1067 -125 q 1047 -284 1014 -216 q 1128 -398 1080 -352 q 1237 -468 1177 -444 q 1355 -492 1296 -492 m 1036 48 l 1123 98 l 1196 138 l 1257 172 l 1314 205 l 1438 279 q 1453 283 1447 283 q 1465 278 1461 283 q 1469 265 1469 273 q 1461 244 1469 256 q 1438 222 1454 232 l 1357 173 l 1263 118 l 1151 54 l 1017 -19 l 1011 -21 q 1007 -59 1008 -41 q 1006 -92 1006 -77 q 1180 -70 1080 -80 q 1391 -60 1280 -60 q 1528 -76 1472 -60 q 1620 -117 1584 -92 q 1671 -177 1655 -143 q 1687 -248 1687 -211 q 1665 -342 1687 -295 q 1603 -428 1642 -390 q 1513 -490 1565 -466 q 1404 -514 1462 -514 q 1303 -503 1356 -514 q 1196 -471 1249 -492 q 1094 -418 1143 -450 q 1004 -344 1044 -386 q 937 -249 964 -302 q 901 -134 909 -197 l 838 -138 q 825 -139 831 -139 q 814 -140 819 -140 q 786 -137 796 -140 q 777 -125 777 -134 q 803 -92 777 -115 q 897 -29 830 -69 q 899 18 898 -6 l 901 64 q 904 104 902 86 q 907 133 905 122 q 797 57 852 92 q 686 -4 741 22 q 578 -45 631 -30 q 477 -60 526 -60 q 412 -43 441 -60 q 359 0 383 -27 q 318 64 336 28 q 288 142 300 101 q 270 227 276 184 q 264 311 264 271 q 281 472 264 387 q 326 643 298 557 q 386 811 353 729 q 452 961 420 892 q 510 1081 484 1030 q 551 1157 537 1133 q 405 1177 483 1167 q 244 1196 328 1187 q 71 1209 160 1204 q -110 1214 -18 1214 q -318 1205 -229 1214 q -470 1179 -407 1196 q -574 1139 -534 1162 q -638 1088 -615 1116 q -671 1028 -662 1060 q -680 962 -680 996 q -675 897 -680 930 q -663 831 -669 864 q -651 767 -656 799 q -646 706 -646 735 q -662 629 -646 665 q -721 568 -677 593 q -724 568 -722 568 q -729 570 -727 568 q -732 574 -731 572 q -733 578 -733 576 l -733 581 q -731 584 -733 583 q -728 586 -730 585 l -724 588 q -730 601 -724 589 q -747 633 -737 613 q -769 681 -757 654 q -790 740 -781 708 q -807 808 -800 772 q -814 881 -814 844 q -802 971 -814 926 q -759 1058 -789 1016 q -676 1135 -728 1099 q -546 1198 -625 1171 q -358 1240 -467 1225 q -105 1255 -250 1255 q -12 1252 -66 1255 q 108 1244 42 1249 l 249 1230 q 404 1215 324 1223 l 567 1198 l 732 1179 l 694 1100 l 646 998 l 591 878 l 536 746 q 485 610 509 679 q 443 475 461 541 q 414 349 425 410 q 403 235 403 288 q 408 151 403 194 q 426 74 414 109 q 460 17 439 39 q 513 -5 481 -5 q 598 15 550 -5 q 700 72 646 36 q 815 155 755 107 q 936 256 875 202 q 1024 495 969 374 q 1149 733 1079 616 q 1302 957 1220 850 q 1473 1154 1385 1064 q 1479 1156 1474 1156 q 1502 1150 1492 1156 q 1519 1134 1512 1143 q 1532 1113 1527 1124 q 1539 1092 1537 1101 q 1537 1093 1539 1093 q 1514 1073 1531 1093 q 1470 1016 1496 1053 q 1411 929 1444 980 l 1342 817 l 1267 685 q 1192 537 1231 618 q 1145 432 1168 490 q 1096 306 1120 372 q 1053 172 1073 240 q 1021 40 1034 103 l 1036 48 m 1539 1092 q 1541 1083 1541 1090 q 1539 1092 1541 1086 z "},"V":{"ha":1215,"x_min":-1085,"x_max":1569,"o":"m 743 -16 q 723 -29 742 -19 q 676 -50 703 -39 q 620 -70 650 -61 q 568 -78 591 -78 q 544 -73 553 -78 q 535 -55 535 -67 q 536 -47 535 -51 q 540 -36 538 -43 q 593 157 566 61 q 646 346 620 254 q 694 523 671 437 q 734 685 718 609 q 762 824 751 760 q 772 935 772 887 q 747 1203 772 1083 q 677 1416 722 1323 q 569 1577 632 1510 q 431 1688 507 1645 q 268 1752 355 1731 q 90 1773 182 1773 q -133 1746 -20 1773 q -356 1668 -246 1718 q -570 1544 -467 1617 q -763 1378 -673 1470 q -922 1177 -852 1286 q -1038 944 -993 1067 q -1060 893 -1051 907 q -1074 880 -1068 880 q -1082 894 -1080 880 q -1085 924 -1085 909 q -1085 936 -1085 930 q -1084 944 -1084 941 q -986 1192 -1052 1078 q -830 1401 -920 1307 q -629 1568 -740 1495 q -397 1691 -519 1641 q -148 1766 -276 1740 q 106 1792 -20 1792 q 322 1771 217 1792 q 521 1707 428 1750 q 692 1598 614 1664 q 827 1443 770 1533 q 915 1239 883 1353 q 946 985 946 1124 q 935 824 946 918 q 901 617 924 730 q 842 377 878 505 q 757 118 806 250 l 1331 1046 q 1367 1098 1347 1071 q 1410 1149 1388 1126 q 1457 1188 1433 1173 q 1503 1203 1480 1203 q 1539 1199 1527 1203 q 1559 1190 1552 1196 q 1567 1178 1565 1185 q 1569 1164 1569 1171 l 743 -16 z "},"W":{"ha":1263,"x_min":-136,"x_max":1693,"o":"m 248 93 l 309 189 l 371 281 q 323 300 350 288 l 248 93 m -64 871 q -48 760 -64 817 q 0 644 -33 702 q 86 530 33 587 q 215 423 140 474 l 310 692 q 358 836 342 784 q 378 956 378 899 q 365 1052 378 1012 q 327 1119 351 1093 q 272 1157 303 1145 q 207 1169 241 1169 q 112 1148 160 1169 q 25 1088 64 1127 q -39 994 -14 1049 q -64 871 -64 939 m 342 351 q 370 336 355 344 l 400 323 l 524 498 l 642 658 l 749 798 l 839 914 l 907 1004 q 949 1062 936 1041 l 954 1070 l 967 1089 l 983 1111 q 994 1125 990 1121 l 1006 1137 q 1020 1127 1015 1133 q 1027 1115 1025 1121 q 1030 1103 1029 1109 q 1031 1093 1031 1097 l 1033 1059 q 1035 1008 1034 1035 q 1036 953 1036 982 q 1031 754 1036 857 q 1017 548 1025 652 q 998 342 1008 444 l 977 145 l 1029 264 l 1092 397 l 1161 540 l 1233 683 l 1303 822 l 1369 951 l 1427 1062 l 1472 1151 q 1499 1193 1486 1177 q 1528 1218 1512 1209 q 1560 1231 1543 1227 q 1598 1234 1577 1234 q 1639 1226 1622 1234 q 1669 1204 1657 1217 q 1687 1174 1681 1191 q 1693 1141 1693 1158 q 1689 1114 1693 1127 q 1675 1090 1685 1101 q 1651 1074 1666 1080 q 1618 1068 1637 1068 q 1568 1046 1595 1068 q 1511 990 1541 1025 q 1452 910 1482 955 l 1394 818 l 1340 728 l 1295 650 l 1210 473 l 1119 282 l 1021 72 l 919 -161 q 893 -203 908 -185 q 861 -222 878 -220 q 833 -211 843 -222 q 819 -181 823 -201 q 813 -135 814 -162 q 812 -76 812 -109 q 815 67 812 -9 q 825 222 819 143 q 838 380 831 302 q 853 531 846 459 q 869 666 861 604 q 882 774 876 728 l 892 846 q 897 872 896 870 l 758 686 l 693 597 l 621 500 l 545 399 l 470 296 q 589 258 528 275 q 722 225 650 240 l 714 208 q 571 228 638 215 q 442 258 504 241 l 203 -62 l 167 -111 q 128 -162 148 -138 q 88 -203 108 -186 q 52 -219 68 -219 q 38 -217 46 -219 q 22 -210 30 -214 q 9 -199 15 -205 q 4 -185 4 -193 q 18 -144 4 -183 l 56 -34 l 115 138 l 194 363 q 45 477 107 415 q -58 605 -18 538 q -117 740 -98 671 q -136 872 -136 808 q -102 1021 -136 957 q -16 1129 -69 1086 q 104 1195 37 1173 q 238 1217 171 1217 q 349 1200 296 1217 q 443 1152 402 1184 q 509 1070 484 1119 q 533 956 533 1021 q 524 869 533 915 q 495 770 515 825 l 342 351 z "},"X":{"ha":2574,"x_min":68,"x_max":2977,"o":"m 2345 1278 q 2420 1274 2384 1278 q 2570 1326 2488 1308 q 2754 1345 2652 1345 q 2941 1329 2841 1345 l 2977 1284 q 2849 1313 2909 1304 q 2734 1322 2789 1322 q 2596 1306 2658 1322 q 2481 1265 2533 1291 q 2601 1219 2551 1249 q 2682 1149 2651 1189 q 2729 1063 2714 1109 q 2743 969 2743 1017 q 2722 851 2743 909 q 2664 748 2701 793 q 2575 675 2627 703 q 2461 647 2523 647 q 2328 668 2385 647 q 2234 725 2272 689 q 2178 807 2197 760 q 2159 907 2159 854 q 2171 995 2159 950 q 2208 1083 2184 1040 q 2271 1165 2233 1126 q 2357 1238 2308 1205 q 2346 1238 2352 1238 q 2335 1238 2340 1238 q 2165 1200 2245 1238 q 2016 1095 2084 1161 q 1893 943 1948 1029 q 1799 761 1838 857 q 1740 566 1761 665 q 1719 376 1719 467 q 1736 233 1719 300 q 1787 118 1752 167 q 1876 40 1822 68 q 2005 12 1930 12 q 2090 26 2043 12 q 2188 63 2137 41 q 2293 115 2239 86 q 2396 173 2346 144 q 2492 231 2447 203 q 2574 279 2538 258 q 2580 281 2576 281 q 2593 274 2588 281 q 2599 258 2599 267 q 2593 239 2599 249 q 2574 222 2587 230 q 2477 166 2526 196 q 2378 106 2429 136 q 2275 49 2327 77 q 2169 1 2223 22 q 2059 -33 2115 -20 q 1946 -45 2003 -45 q 1797 -21 1862 -45 q 1685 48 1732 4 q 1610 151 1638 92 q 1569 281 1581 211 q 1445 132 1512 204 q 1303 -4 1378 59 q 1148 -120 1229 -68 q 983 -210 1067 -172 q 810 -268 898 -248 q 633 -289 722 -289 q 460 -267 533 -289 q 339 -209 387 -244 q 268 -130 292 -174 q 245 -43 245 -86 q 255 -7 245 -18 q 277 4 264 4 q 303 -8 291 4 q 316 -39 316 -20 q 335 -102 316 -69 q 391 -161 355 -134 q 481 -205 428 -188 q 602 -222 534 -222 q 790 -189 694 -222 q 977 -98 885 -156 q 1156 38 1069 -40 q 1319 207 1242 117 q 1458 397 1395 298 q 1567 595 1522 496 q 1638 788 1613 694 q 1664 966 1664 883 q 1643 1092 1664 1034 q 1576 1190 1622 1149 q 1459 1254 1531 1231 q 1287 1277 1388 1277 q 1180 1263 1237 1277 q 1065 1225 1123 1250 q 949 1166 1006 1200 q 839 1088 891 1131 q 743 996 787 1045 q 668 892 699 946 q 740 856 711 876 q 787 815 769 836 q 814 770 806 793 q 822 724 822 747 q 805 654 822 688 q 762 594 788 621 q 704 552 736 568 q 644 536 673 536 q 610 543 626 536 q 583 565 595 549 q 565 604 572 580 q 558 661 558 627 q 573 786 558 727 q 467 774 520 786 q 366 734 414 762 q 275 662 317 707 q 201 553 233 618 q 153 401 170 488 q 135 201 135 314 q 131 173 135 185 q 121 154 127 161 q 110 143 116 146 q 102 139 104 139 q 87 148 94 139 q 77 170 81 157 q 70 197 73 182 q 68 225 68 212 q 86 446 68 348 q 137 619 104 544 q 214 747 170 694 q 312 834 259 800 q 424 884 365 868 q 543 899 482 899 q 579 899 562 899 q 612 897 596 898 q 700 1037 647 970 q 818 1159 753 1103 q 955 1259 882 1215 q 1103 1335 1028 1304 q 1251 1383 1178 1367 q 1390 1400 1324 1400 q 1536 1378 1467 1400 q 1660 1310 1605 1356 q 1754 1193 1716 1264 q 1807 1025 1792 1122 q 1917 1127 1858 1080 q 2043 1207 1976 1174 q 2186 1260 2110 1241 q 2345 1278 2262 1278 m 2696 961 q 2681 1050 2696 1006 q 2634 1131 2667 1094 q 2550 1194 2601 1167 q 2427 1232 2499 1221 q 2352 1163 2384 1201 q 2298 1084 2319 1125 q 2266 1000 2277 1042 q 2255 916 2255 957 q 2268 831 2255 871 q 2307 761 2281 791 q 2372 713 2333 730 q 2462 695 2411 695 q 2557 718 2514 695 q 2631 778 2600 741 q 2679 863 2662 815 q 2696 961 2696 911 m 626 785 q 618 743 621 764 q 612 706 614 725 q 610 672 610 686 q 625 607 610 626 q 661 588 640 588 q 697 599 677 588 q 732 627 716 610 q 759 665 748 644 q 769 706 769 686 q 762 736 769 722 q 738 761 754 750 q 693 778 721 772 q 626 785 666 785 z "},"Y":{"ha":1634,"x_min":-407,"x_max":1665,"o":"m 528 -886 q 651 -856 595 -886 q 755 -773 707 -826 q 845 -648 804 -720 q 923 -489 886 -575 q 994 -307 960 -403 l 1061 -112 l 986 -155 q 943 -178 955 -173 q 791 -267 867 -214 q 661 -371 720 -317 q 557 -480 602 -425 q 480 -590 511 -536 q 433 -691 449 -643 q 416 -778 416 -739 q 444 -857 416 -827 q 528 -886 471 -886 m 1634 279 q 1649 283 1643 283 q 1661 278 1657 283 q 1665 265 1665 273 q 1657 244 1665 256 q 1634 222 1650 232 l 1318 37 q 1214 -206 1270 -84 q 1096 -440 1158 -328 q 966 -651 1034 -553 q 826 -821 898 -749 q 680 -935 755 -893 q 529 -977 605 -977 q 446 -964 481 -977 q 389 -930 414 -954 q 355 -878 366 -909 q 345 -810 345 -848 q 362 -704 345 -762 q 414 -584 380 -646 q 497 -458 448 -522 q 609 -333 547 -394 q 746 -217 671 -273 q 905 -117 821 -162 l 997 -69 l 1095 -16 l 1180 178 q 1272 363 1224 275 q 1375 533 1317 446 q 1411 584 1393 559 l 1358 521 q 1224 373 1291 443 q 1088 245 1156 304 q 951 145 1020 187 q 814 79 883 103 q 675 56 745 56 q 597 64 629 56 q 547 87 566 72 q 519 122 528 102 q 511 165 511 142 q 533 256 511 207 q 590 358 556 305 q 664 466 624 411 q 737 572 703 520 q 794 672 771 625 q 817 757 817 719 q 786 846 817 807 q 703 911 755 884 q 581 951 650 937 q 433 964 511 964 q 251 948 345 964 q 67 900 157 932 q -101 816 -22 867 q -241 696 -181 766 q -336 539 -301 627 q -371 342 -371 451 q -368 280 -371 312 q -357 214 -365 248 l -387 220 q -402 311 -397 267 q -407 395 -407 354 q -375 596 -407 507 q -289 756 -344 686 q -161 875 -235 825 q -2 957 -87 925 q 176 1005 83 989 q 360 1020 269 1020 q 547 1001 458 1020 q 706 947 637 982 q 815 862 774 912 q 857 751 857 812 q 838 663 857 709 q 790 568 819 616 q 728 471 761 519 l 666 378 q 618 293 637 333 q 599 222 599 254 q 605 189 599 204 q 626 164 612 174 q 664 148 640 153 q 721 142 687 142 q 873 173 798 142 q 1021 255 949 204 q 1160 371 1093 306 q 1287 504 1227 436 q 1396 637 1346 572 l 1483 753 l 1544 835 q 1575 866 1568 866 q 1619 872 1605 866 q 1637 879 1633 879 q 1641 874 1640 879 q 1642 857 1642 869 q 1622 756 1642 826 q 1563 589 1601 686 q 1472 372 1525 492 q 1351 123 1418 253 l 1462 183 l 1552 233 l 1634 279 z "},"Z":{"ha":1036,"x_min":-46,"x_max":1066,"o":"m -46 -745 q -18 -590 -46 -664 q 58 -449 10 -516 q 169 -321 106 -382 q 302 -205 233 -260 q 197 -47 244 -134 q 117 133 151 39 q 65 327 83 227 q 47 525 47 426 q 61 682 47 605 q 102 826 74 758 q 174 950 130 893 q 280 1047 218 1006 q 421 1111 341 1088 q 601 1134 501 1134 q 775 1096 701 1134 q 901 995 850 1058 q 976 852 951 932 q 1002 686 1002 771 q 990 556 1002 621 q 954 432 978 492 q 894 321 930 373 q 810 231 858 270 q 701 169 762 193 q 567 140 640 144 q 648 100 618 119 q 699 66 677 82 l 1036 279 q 1044 281 1038 281 q 1059 275 1051 281 q 1066 259 1066 269 q 1059 242 1066 252 q 1036 222 1053 233 l 720 30 q 736 0 730 18 q 748 -39 743 -18 q 755 -84 753 -61 q 757 -129 757 -108 q 746 -247 757 -183 q 713 -378 734 -311 q 661 -515 692 -446 q 592 -647 631 -583 q 509 -765 554 -710 q 412 -861 463 -821 q 303 -925 360 -902 q 186 -949 247 -949 q 89 -936 132 -949 q 16 -897 46 -922 q -30 -833 -14 -871 q -46 -745 -46 -795 m 555 176 q 654 197 608 176 q 736 256 699 218 q 802 343 774 293 q 850 453 831 394 q 879 575 869 511 q 889 703 889 640 q 872 847 889 778 q 820 970 855 917 q 731 1056 785 1024 q 604 1088 677 1088 q 465 1068 526 1088 q 356 1013 403 1048 q 275 927 309 977 q 220 818 241 878 q 189 691 199 758 q 179 553 179 624 q 192 356 179 455 q 230 163 205 256 q 286 -14 254 69 q 357 -161 319 -97 q 433 -107 395 -134 q 507 -57 471 -81 q 578 -11 544 -33 q 641 31 612 11 q 621 57 633 43 q 588 81 608 70 q 541 99 568 92 q 477 111 513 107 q 432 113 456 113 q 387 115 408 113 q 353 123 366 117 q 339 143 339 130 q 355 170 339 157 q 408 182 372 182 q 412 182 410 182 q 471 179 433 182 q 555 176 508 176 m 670 -11 q 612 -51 644 -28 q 543 -103 579 -75 q 469 -166 507 -132 q 395 -239 431 -200 q 432 -309 414 -277 q 465 -362 450 -340 q 490 -396 479 -385 q 505 -408 500 -408 q 509 -404 507 -408 q 503 -424 507 -414 q 491 -433 499 -433 q 482 -430 486 -433 q 417 -370 450 -407 q 351 -286 384 -333 q 250 -398 297 -340 q 169 -517 203 -456 q 114 -641 134 -578 q 94 -768 94 -704 q 98 -813 94 -791 q 113 -851 102 -834 q 141 -877 123 -867 q 185 -887 159 -887 q 257 -868 221 -887 q 329 -817 294 -850 q 399 -741 365 -785 q 465 -647 433 -697 q 524 -544 496 -597 q 574 -439 551 -491 q 613 -340 596 -388 q 639 -254 629 -293 q 657 -166 651 -205 q 666 -97 663 -127 q 669 -46 669 -67 q 670 -11 669 -25 z "},"[":{"ha":1494,"x_min":26,"x_max":1483,"o":"m 1000 -263 q 888 -243 947 -253 q 765 -225 829 -233 q 632 -212 701 -217 q 492 -207 564 -207 q 394 -211 441 -207 q 308 -225 347 -216 q 241 -250 269 -235 q 199 -286 212 -265 q 165 -327 180 -315 q 132 -339 150 -339 q 100 -332 119 -339 q 65 -313 82 -324 q 37 -290 49 -302 q 26 -267 26 -277 q 45 -232 26 -251 q 95 -196 64 -214 q 165 -164 126 -178 q 244 -144 204 -151 q 335 -30 293 -104 q 420 167 376 45 q 442 219 427 184 q 478 302 457 254 q 526 407 500 350 q 578 522 551 463 q 632 639 606 581 q 681 748 659 697 q 722 838 704 798 q 748 899 739 877 q 790 1002 772 958 q 825 1076 808 1045 q 860 1125 842 1106 q 901 1155 878 1144 q 956 1169 924 1165 q 1032 1173 988 1173 q 1114 1165 1065 1173 q 1218 1149 1163 1158 q 1331 1133 1274 1140 q 1440 1125 1389 1125 q 1474 1115 1464 1125 q 1483 1087 1483 1105 q 1467 1070 1483 1078 q 1427 1058 1450 1063 q 1378 1048 1403 1053 q 1335 1040 1352 1044 q 1306 1035 1322 1036 q 1272 1034 1290 1034 q 1207 1038 1242 1034 q 1137 1047 1172 1041 q 1070 1060 1103 1053 q 1011 1074 1037 1067 q 967 1089 985 1082 q 945 1101 949 1096 l 834 856 q 692 511 759 671 q 570 222 626 350 q 468 2 513 94 q 389 -134 422 -89 l 395 -134 q 560 -141 479 -134 q 717 -158 641 -148 q 864 -182 793 -169 q 1000 -207 935 -195 q 1023 -228 1015 -216 q 1030 -250 1030 -240 q 1026 -262 1030 -257 q 1015 -267 1022 -267 q 1000 -263 1008 -267 z "},"\\":{"ha":375,"x_min":9,"x_max":365,"o":"m 9 1377 q 11 1399 9 1391 q 15 1411 12 1407 q 21 1416 18 1415 q 28 1417 24 1417 q 47 1403 38 1417 q 65 1364 56 1388 q 82 1308 74 1339 q 97 1242 90 1276 q 111 1174 104 1208 q 123 1111 117 1140 q 158 919 139 1023 q 198 702 178 814 q 238 476 218 590 q 276 256 258 362 l 361 -249 q 363 -274 362 -262 q 365 -293 365 -286 q 358 -312 365 -309 q 345 -316 351 -316 l 339 -316 q 323 -280 334 -316 q 298 -182 313 -244 q 267 -36 284 -119 q 231 144 250 48 q 193 342 212 239 q 154 544 173 444 q 119 735 136 644 q 89 902 102 827 q 65 1028 75 976 q 52 1101 56 1080 q 40 1157 47 1124 q 26 1228 33 1190 q 14 1304 19 1265 q 9 1377 9 1343 z "},"]":{"ha":1219,"x_min":5,"x_max":1177,"o":"m 6 -234 q 5 -232 5 -234 q 12 -216 5 -228 q 31 -191 18 -205 q 66 -161 45 -176 q 119 -133 88 -145 q 191 -112 150 -120 q 283 -103 232 -103 q 387 -112 331 -103 q 513 -140 444 -120 q 541 -79 526 -109 q 571 -19 556 -49 q 602 43 587 12 q 632 109 618 75 q 668 195 646 144 q 716 308 690 247 q 771 434 742 368 q 828 564 800 500 l 968 880 l 1072 1131 q 1036 1117 1061 1124 q 977 1103 1011 1110 q 902 1090 943 1096 q 821 1079 861 1084 q 743 1071 781 1074 q 677 1068 705 1068 q 652 1070 662 1068 q 627 1072 642 1072 q 583 1069 608 1072 q 541 1067 559 1067 q 525 1068 531 1067 q 517 1075 518 1070 q 521 1084 517 1078 q 555 1114 537 1103 q 597 1126 573 1125 q 671 1135 631 1128 q 754 1148 711 1141 q 840 1165 797 1156 q 921 1182 882 1174 q 991 1195 959 1190 q 1046 1202 1024 1200 q 1069 1203 1058 1202 q 1089 1203 1080 1203 q 1156 1193 1134 1203 q 1177 1158 1177 1183 q 1155 1074 1177 1129 q 1091 930 1133 1019 q 1063 867 1080 907 q 1025 774 1046 826 q 980 663 1004 722 q 932 543 956 604 q 885 424 908 482 q 841 317 861 366 q 806 231 821 268 q 783 178 791 195 q 760 131 769 150 q 744 98 751 113 q 732 70 737 83 q 721 40 726 57 q 707 1 715 24 q 689 -56 700 -22 q 643 -176 665 -128 q 603 -252 622 -224 q 565 -292 583 -280 q 530 -303 547 -303 q 492 -292 511 -303 q 456 -266 474 -280 q 419 -238 437 -252 q 380 -220 400 -224 q 295 -207 333 -211 q 227 -202 258 -202 q 149 -209 181 -202 q 93 -223 116 -215 q 53 -237 69 -231 q 26 -243 37 -243 q 6 -234 16 -243 z "},"^":{"ha":1157,"x_min":314,"x_max":760,"o":"m 759 115 q 760 107 760 114 q 751 84 760 94 q 730 75 742 75 q 714 81 722 75 q 699 100 705 87 l 595 369 l 358 100 q 338 92 349 92 q 321 98 329 92 q 314 113 314 104 q 320 129 314 121 l 515 431 q 567 484 541 463 q 616 505 594 505 q 636 502 626 505 q 655 492 646 500 q 673 470 665 485 q 687 431 681 455 l 759 115 z "},"_":{"ha":873,"x_min":114,"x_max":759,"o":"m 121 22 q 114 38 114 27 q 132 71 114 64 q 182 78 149 78 q 378 78 296 78 q 518 76 460 77 q 614 74 576 75 q 676 72 652 73 q 716 69 701 71 q 744 66 731 68 q 759 47 759 64 q 751 20 759 33 q 731 5 743 7 q 690 3 715 4 q 632 1 664 2 q 565 0 601 1 q 494 0 530 0 q 412 0 452 0 q 341 1 372 1 l 308 1 q 258 1 286 1 q 203 4 230 2 q 153 11 176 6 q 121 22 131 15 z "},"`":{"ha":1157,"x_min":256,"x_max":602,"o":"m 602 103 q 591 89 598 96 q 572 82 585 82 l 554 98 l 256 493 q 265 515 256 506 q 288 529 274 524 q 317 538 301 535 q 347 542 332 541 q 372 543 361 543 q 386 543 382 543 l 602 103 z "},"a":{"ha":958,"x_min":-22,"x_max":989,"o":"m 0 222 q -9 220 -5 220 q -19 225 -16 220 q -22 240 -22 231 q -18 260 -22 250 q 0 279 -13 271 l 251 427 q 351 473 298 454 q 458 506 404 493 q 566 524 513 518 q 667 530 620 530 q 718 526 694 530 q 759 515 742 522 q 786 498 777 508 q 796 475 796 488 q 789 461 796 465 q 773 455 783 457 q 754 453 764 454 q 739 450 745 452 q 726 410 735 437 q 709 355 718 383 q 693 305 700 327 q 685 279 686 283 q 661 207 676 251 q 627 90 646 163 q 643 98 628 90 q 681 119 657 106 q 734 149 704 132 q 795 183 764 165 l 958 279 q 974 284 967 284 q 985 279 981 284 q 989 267 989 274 q 982 244 989 257 q 958 222 975 232 l 597 11 q 572 -1 583 3 q 551 -4 560 -4 q 528 2 537 -4 q 512 19 518 8 q 503 44 506 30 q 500 73 500 58 q 503 107 500 90 q 512 140 507 124 q 466 73 492 101 q 411 25 440 44 q 350 -4 381 5 q 289 -14 319 -14 q 233 -4 259 -14 q 186 24 206 5 q 155 71 166 43 q 143 135 143 98 q 148 183 143 157 q 159 237 152 210 q 176 290 167 264 q 196 338 186 316 l 0 222 m 616 472 q 513 454 562 472 q 421 406 463 435 q 344 337 378 376 q 286 259 310 299 q 249 179 262 218 q 235 109 235 140 q 251 53 235 74 q 300 31 266 31 q 345 44 321 31 q 394 77 369 56 q 443 124 418 98 q 487 177 467 150 q 523 229 507 203 q 545 273 538 254 l 616 472 z "},"b":{"ha":916,"x_min":-26,"x_max":945,"o":"m 621 64 q 608 63 614 63 q 597 62 602 62 q 491 5 552 25 q 354 -16 430 -16 q 275 -7 307 -16 q 223 16 243 1 q 195 55 203 32 q 186 107 186 77 q 203 231 186 165 q 252 370 221 298 l 0 222 q -12 219 -5 219 q -22 224 -18 219 q -26 238 -26 230 q -20 259 -26 248 q 0 279 -14 271 l 288 449 q 365 585 323 517 q 452 712 407 652 q 545 825 498 773 q 636 916 592 878 q 721 975 681 954 q 791 997 760 997 q 868 979 844 997 q 892 931 892 962 q 875 869 892 904 q 827 794 858 834 q 754 712 796 755 q 661 629 711 670 q 553 549 610 588 q 436 479 496 511 q 461 483 449 482 q 486 484 473 484 q 572 468 531 484 q 644 425 613 451 q 693 368 675 399 q 711 307 711 336 q 698 210 711 256 q 656 125 684 164 l 916 279 q 929 281 923 281 q 945 264 945 281 q 916 222 945 239 q 877 199 901 214 q 825 168 853 184 q 766 133 796 151 q 707 101 735 116 q 656 77 680 87 q 621 64 633 66 m 610 240 q 588 307 610 278 q 532 358 567 336 q 454 396 498 380 q 366 426 411 412 q 312 269 332 346 q 292 121 292 193 q 307 64 292 86 q 355 43 322 43 q 459 53 417 43 q 531 82 502 64 q 505 118 513 97 q 497 158 497 138 q 512 192 497 180 q 548 203 527 203 q 576 198 562 203 q 603 183 591 193 q 610 240 610 208 m 798 957 q 749 941 777 957 q 689 896 722 925 q 623 828 657 867 q 554 742 588 789 q 490 642 521 694 q 433 534 458 589 q 502 580 461 551 q 588 645 543 609 q 679 722 633 682 q 760 800 724 762 q 819 871 796 838 q 841 925 841 903 q 831 948 841 940 q 798 957 821 957 z "},"c":{"ha":882,"x_min":-24,"x_max":910,"o":"m 0 222 q -9 220 -5 220 q -20 226 -16 220 q -24 241 -24 232 q -18 261 -24 250 q 0 279 -13 271 q 164 379 96 336 q 286 452 233 422 q 382 497 338 481 q 473 512 426 512 q 575 493 541 512 q 608 442 608 475 q 601 405 608 421 q 582 377 594 389 q 555 360 570 366 q 524 355 540 355 q 499 365 512 355 q 486 398 486 376 q 476 456 486 439 q 452 473 467 473 q 418 458 437 473 q 380 420 399 444 q 341 363 360 395 q 308 296 322 332 q 284 225 293 261 q 275 157 275 189 q 302 68 275 96 q 372 40 329 40 q 475 64 420 40 q 593 125 530 89 q 728 202 656 161 q 882 279 800 244 q 896 283 890 283 q 910 266 910 283 q 904 243 910 256 q 882 222 897 230 q 802 179 843 205 q 716 126 760 154 q 627 70 673 98 q 533 21 581 43 q 435 -15 485 -1 q 335 -29 386 -29 q 248 -15 283 -29 q 189 23 212 -1 q 157 79 167 47 q 146 147 146 111 q 155 211 146 178 q 178 274 163 244 q 214 330 193 304 q 258 374 235 356 l 0 222 z "},"d":{"ha":966,"x_min":-25,"x_max":986,"o":"m 164 165 q 179 226 164 191 q 219 298 195 261 q 275 368 244 334 q 338 422 307 401 l 0 222 q -5 221 -3 221 q -9 220 -7 220 q -21 226 -17 220 q -25 239 -25 231 q -19 260 -25 249 q 0 279 -13 271 l 186 392 q 273 441 224 415 q 373 489 321 467 q 477 525 425 511 q 578 540 530 540 q 656 526 622 540 l 833 884 q 847 915 840 898 q 868 945 855 931 q 900 969 880 960 q 949 979 919 979 q 961 973 959 979 q 964 956 964 966 q 959 935 962 947 q 952 911 956 923 q 945 890 948 900 q 939 876 941 881 l 737 437 q 700 346 722 393 q 657 254 678 298 q 622 171 637 210 q 608 105 608 132 q 610 87 608 96 q 619 78 612 78 q 646 85 628 78 q 687 104 664 92 q 737 133 710 116 q 790 168 764 149 l 966 279 q 975 281 972 281 q 983 276 980 281 q 986 263 986 271 q 981 240 986 252 q 966 222 976 229 q 887 169 928 197 q 804 115 846 142 q 723 64 763 88 q 647 19 684 39 q 553 -10 595 -10 q 517 5 526 -10 q 507 43 507 20 q 510 73 507 58 q 517 106 512 88 q 475 58 498 79 q 424 22 451 37 q 369 0 397 7 q 313 -8 340 -8 q 256 2 283 -8 q 208 33 229 12 q 176 87 188 54 q 164 165 164 119 m 606 401 q 613 420 609 409 q 622 441 618 431 q 630 459 627 451 q 633 471 633 468 q 617 477 633 475 q 576 479 602 479 q 507 461 542 479 q 439 414 472 444 q 377 348 406 385 q 327 270 349 310 q 293 192 306 231 q 281 122 281 153 q 295 62 281 80 q 332 44 309 44 q 400 71 363 44 q 473 144 436 97 q 544 257 509 191 q 606 401 578 323 z "},"e":{"ha":673,"x_min":-35,"x_max":700,"o":"m 0 222 q -16 218 -7 218 q -30 223 -24 218 q -35 236 -35 228 q -27 256 -35 245 q 0 279 -20 267 l 172 380 q 221 472 191 433 q 287 537 251 511 q 363 575 323 562 q 440 587 403 587 q 503 567 478 587 q 528 505 528 547 q 509 451 528 479 q 458 396 490 423 q 382 345 426 368 q 290 304 339 321 q 289 243 290 272 q 288 188 288 214 q 290 148 288 166 q 295 118 291 130 q 308 98 300 105 q 328 91 315 91 q 373 106 347 91 q 441 145 400 121 q 534 199 477 167 q 673 279 591 232 q 681 281 676 281 q 694 274 688 281 q 700 258 700 268 q 694 241 700 250 q 673 222 688 231 q 543 141 606 182 q 424 67 480 100 q 321 12 368 33 q 238 -9 273 -9 q 196 1 214 -9 q 166 33 178 11 q 147 92 153 56 q 140 180 140 128 q 141 207 140 189 q 145 245 142 224 q 151 286 147 266 q 159 316 154 305 q 145 308 154 313 q 123 295 136 302 q 98 280 111 288 q 71 264 84 272 l 0 222 m 454 500 q 456 509 456 504 q 450 534 456 526 q 431 542 444 542 q 395 530 415 542 q 355 495 374 518 q 320 437 336 472 q 300 358 305 403 q 354 391 328 372 q 402 429 380 410 q 437 467 423 448 q 454 500 451 486 z "},"f":{"ha":779,"x_min":-139,"x_max":1051,"o":"m 523 587 q 716 707 631 648 q 862 820 802 766 q 954 926 922 875 q 986 1023 986 977 q 983 1049 986 1035 q 969 1075 981 1063 q 934 1095 958 1086 q 870 1103 911 1103 q 784 1079 823 1103 q 710 1014 744 1055 q 648 921 676 974 q 597 811 620 868 q 555 695 574 753 q 523 587 537 637 m 779 279 q 791 282 788 282 q 805 277 800 282 q 810 262 810 271 q 803 242 810 253 q 779 222 796 232 l 605 112 q 529 64 568 89 q 452 14 490 39 q 379 -35 414 -12 q 315 -78 344 -58 q 234 -323 283 -221 q 133 -490 186 -425 q 27 -585 79 -555 q -63 -615 -24 -615 q -118 -593 -98 -615 q -139 -531 -139 -572 q -114 -446 -139 -498 q -44 -331 -89 -393 q 61 -201 1 -269 q 193 -71 122 -134 q 216 28 201 -28 q 250 147 231 83 q 291 280 269 211 q 334 419 313 349 l 0 222 q -12 219 -9 219 q -27 224 -21 219 q -33 239 -33 230 q -26 257 -33 247 q 0 279 -18 267 q 100 337 50 308 q 196 394 150 367 q 283 445 243 422 q 351 486 323 469 q 354 499 351 486 q 360 534 356 512 q 372 585 365 556 q 386 643 378 613 q 403 702 394 673 q 422 755 412 732 q 466 843 440 798 q 525 930 492 888 q 596 1010 557 972 q 678 1076 635 1048 q 769 1121 722 1104 q 865 1137 816 1137 q 950 1127 915 1137 q 1008 1101 985 1118 q 1041 1065 1030 1085 q 1051 1025 1051 1045 q 1028 922 1051 970 q 965 829 1004 873 q 872 745 925 785 q 759 668 819 705 q 637 596 700 631 q 516 527 575 561 q 468 378 490 448 q 424 247 445 309 q 384 128 404 184 q 346 19 365 72 q 405 55 372 35 q 473 96 437 75 q 545 139 508 117 q 615 182 581 161 l 779 279 m -69 -502 q -49 -532 -67 -532 q -5 -507 -32 -532 q 53 -437 22 -483 q 115 -329 84 -392 q 169 -186 145 -265 q 114 -241 142 -212 q 60 -301 86 -271 q 10 -361 33 -332 q -31 -418 -14 -391 q -59 -467 -49 -445 q -69 -502 -69 -488 z "},"g":{"ha":1043,"x_min":-103,"x_max":1076,"o":"m 1043 279 q 1055 281 1048 281 q 1069 276 1063 281 q 1076 262 1076 271 q 1068 243 1076 254 q 1043 222 1061 233 q 967 177 1010 203 q 874 122 924 152 q 768 59 824 92 q 654 -10 713 25 q 548 -168 605 -90 q 430 -318 490 -247 q 309 -452 370 -390 q 193 -559 249 -513 q 89 -630 138 -604 q 5 -656 41 -656 q -41 -651 -20 -656 q -75 -634 -61 -646 q -96 -603 -89 -623 q -103 -553 -103 -583 q -82 -509 -103 -536 q -23 -445 -61 -481 q 67 -367 15 -410 q 181 -279 119 -325 q 313 -183 243 -233 q 456 -85 383 -134 q 627 122 532 8 q 570 77 601 98 q 508 40 540 56 q 444 15 475 24 q 384 5 412 5 q 316 13 347 5 q 263 37 286 20 q 228 80 241 54 q 216 144 216 106 q 227 219 216 183 q 257 286 238 254 q 300 346 276 318 q 349 397 323 374 q 402 449 374 424 q 463 495 431 473 l 0 222 q -19 216 -12 216 q -36 233 -36 216 q -27 255 -36 243 q 0 279 -19 267 q 218 404 116 349 q 407 495 320 458 q 564 551 493 532 q 688 570 635 570 q 798 533 760 570 q 836 421 836 497 q 827 350 836 389 q 801 268 818 311 q 761 176 785 224 q 709 79 738 129 q 892 192 807 141 q 1043 279 977 242 m 351 139 q 365 57 351 81 q 414 33 380 33 q 469 45 439 33 q 528 77 498 58 q 586 120 557 96 q 637 168 614 144 q 678 210 661 191 q 701 241 694 230 q 728 285 718 266 q 744 323 738 304 q 752 365 750 342 q 754 417 754 387 q 748 439 754 427 q 733 460 742 450 q 713 475 724 469 q 694 481 703 481 q 552 453 614 481 q 447 378 490 425 q 379 269 404 330 q 351 139 355 207 m 9 -591 q 58 -566 27 -591 q 138 -489 90 -540 q 252 -362 186 -438 q 404 -184 317 -286 q 310 -252 360 -216 q 212 -322 260 -287 q 119 -391 163 -357 q 40 -454 75 -425 q -14 -507 6 -484 q -34 -545 -34 -530 q -32 -559 -34 -551 q -25 -575 -30 -568 q -11 -587 -20 -582 q 9 -591 -3 -591 z "},"h":{"ha":1081,"x_min":-35,"x_max":1266,"o":"m 140 92 q 143 143 140 115 q 149 200 145 170 q 158 261 153 231 q 170 322 163 292 l 0 222 q -15 218 -7 218 q -29 223 -23 218 q -35 237 -35 229 q -27 257 -35 246 q 0 279 -19 267 l 176 389 q 208 473 187 420 q 258 591 228 526 q 327 727 288 655 q 416 869 366 799 q 524 1004 465 940 q 652 1117 583 1068 q 800 1195 721 1166 q 968 1223 879 1223 q 1101 1213 1044 1223 q 1194 1183 1157 1202 q 1248 1139 1230 1164 q 1266 1084 1266 1114 q 1226 986 1266 1037 q 1105 886 1185 935 l 334 410 l 293 149 q 362 192 328 170 q 428 233 397 213 q 484 269 458 252 q 525 297 509 286 q 545 313 532 304 q 573 329 557 321 q 608 342 589 336 q 646 347 626 347 q 674 344 660 347 q 700 330 688 341 q 718 299 711 319 q 725 244 725 279 l 725 69 q 750 84 732 73 q 795 111 769 96 q 853 145 822 127 q 917 182 885 163 l 1081 279 q 1105 287 1095 287 q 1121 271 1121 287 q 1112 248 1121 260 q 1081 222 1103 235 q 938 138 1006 178 q 815 67 870 98 q 721 17 760 36 q 667 -5 682 -3 q 651 -7 659 -7 q 635 -8 643 -8 q 595 -2 610 -8 q 571 16 580 5 q 560 41 563 27 q 557 72 557 56 q 563 105 557 87 q 571 143 568 122 l 590 292 q 403 164 488 220 q 344 119 373 140 q 291 80 315 97 q 249 53 267 63 q 225 43 231 43 q 197 45 212 43 q 170 51 182 46 q 149 66 157 56 q 140 92 140 76 m 346 497 q 524 616 431 555 q 710 738 616 677 q 899 856 805 798 q 1082 965 993 914 q 1161 1037 1133 1004 q 1189 1097 1189 1070 q 1137 1151 1189 1131 q 974 1171 1086 1171 q 869 1151 922 1171 q 767 1096 817 1131 q 669 1015 716 1061 q 578 916 621 968 q 498 806 536 863 q 431 694 461 749 q 379 589 401 640 q 346 497 357 538 z "},"i":{"ha":762,"x_min":-33,"x_max":795,"o":"m 762 222 q 584 118 657 162 q 459 44 511 73 q 372 2 408 16 q 307 -12 336 -12 q 259 -5 279 -12 q 226 13 239 1 q 207 41 213 24 q 201 76 201 57 q 208 105 201 90 q 223 136 214 120 q 242 169 232 151 q 261 205 252 186 l 364 436 l 0 222 q -12 219 -9 219 q -27 224 -20 219 q -33 239 -33 230 q -26 257 -33 247 q 0 279 -19 267 l 176 381 q 245 422 210 401 q 312 460 281 442 q 367 491 342 477 q 406 513 392 505 l 493 513 q 498 506 496 511 q 500 492 500 501 q 490 442 500 474 q 464 370 479 410 q 430 286 449 330 q 395 203 412 242 q 361 125 379 164 q 326 46 344 87 q 384 64 345 46 q 480 114 424 83 q 609 188 537 146 q 762 279 680 231 q 772 281 765 281 q 788 276 781 281 q 795 261 795 271 q 788 243 795 253 q 762 222 781 233 m 575 750 q 590 750 579 750 q 616 748 602 749 q 646 744 630 747 q 674 735 661 741 q 696 720 687 729 q 705 699 705 711 l 607 624 l 562 603 q 543 610 550 603 q 533 624 536 616 l 575 750 z "},"j":{"ha":618,"x_min":-450,"x_max":705,"o":"m 513 492 q 504 411 513 452 q 475 326 494 370 q 429 234 456 282 q 368 131 402 186 q 510 216 446 178 q 618 279 574 254 q 625 281 621 281 q 640 274 633 281 q 648 258 648 268 q 641 241 648 250 q 618 222 635 232 q 564 189 597 210 q 491 141 532 168 q 402 81 450 114 q 302 13 354 49 q 191 -144 251 -66 q 68 -295 131 -223 q -57 -430 5 -368 q -177 -537 -120 -492 q -284 -609 -235 -583 q -369 -635 -334 -635 q -431 -624 -412 -635 q -450 -591 -450 -612 q -426 -526 -450 -564 q -362 -441 -403 -488 q -265 -342 -321 -395 q -144 -234 -209 -290 q -7 -120 -79 -178 q 138 -7 65 -63 q 199 94 169 41 q 261 205 230 146 l 365 437 l 0 222 q -10 220 -5 220 q -25 225 -18 220 q -33 240 -33 231 q -25 258 -33 248 q 0 279 -18 268 q 90 331 47 305 q 173 380 132 356 l 403 513 q 432 524 414 519 q 466 528 450 528 q 498 520 485 528 q 513 492 512 512 m -351 -571 q -294 -550 -334 -571 q -197 -480 -254 -529 q -72 -351 -141 -431 q 72 -153 -3 -271 q -43 -238 13 -195 q -150 -320 -100 -280 q -243 -396 -201 -360 q -317 -463 -286 -433 q -365 -516 -348 -493 q -382 -553 -382 -539 q -351 -571 -382 -571 m 575 750 q 590 750 579 750 q 616 748 602 749 q 646 744 630 747 q 674 735 661 741 q 696 720 687 729 q 705 699 705 711 l 607 624 l 562 603 q 543 610 550 603 q 533 624 536 616 l 575 750 z "},"k":{"ha":981,"x_min":-34,"x_max":1010,"o":"m 392 509 q 481 572 436 536 q 567 650 526 609 q 644 734 608 691 q 707 816 680 777 q 748 889 733 855 q 764 945 764 922 q 754 970 764 961 q 725 980 745 980 q 601 944 654 980 q 509 845 548 908 q 441 695 469 781 q 392 509 413 609 m 812 513 q 787 531 812 531 q 720 510 763 531 q 625 453 677 489 q 518 368 573 416 q 415 263 463 319 q 331 148 367 208 q 282 28 295 87 q 270 10 280 18 q 245 -4 259 1 q 216 -13 231 -10 q 189 -12 201 -15 q 170 -1 177 -9 q 166 23 163 7 q 174 58 167 23 q 197 168 179 90 l 243 367 l 0 222 q -16 218 -7 218 q -29 223 -24 218 q -34 236 -34 228 q -26 257 -34 245 q 0 279 -18 268 l 248 425 q 325 669 285 559 q 418 857 364 779 q 547 977 472 935 q 730 1019 622 1019 q 820 999 793 1019 q 848 946 848 979 q 827 874 848 915 q 771 788 806 833 q 690 696 736 743 q 593 604 644 648 q 489 519 542 559 q 389 451 437 480 l 317 153 q 361 267 332 214 q 430 367 391 321 q 514 450 469 413 q 606 512 559 486 q 697 551 652 537 q 780 564 742 564 q 824 558 804 564 q 859 538 844 551 q 881 505 873 525 q 889 456 889 484 q 869 420 889 439 q 819 380 849 400 q 752 342 788 361 q 685 310 716 324 q 722 269 711 290 q 733 224 733 248 q 705 154 733 191 q 631 74 676 116 l 665 94 l 713 121 l 770 155 l 831 190 l 981 279 q 991 281 985 281 q 1004 276 998 281 q 1010 261 1010 271 q 1004 242 1010 253 q 981 222 997 232 l 795 112 l 724 69 l 659 30 l 606 0 q 576 -17 585 -13 q 563 -23 570 -20 q 551 -24 557 -25 q 492 -7 511 -24 q 473 33 473 9 q 486 59 473 46 q 526 83 498 71 l 571 125 q 606 160 591 144 q 629 187 621 176 q 637 206 637 199 q 628 237 637 229 q 607 252 618 246 q 585 264 595 257 q 576 288 576 271 q 593 315 576 300 q 637 348 611 330 l 694 385 q 751 427 725 406 q 795 469 777 448 q 812 513 812 491 z "},"l":{"ha":771,"x_min":-31,"x_max":1006,"o":"m 771 279 q 781 281 776 281 q 796 276 789 281 q 803 261 803 271 q 796 243 803 253 q 771 222 789 233 q 695 179 736 203 q 611 130 654 155 q 526 80 568 104 q 445 35 483 56 q 375 0 406 15 q 324 -20 344 -14 q 304 -24 313 -23 q 288 -25 295 -25 q 241 -11 259 -25 q 212 27 222 3 q 197 84 201 52 q 193 152 193 116 q 198 251 193 201 q 207 345 203 302 l 60 258 l 0 222 q -11 220 -5 220 q -25 225 -19 220 q -31 240 -31 231 q -24 258 -31 248 q 0 279 -18 268 l 211 403 q 278 610 243 515 q 353 780 313 704 q 442 913 394 856 q 550 1009 490 971 q 683 1067 610 1048 q 845 1086 755 1086 q 920 1079 890 1086 q 970 1056 951 1071 q 998 1021 989 1042 q 1006 977 1006 1001 q 986 911 1006 946 q 931 839 966 876 q 851 763 897 802 q 755 688 806 725 q 653 616 705 650 q 554 551 602 581 q 468 498 507 522 q 403 459 428 474 q 378 370 391 416 q 356 275 366 323 q 340 181 347 228 q 334 94 334 135 q 337 66 334 78 q 348 55 340 55 q 386 65 361 55 q 445 92 412 75 q 518 131 478 109 q 600 178 557 153 q 686 229 643 203 q 771 279 730 254 m 412 522 q 509 578 453 543 q 625 656 565 614 q 743 745 685 699 q 848 837 802 792 q 923 922 895 882 q 951 992 951 962 q 925 1033 951 1017 q 840 1048 899 1048 q 680 1015 747 1048 q 562 916 612 981 q 476 751 512 850 q 412 522 441 652 z "},"m":{"ha":1509,"x_min":-37,"x_max":1548,"o":"m 1509 279 q 1523 282 1518 282 q 1540 277 1533 282 q 1548 264 1548 273 q 1528 238 1548 254 q 1478 202 1508 221 q 1418 164 1449 183 q 1364 132 1387 146 q 1297 85 1335 113 q 1220 32 1260 58 q 1142 -12 1181 6 q 1073 -30 1104 -30 q 1026 -10 1045 -30 q 1006 54 1006 10 q 1015 116 1006 81 q 1042 199 1023 152 q 1081 296 1064 254 q 1108 368 1097 338 q 1124 417 1119 398 q 1130 448 1130 437 q 1113 471 1130 471 q 1065 449 1096 471 q 997 391 1035 427 q 919 308 960 355 q 840 212 878 262 q 773 115 803 163 q 728 27 743 66 q 718 14 725 20 q 700 2 710 7 q 679 -6 690 -3 q 656 -9 667 -9 q 625 2 638 -9 q 611 38 611 12 q 620 88 611 60 q 636 141 628 116 q 661 223 648 182 q 686 300 674 265 q 713 378 699 340 q 726 400 719 388 q 739 424 733 412 q 748 448 744 436 q 751 469 751 460 q 736 486 751 486 q 663 464 704 486 q 578 405 622 441 q 491 322 534 368 q 411 230 448 277 q 348 141 374 184 q 311 69 321 99 q 300 37 305 51 q 289 15 295 24 q 274 2 283 6 q 251 -3 265 -3 q 213 13 222 -3 q 203 54 203 29 q 210 90 203 66 q 228 145 216 114 q 252 213 239 176 q 280 285 266 249 q 307 355 294 321 q 328 416 319 389 l 0 222 q -17 218 -9 218 q -31 222 -25 218 q -37 235 -37 227 q -28 256 -37 244 q 0 279 -20 267 l 242 421 q 263 435 251 428 q 288 447 275 441 q 315 456 301 452 q 342 459 328 459 q 369 452 357 459 q 389 434 380 445 q 401 411 397 424 q 406 387 406 398 q 404 362 406 374 q 397 333 402 351 q 383 291 392 316 q 360 227 374 266 q 410 293 384 258 q 465 360 436 327 q 527 422 494 393 q 597 475 560 452 q 674 510 633 497 q 761 524 715 524 q 788 517 774 524 q 811 497 801 511 q 828 463 822 484 q 835 413 835 441 q 825 337 835 380 q 791 239 815 294 q 889 357 840 309 q 984 436 938 405 q 1073 484 1031 467 q 1149 509 1115 500 q 1189 503 1168 509 q 1227 487 1210 498 q 1255 460 1244 477 q 1266 422 1266 444 q 1265 410 1266 416 q 1263 397 1265 404 q 1240 336 1255 369 q 1210 269 1226 303 q 1176 202 1194 235 q 1145 141 1159 170 q 1123 89 1132 112 q 1114 54 1114 66 q 1126 37 1114 37 q 1158 50 1137 37 q 1207 82 1179 63 q 1267 125 1235 102 q 1333 168 1300 148 l 1509 279 z "},"n":{"ha":1191,"x_min":-28,"x_max":1220,"o":"m 820 439 q 755 425 794 439 q 671 385 717 410 q 575 325 625 359 q 477 250 525 290 q 386 164 429 209 q 311 73 343 119 q 308 58 308 70 q 304 33 308 46 q 290 10 300 20 q 254 0 279 0 q 226 4 236 0 q 211 15 216 8 q 205 32 206 22 q 203 54 203 42 q 210 90 203 66 q 228 145 217 114 q 252 212 239 176 q 280 284 266 248 q 306 354 294 320 q 328 415 319 388 l 0 222 q -6 221 -3 222 q -9 221 -8 221 q -23 226 -19 221 q -28 239 -28 231 q -21 259 -28 248 q 0 279 -14 271 q 168 378 102 339 q 274 441 234 417 q 334 476 314 465 q 364 493 354 488 q 381 500 374 498 q 399 503 389 503 q 431 491 418 503 q 444 465 444 479 q 435 426 444 451 q 413 372 426 401 q 387 313 400 343 q 363 257 373 283 q 357 240 359 247 q 352 226 355 234 q 343 205 349 218 q 328 170 338 193 q 394 247 356 207 q 478 325 433 287 q 574 398 523 363 q 680 459 625 433 q 791 500 734 485 q 905 515 848 515 q 952 501 939 515 q 966 461 966 486 q 958 412 966 441 q 938 348 951 382 q 909 275 925 314 q 874 196 892 236 q 839 117 857 157 q 805 40 821 77 q 886 81 844 56 q 976 137 928 106 q 1077 204 1023 168 q 1191 279 1130 241 q 1204 281 1196 281 q 1220 263 1220 281 q 1213 242 1220 254 q 1191 222 1205 231 q 1045 127 1110 172 q 926 46 980 81 q 828 -10 872 11 q 745 -31 783 -31 q 706 -25 722 -31 q 679 -9 690 -19 q 664 13 669 0 q 659 41 659 26 q 665 72 659 56 q 683 104 671 87 q 730 201 704 151 q 777 297 755 252 q 814 378 799 342 q 829 429 829 413 q 820 439 829 439 z "},"o":{"ha":984,"x_min":-33,"x_max":1013,"o":"m 637 551 q 706 536 675 551 q 756 493 736 520 q 788 431 777 467 q 799 354 799 395 q 793 302 799 330 q 778 243 788 273 q 753 183 768 213 q 721 128 739 153 q 752 145 734 135 q 791 167 770 155 q 834 192 812 179 q 879 217 857 205 l 984 279 q 997 281 989 281 q 1013 265 1013 281 q 984 222 1013 243 q 920 182 960 206 q 835 134 881 157 q 742 93 789 111 q 654 72 695 75 q 530 8 602 33 q 364 -16 459 -16 q 285 -7 317 -16 q 233 16 253 1 q 205 55 214 32 q 196 107 196 77 q 214 200 196 151 q 257 297 231 250 q 313 385 283 344 q 368 452 343 425 q 306 406 346 433 q 217 350 267 380 q 111 287 167 319 q 0 222 55 254 q -15 219 -8 219 q -28 224 -24 219 q -33 237 -33 229 q -25 257 -33 247 q 0 279 -18 268 q 176 383 103 339 q 301 457 248 427 q 393 506 354 488 q 469 534 433 524 q 545 548 505 545 q 637 551 584 551 m 366 43 q 449 60 408 43 q 528 109 490 78 q 516 132 519 119 q 513 158 513 144 q 528 194 513 182 q 566 205 544 205 q 610 192 589 205 q 652 229 632 208 q 686 275 671 251 q 709 326 701 300 q 718 376 718 351 q 710 416 718 397 q 685 450 702 435 q 639 472 667 464 q 571 481 611 481 q 505 463 538 481 q 442 416 472 446 q 386 349 412 387 q 340 271 359 311 q 311 193 321 231 q 300 122 300 154 q 315 65 300 87 q 366 43 331 43 z "},"p":{"ha":831,"x_min":-121,"x_max":857,"o":"m 0 279 l 359 508 q 365 515 359 508 q 380 532 370 522 q 405 555 390 543 q 438 577 419 567 q 480 594 457 587 q 532 601 504 601 q 615 593 571 601 q 697 565 660 585 q 759 507 734 544 q 784 412 784 470 q 769 348 784 384 q 726 275 753 313 q 660 198 699 237 q 575 125 621 159 l 831 279 q 841 281 836 281 q 853 275 848 281 q 857 262 857 270 q 851 241 857 252 q 831 222 844 231 q 680 137 747 172 q 559 77 613 101 q 460 40 505 54 q 376 19 416 26 q 299 9 336 12 q 222 7 262 7 q 163 -114 194 -54 q 102 -232 132 -175 q 48 -342 73 -290 q 7 -440 23 -395 q 0 -457 5 -446 q -14 -479 -6 -468 q -32 -497 -22 -490 q -50 -505 -41 -505 q -73 -503 -61 -505 q -96 -495 -85 -500 q -114 -483 -107 -490 q -121 -466 -121 -475 q -120 -461 -121 -462 q -91 -369 -113 -422 q -37 -250 -68 -315 q 32 -114 -5 -186 q 109 32 70 -42 q 183 179 147 106 q 249 319 220 252 q 260 340 253 330 q 275 362 267 351 q 291 384 283 374 q 305 402 299 394 q 264 378 294 396 q 192 335 234 360 q 101 281 151 311 q 0 222 51 252 q -7 220 -4 220 q -21 227 -15 220 q -27 243 -27 233 q -21 260 -27 251 q 0 279 -15 270 m 576 522 q 499 486 539 522 q 419 387 460 449 q 338 242 378 325 q 258 68 297 160 q 343 80 298 68 q 433 113 389 92 q 519 164 478 134 q 592 230 560 193 q 642 308 623 266 q 661 394 661 349 q 656 447 661 423 q 641 487 651 470 q 615 513 631 504 q 576 522 599 522 z "},"q":{"ha":831,"x_min":-27,"x_max":857,"o":"m 831 279 q 841 281 836 281 q 853 275 848 281 q 857 262 857 270 q 851 242 857 252 q 831 222 844 231 l 650 105 q 566 36 605 76 q 493 -50 527 -4 q 430 -147 459 -96 q 374 -249 400 -197 q 327 -349 349 -300 q 285 -442 304 -399 q 262 -463 278 -458 q 228 -469 245 -469 q 214 -468 222 -469 q 200 -465 207 -467 q 188 -457 193 -463 q 183 -444 183 -452 q 189 -415 183 -436 q 201 -370 194 -393 q 214 -326 208 -346 q 222 -300 220 -305 q 261 -213 244 -250 q 291 -151 277 -177 q 319 -105 305 -125 q 348 -67 332 -85 q 382 -27 363 -48 q 427 21 401 -7 q 350 -6 387 3 q 281 -16 313 -16 q 225 -7 250 -16 q 181 18 199 1 q 153 60 163 35 q 142 119 142 85 q 167 248 142 186 q 233 365 192 310 q 200 344 218 355 q 163 321 182 333 q 125 298 144 310 q 87 276 106 287 l 0 222 q -7 220 -4 220 q -21 227 -15 220 q -27 243 -27 233 q -21 260 -27 251 q 0 279 -15 270 q 221 409 126 353 q 381 505 315 466 q 481 557 432 539 q 572 576 530 576 q 652 547 621 576 q 683 453 683 517 q 675 390 683 431 q 650 300 667 349 q 608 198 633 250 q 550 98 583 145 l 831 279 m 539 509 q 459 492 498 509 q 386 448 420 475 q 324 385 352 420 q 276 312 296 350 q 244 237 256 275 q 233 169 233 200 q 240 122 233 143 q 260 85 246 100 q 295 60 274 69 q 344 52 315 52 q 370 56 356 52 q 397 65 383 60 q 425 75 412 70 q 451 82 439 80 q 504 196 479 140 q 546 299 528 251 q 574 388 564 348 q 584 455 584 427 q 573 495 584 481 q 539 509 563 509 z "},"r":{"ha":879,"x_min":-29,"x_max":911,"o":"m 760 489 q 754 449 760 472 q 739 401 748 427 q 718 349 729 376 q 698 298 707 323 q 682 252 688 273 q 676 215 676 230 q 682 195 676 202 q 701 187 688 187 q 727 194 710 187 q 768 214 745 201 q 820 243 791 227 q 879 279 848 260 q 892 283 886 283 q 906 277 900 283 q 911 264 911 272 q 904 245 911 255 q 879 222 897 235 q 718 121 791 157 q 602 85 645 85 q 546 96 566 85 q 526 130 526 106 q 544 184 526 151 q 606 263 563 218 q 631 322 622 290 q 645 386 641 355 q 651 443 650 416 q 652 484 652 469 q 644 524 652 510 q 616 538 635 538 q 573 518 594 538 q 532 465 553 499 q 491 385 511 431 q 449 286 471 339 q 406 174 428 232 q 359 56 383 115 q 349 33 355 45 q 335 10 342 20 q 317 -7 327 -1 q 296 -14 307 -14 q 258 -3 271 -14 q 245 35 245 9 q 246 51 245 43 q 252 70 247 59 l 383 332 q 438 442 409 399 q 492 512 468 486 q 380 446 436 479 q 273 381 325 412 q 176 323 222 351 q 94 275 130 296 q 34 240 58 254 q 0 222 9 227 q -12 219 -5 219 q -24 224 -19 219 q -29 239 -29 230 q -23 259 -29 248 q 0 280 -16 271 l 181 386 q 252 428 216 407 q 320 468 288 450 q 376 500 351 486 q 413 522 400 515 q 476 555 446 541 q 538 577 507 568 q 600 591 568 586 q 666 597 631 595 q 697 588 681 597 q 728 564 714 579 q 751 529 742 549 q 760 489 760 510 z "},"s":{"ha":656,"x_min":-31,"x_max":684,"o":"m 456 432 q 460 390 456 404 q 469 366 464 376 q 478 343 474 355 q 483 304 483 330 q 479 263 483 286 q 465 216 475 240 q 437 169 455 192 q 390 127 418 145 l 656 279 q 665 281 661 281 q 679 276 673 281 q 684 260 684 270 q 678 242 684 253 q 656 222 671 231 q 512 140 572 175 q 410 80 452 105 q 340 38 368 55 q 295 11 313 22 q 233 -16 262 -9 q 176 -22 204 -22 q 144 -15 154 -22 q 135 2 134 -7 q 145 19 135 11 q 174 26 155 26 q 239 49 208 26 q 294 111 270 72 q 333 202 318 150 q 347 313 347 254 q 351 347 347 321 q 363 401 355 372 q 384 458 371 430 q 416 500 397 486 l 0 222 q -14 218 -7 218 q -26 223 -22 218 q -31 237 -31 229 q -24 258 -31 246 q 0 279 -17 269 q 183 402 109 353 q 304 481 258 451 l 399 546 q 444 560 420 555 q 486 565 467 565 q 522 558 508 565 q 536 535 536 551 q 523 517 536 530 q 496 490 511 505 q 468 459 481 475 q 456 432 456 444 z "},"t":{"ha":749,"x_min":-28,"x_max":826,"o":"m 734 946 q 661 930 696 946 q 596 885 627 913 q 538 817 565 857 q 487 732 511 778 q 443 637 463 687 q 407 536 423 587 q 568 661 498 602 q 684 768 637 720 q 754 855 730 817 q 777 916 777 892 q 769 938 777 930 q 734 946 760 946 m 803 546 q 819 526 819 538 q 806 494 819 509 q 771 467 793 479 q 723 446 750 455 q 670 431 696 437 q 618 422 643 425 q 578 419 591 418 q 473 421 525 420 l 374 422 q 342 293 353 347 q 325 199 330 239 q 317 130 319 159 q 316 74 316 101 q 320 50 316 59 q 334 41 324 41 q 407 64 367 41 q 498 121 448 86 l 610 197 q 749 279 703 260 q 762 285 752 280 q 772 287 768 287 q 787 271 787 287 q 779 248 787 261 q 749 222 769 235 q 595 125 645 160 l 479 41 q 385 -18 428 4 q 298 -39 342 -39 q 239 -19 260 -39 q 209 31 218 1 q 197 94 199 60 q 195 155 195 128 q 200 257 195 206 q 216 355 206 308 l 109 288 l 0 222 q -7 220 -3 220 q -22 227 -15 220 q -28 243 -28 233 q -22 260 -28 250 q 0 279 -16 269 l 120 347 q 230 416 177 381 l 231 422 l 144 420 q 132 419 138 420 q 120 418 125 418 q 101 426 109 418 q 93 441 94 433 q 104 456 93 449 q 137 468 116 463 q 187 479 158 474 q 252 488 216 484 q 340 709 292 616 q 447 864 387 803 q 579 955 506 925 q 745 985 652 985 q 807 971 787 985 q 826 935 826 958 q 797 856 826 902 q 716 754 768 810 q 592 635 665 698 q 433 507 520 572 q 521 514 476 511 l 609 522 q 694 529 652 525 q 774 538 736 533 q 785 544 781 540 q 796 547 788 547 q 803 546 799 547 z "},"u":{"ha":1189,"x_min":-34,"x_max":1219,"o":"m 375 17 q 441 38 401 20 q 527 85 480 56 q 625 152 574 114 q 727 233 676 190 q 826 324 778 277 q 913 419 873 372 q 917 434 916 423 q 922 455 918 444 q 936 475 926 467 q 966 484 946 484 q 994 479 983 484 q 1009 468 1004 475 q 1015 451 1014 461 q 1017 429 1017 441 q 1011 396 1017 417 q 996 347 1005 374 q 974 288 986 319 q 949 223 962 256 q 925 160 937 191 q 904 102 913 128 q 930 117 913 106 q 969 140 947 127 q 1016 170 991 154 q 1065 201 1040 185 l 1189 279 q 1199 281 1194 281 q 1213 276 1206 281 q 1219 261 1219 270 q 1212 242 1219 252 q 1189 222 1204 232 l 869 35 q 858 24 863 31 q 847 10 853 17 q 831 -2 840 3 q 808 -7 822 -7 q 785 0 794 -7 q 777 20 777 7 q 784 60 777 35 q 804 116 792 85 q 831 179 816 146 q 861 243 846 212 q 888 303 876 275 q 908 351 901 331 q 840 272 879 315 q 753 187 800 229 q 653 105 706 144 q 544 35 600 65 q 430 -14 488 5 q 315 -32 372 -32 q 271 -15 283 -32 q 258 32 258 3 q 267 94 258 58 q 290 171 276 130 q 322 254 304 212 q 358 336 340 297 q 390 410 375 376 q 415 467 406 444 q 339 425 383 450 q 243 368 296 399 q 129 299 190 336 q 0 222 67 262 q -14 218 -7 218 q -28 224 -22 218 q -34 238 -34 229 q -26 257 -34 246 q 0 279 -18 267 q 163 374 86 331 q 303 449 241 418 q 411 497 366 479 q 475 514 455 514 q 532 498 515 514 q 549 453 549 481 q 534 386 549 424 q 498 306 519 347 q 451 222 476 264 q 404 143 426 180 q 368 77 382 106 q 353 32 353 47 q 369 16 353 16 q 375 17 374 16 z "},"v":{"ha":690,"x_min":-31,"x_max":721,"o":"m 429 72 q 391 64 405 64 q 350 19 372 39 q 301 -16 328 -1 q 243 -37 275 -30 q 172 -45 212 -45 q 147 -27 157 -45 q 129 17 136 -10 q 116 79 121 45 q 108 146 111 113 q 104 210 105 180 q 103 259 103 240 q 103 276 103 269 q 104 283 103 282 l 0 222 q -14 218 -8 218 q -31 237 -31 218 q -24 258 -31 247 q 0 279 -17 269 l 105 340 q 114 414 108 375 q 133 486 121 453 q 163 542 144 519 q 210 564 182 564 q 235 561 225 564 q 251 551 245 558 q 259 530 257 544 q 261 496 261 517 q 259 430 261 467 q 254 353 257 393 q 247 271 251 313 q 240 191 243 229 q 235 119 237 153 q 233 62 233 86 q 235 31 233 43 q 241 20 236 20 q 270 42 251 20 q 320 108 290 64 q 310 133 313 120 q 307 158 307 146 q 323 193 307 182 q 360 205 338 205 q 382 202 374 205 q 472 346 422 266 q 583 528 522 426 l 673 539 l 533 304 q 484 217 506 259 q 439 138 461 176 q 441 119 441 129 q 452 126 441 119 q 480 143 463 132 q 520 169 498 155 q 566 198 543 183 l 690 279 q 703 283 697 283 q 716 277 711 283 q 721 264 721 272 q 714 244 721 254 q 690 222 707 233 q 658 201 678 214 q 614 174 638 189 q 564 143 590 159 q 512 113 537 127 q 466 88 488 99 q 429 72 444 77 z "},"w":{"ha":1615,"x_min":-35,"x_max":1643,"o":"m 1036 73 q 1049 85 1038 73 q 1076 116 1059 96 q 1113 160 1093 135 q 1155 212 1134 185 q 1198 266 1177 239 q 1237 316 1219 293 q 1235 334 1236 326 q 1234 353 1234 343 q 1252 442 1234 404 q 1296 507 1270 481 q 1353 547 1322 533 q 1408 560 1383 560 q 1457 546 1442 560 q 1471 508 1471 532 q 1459 454 1471 484 q 1429 389 1448 423 q 1384 317 1409 354 q 1331 245 1358 281 q 1374 199 1350 217 q 1426 181 1398 181 q 1472 195 1448 181 l 1615 279 q 1625 281 1620 281 q 1637 276 1632 281 q 1643 260 1643 270 q 1636 241 1643 252 q 1615 222 1630 231 l 1514 163 q 1465 141 1489 148 q 1419 135 1441 135 q 1349 152 1381 135 q 1293 197 1317 168 q 1258 155 1278 178 q 1214 108 1238 132 q 1163 61 1190 84 q 1109 21 1137 39 q 1053 -6 1081 4 q 996 -17 1024 -17 q 944 0 964 -17 q 911 48 923 18 q 894 119 899 78 q 889 208 889 160 q 896 349 889 276 q 910 494 903 422 q 872 472 894 494 q 826 415 851 450 q 772 335 801 380 q 711 242 743 290 q 645 150 680 195 q 574 70 610 105 q 498 13 537 35 q 420 -9 460 -9 q 390 2 402 -9 q 369 32 377 13 q 358 77 361 51 q 355 133 355 103 q 361 232 355 180 q 376 330 368 283 q 392 412 384 376 q 403 463 399 448 q 351 430 380 448 q 290 392 322 412 q 223 353 258 373 q 157 314 189 333 l 0 222 q -11 218 -5 219 q -20 216 -16 216 q -35 233 -35 216 q -27 255 -35 242 q 0 279 -20 267 l 406 519 q 422 528 408 520 q 458 546 437 536 q 503 563 479 555 q 547 571 527 571 q 562 562 554 567 q 577 550 570 557 q 588 535 583 543 q 592 516 592 526 q 592 512 592 514 q 591 507 592 509 l 519 105 l 605 205 q 664 279 634 239 q 727 361 694 320 q 793 442 759 403 q 865 511 827 481 q 942 559 902 541 q 1027 578 983 578 q 1062 571 1053 578 q 1072 553 1072 565 q 1066 528 1072 543 q 1052 495 1060 513 q 1037 456 1044 477 q 1028 414 1030 435 q 1024 369 1027 397 q 1018 308 1021 341 q 1013 240 1015 275 q 1010 174 1010 205 q 1012 134 1010 153 q 1016 102 1013 116 q 1024 81 1019 89 q 1036 73 1029 73 m 1291 400 q 1290 392 1290 396 q 1289 382 1289 387 q 1318 429 1310 411 q 1326 454 1326 446 q 1322 460 1326 460 q 1307 446 1317 460 q 1291 400 1297 431 z "},"x":{"ha":1190,"x_min":-22,"x_max":1221,"o":"m 1190 279 q 1200 281 1195 281 q 1215 276 1209 281 q 1221 260 1221 270 q 1215 242 1221 252 q 1190 222 1208 232 q 1106 171 1139 192 q 1049 135 1072 151 q 1007 108 1025 120 q 970 83 989 96 q 925 55 951 71 q 861 16 900 39 q 784 -21 824 -9 q 706 -33 745 -33 q 637 -22 670 -33 q 575 11 604 -12 q 526 67 547 33 q 494 146 505 100 q 393 78 443 110 q 295 22 342 45 q 204 -16 248 -2 q 122 -29 160 -29 q 42 2 73 -29 q 11 102 11 34 q 17 166 11 130 q 37 244 23 201 l 0 222 q -8 220 -5 220 q -18 225 -14 220 q -22 239 -22 231 q -10 263 -22 249 q 20 291 2 278 q 59 314 38 304 q 100 323 81 323 q 140 306 123 323 q 156 244 156 288 q 144 206 156 226 q 117 166 132 186 q 90 125 102 146 q 78 85 78 105 q 106 55 78 55 q 171 72 131 55 q 260 117 212 89 q 360 183 308 146 q 463 260 413 220 q 468 318 468 289 q 469 379 469 347 q 473 448 470 412 q 488 529 477 485 q 499 557 490 548 q 528 567 508 567 q 538 563 533 567 q 548 553 544 559 q 555 542 552 547 q 557 533 557 536 q 554 487 556 507 q 550 449 552 467 q 546 413 548 431 q 545 372 545 395 q 545 341 545 358 q 547 305 546 325 q 611 353 576 326 q 684 408 646 379 q 761 466 722 436 q 838 523 800 495 q 847 528 840 524 q 862 537 854 532 q 877 545 870 541 q 886 548 884 548 q 922 512 922 548 q 917 491 922 499 q 901 475 911 483 q 821 415 863 448 q 736 349 779 383 q 651 280 693 315 q 573 210 610 245 q 637 87 597 130 q 732 45 677 45 q 781 53 755 45 q 833 77 806 60 q 899 115 872 100 q 948 143 926 131 q 990 168 970 156 q 1038 195 1011 180 q 1100 230 1064 210 q 1190 279 1137 250 z "},"y":{"ha":1171,"x_min":-35,"x_max":1200,"o":"m 1171 222 q 1098 179 1133 200 q 1026 134 1062 157 q 952 83 990 110 q 873 22 915 56 q 800 -161 840 -66 q 716 -345 760 -255 q 625 -515 673 -435 q 528 -656 578 -595 q 427 -752 478 -716 q 325 -787 376 -787 q 281 -781 299 -787 q 250 -765 262 -775 q 232 -742 238 -755 q 227 -717 227 -730 q 238 -660 227 -697 q 275 -571 250 -622 q 342 -457 301 -520 q 441 -322 383 -394 q 577 -173 500 -251 q 752 -14 654 -95 q 819 140 791 78 q 866 244 847 203 q 895 310 884 286 q 912 351 906 335 q 844 272 884 315 q 758 186 805 229 q 657 104 711 144 q 548 35 604 65 q 434 -14 492 5 q 319 -32 376 -32 q 275 -15 287 -32 q 262 32 262 3 q 272 95 262 58 q 295 172 281 131 q 327 256 309 213 q 363 339 345 299 q 396 413 380 379 q 420 470 411 447 q 343 423 390 450 q 241 363 297 395 q 124 295 186 331 q 0 222 62 259 q -17 217 -9 217 q -30 222 -25 217 q -35 235 -35 227 q -27 256 -35 245 q 0 279 -20 267 q 156 371 89 331 q 272 439 222 410 q 356 488 321 469 q 415 519 391 508 q 456 536 439 531 q 486 541 472 541 q 519 533 506 541 q 539 511 532 524 q 550 483 547 498 q 553 453 553 467 q 538 386 553 424 q 502 306 524 347 q 455 222 480 264 q 408 143 430 180 q 372 77 387 106 q 357 32 357 47 q 373 16 357 16 q 436 33 397 16 q 523 78 475 50 q 623 146 570 107 q 728 230 676 185 q 829 323 781 275 q 917 419 878 371 q 921 434 920 423 q 926 455 922 444 q 940 475 930 467 q 970 484 950 484 q 998 479 987 484 q 1013 468 1008 475 q 1019 451 1018 461 q 1021 429 1021 441 q 1020 431 1021 431 q 1010 406 1019 431 q 986 337 1001 381 q 951 234 972 294 q 905 104 930 174 q 1032 192 966 149 q 1171 279 1097 235 q 1179 281 1175 281 q 1193 275 1187 281 q 1200 259 1200 269 q 1193 241 1200 251 q 1171 222 1187 232 m 563 -268 q 515 -330 540 -292 q 465 -412 490 -368 q 418 -502 441 -456 q 379 -587 396 -547 q 353 -658 363 -627 q 343 -703 343 -689 q 358 -718 343 -718 q 396 -702 376 -718 q 437 -657 416 -685 q 481 -592 458 -629 q 526 -513 503 -555 q 570 -429 548 -472 q 612 -347 592 -386 q 660 -231 638 -285 q 703 -130 682 -178 q 563 -268 639 -190 z "},"z":{"ha":808,"x_min":-165,"x_max":838,"o":"m 0 222 q -12 219 -9 219 q -27 224 -21 219 q -34 239 -34 229 q -27 257 -34 246 q 0 279 -20 267 l 317 465 q 323 477 321 471 q 326 488 326 484 q 340 534 331 513 q 359 571 349 555 q 378 597 369 587 q 393 610 387 607 q 414 617 401 617 q 432 610 425 617 q 440 593 440 604 q 433 572 440 583 q 427 565 431 569 q 420 553 424 560 q 414 535 417 546 q 412 510 412 525 q 412 495 412 501 q 413 482 413 490 q 424 470 413 481 q 452 441 435 459 q 488 398 469 422 q 524 347 507 374 q 552 293 541 320 q 563 240 563 265 q 551 201 563 219 q 513 169 540 182 q 442 148 486 156 q 333 140 398 140 l 315 140 q 403 100 370 118 q 458 66 436 82 l 808 279 q 816 281 810 281 q 831 275 823 281 q 838 259 838 269 q 831 242 838 252 q 808 222 825 233 l 486 30 q 532 -93 517 -23 q 547 -243 547 -163 q 533 -404 547 -321 q 493 -565 519 -487 q 429 -713 467 -644 q 341 -836 391 -783 q 233 -918 292 -888 q 106 -949 174 -949 q -4 -932 46 -949 q -90 -882 -54 -915 q -145 -802 -125 -850 q -165 -693 -165 -755 q -137 -535 -165 -610 q -63 -392 -109 -460 q 43 -265 -16 -325 q 166 -153 103 -205 q 292 -55 230 -100 q 407 31 355 -9 q 382 57 397 43 q 346 81 368 70 q 296 99 324 92 q 230 111 267 107 q 182 113 208 113 q 136 116 157 113 q 101 125 115 118 q 87 148 87 132 q 102 172 87 161 q 149 182 117 182 q 153 182 151 182 q 217 179 177 182 q 302 176 258 176 q 358 179 330 176 q 408 191 387 182 q 444 216 430 200 q 457 256 457 231 q 437 331 457 287 q 367 438 417 374 l 0 222 m -17 -665 q -19 -708 -19 -684 q -15 -769 -19 -737 q 2 -827 -10 -800 q 37 -870 15 -853 q 95 -887 59 -887 q 198 -850 150 -887 q 286 -753 246 -814 q 358 -614 326 -692 q 411 -452 389 -535 q 444 -286 433 -368 q 456 -135 456 -203 q 453 -66 456 -98 q 442 -11 450 -35 q 362 -76 408 -37 q 267 -164 316 -115 q 170 -271 218 -213 q 82 -394 121 -330 q 16 -526 43 -458 q -17 -665 -11 -595 z "},"{":{"ha":767,"x_min":19,"x_max":749,"o":"m 186 629 q 247 609 214 625 q 308 569 279 594 q 356 508 336 543 q 375 427 375 472 q 365 317 375 371 q 341 216 354 263 q 318 131 329 169 q 308 67 308 92 q 317 -4 308 24 q 344 -48 326 -32 q 390 -71 362 -64 q 454 -77 417 -77 q 485 -85 474 -77 q 496 -104 496 -94 q 477 -129 496 -117 q 414 -141 458 -141 q 307 -123 349 -141 q 241 -73 265 -105 q 207 3 216 -41 q 197 99 197 47 q 203 172 197 134 q 216 251 209 211 q 229 332 223 292 q 235 412 235 373 q 189 551 235 500 q 41 620 142 603 q 24 628 29 623 q 19 639 19 633 q 47 659 19 655 q 137 674 99 662 q 202 703 175 686 q 247 744 229 721 q 278 792 265 767 q 299 845 291 818 q 316 899 308 873 q 370 1072 337 996 q 450 1200 404 1147 q 557 1280 496 1253 q 694 1308 618 1308 q 737 1299 724 1308 q 749 1280 749 1291 q 739 1261 749 1270 q 713 1253 729 1253 q 630 1229 665 1253 q 569 1164 595 1204 q 520 1072 542 1124 q 477 965 498 1020 q 430 854 455 909 q 371 753 405 800 q 293 674 338 707 q 186 629 248 641 z "},"|":{"ha":314,"x_min":20,"x_max":294,"o":"m 247 1006 l 144 178 l 95 -218 q 90 -236 94 -227 q 78 -250 85 -244 q 64 -260 72 -256 q 49 -263 56 -263 q 28 -253 37 -263 q 20 -218 20 -243 q 23 -173 20 -216 q 33 -58 26 -130 q 50 111 40 14 q 71 319 59 208 q 88 473 81 412 q 100 572 95 533 q 109 636 105 612 q 115 682 112 661 q 121 727 118 703 q 130 789 125 751 q 142 886 135 827 q 159 1036 149 945 q 168 1119 162 1068 q 180 1226 173 1169 q 195 1340 186 1282 q 212 1443 203 1397 q 232 1518 222 1489 q 254 1547 243 1547 q 275 1542 267 1547 q 288 1529 283 1537 q 293 1513 292 1522 q 294 1495 294 1503 q 291 1436 294 1476 q 282 1344 288 1395 q 272 1237 277 1293 q 260 1133 266 1181 q 251 1050 255 1085 q 247 1006 248 1016 z "},"}":{"ha":728,"x_min":13,"x_max":703,"o":"m 340 370 q 371 439 351 411 q 417 487 391 468 q 471 518 442 506 q 528 538 500 530 q 484 553 508 541 q 438 586 459 565 q 402 635 416 606 q 387 699 387 663 q 398 814 387 758 q 421 921 408 871 q 444 1011 433 970 q 454 1080 454 1053 q 448 1160 454 1128 q 428 1211 441 1192 q 395 1237 415 1230 q 349 1244 376 1244 q 318 1253 329 1244 q 307 1271 307 1261 q 326 1296 307 1284 q 389 1308 345 1308 q 475 1289 441 1308 q 529 1235 509 1270 q 557 1153 549 1200 q 566 1048 566 1105 q 559 960 566 1003 q 546 875 553 917 q 532 791 538 833 q 526 707 526 749 q 533 653 526 679 q 558 606 541 627 q 605 571 575 585 q 679 551 634 556 q 698 544 692 549 q 703 534 703 539 q 696 520 703 526 q 677 512 689 515 q 576 478 616 503 q 510 421 536 454 q 471 348 485 388 q 446 268 456 309 q 389 96 422 172 q 310 -33 356 20 q 205 -113 264 -85 q 68 -141 145 -141 q 25 -132 38 -141 q 13 -113 13 -123 q 23 -94 13 -102 q 49 -85 33 -85 q 145 -55 104 -85 q 221 33 187 -25 q 283 176 255 91 q 340 370 312 260 z "},"~":{"ha":879,"x_min":165,"x_max":682,"o":"m 225 137 q 217 120 225 125 q 199 115 209 115 q 165 153 165 115 q 174 208 165 184 q 199 248 184 232 q 234 273 215 264 q 274 281 254 281 q 344 270 306 281 q 421 244 382 258 q 500 218 461 230 q 574 207 540 207 q 596 211 588 207 q 610 235 604 216 q 621 253 613 248 q 638 259 629 259 q 668 245 654 259 q 682 207 682 232 q 673 171 682 187 q 648 143 663 155 q 614 125 633 132 q 579 119 596 119 q 546 121 563 119 q 511 126 528 123 q 478 133 494 130 q 451 140 463 137 q 396 156 422 148 q 347 170 370 163 q 305 180 324 176 q 271 184 286 184 q 237 173 249 184 q 225 137 225 163 z "},"":{"ha":407,"x_min":0,"x_max":0,"o":""},"":{"ha":497,"x_min":17,"x_max":490,"o":"m 159 114 q 113 8 138 39 q 58 -24 87 -24 q 34 -19 42 -24 q 22 -3 26 -14 q 18 25 18 8 q 17 64 17 41 q 28 119 17 79 q 60 214 40 159 q 105 334 79 269 q 159 466 131 399 q 196 549 176 505 q 236 638 216 593 q 276 727 256 683 q 313 810 296 771 q 321 822 316 818 q 332 826 327 826 q 342 813 342 826 q 342 809 342 811 q 341 805 342 808 l 268 523 q 237 407 253 466 q 208 293 222 348 q 181 192 193 239 q 159 114 168 146 m 445 1088 q 479 1071 469 1088 q 490 1032 490 1054 q 484 995 490 1014 q 467 960 478 975 q 440 934 456 944 q 404 924 424 924 q 370 929 384 924 q 347 943 355 935 q 334 964 338 952 q 330 987 330 975 q 341 1027 330 1008 q 368 1059 351 1045 q 405 1080 385 1072 q 445 1088 425 1088 z "},"":{"ha":916,"x_min":20,"x_max":902,"o":"m 704 670 q 695 651 699 658 q 687 641 690 645 q 680 634 684 637 q 674 626 677 631 q 659 599 668 615 q 640 564 650 583 q 617 524 629 545 q 593 482 606 503 q 639 439 623 469 q 655 361 655 410 q 646 296 655 318 q 605 273 636 273 q 579 284 593 273 q 566 317 566 294 q 563 370 566 347 q 555 409 560 392 q 539 378 546 391 q 523 349 532 365 q 502 310 514 333 q 468 252 489 288 q 418 162 448 216 q 345 31 388 109 q 373 18 357 22 q 410 14 389 14 q 461 27 429 14 q 532 63 492 41 q 618 113 572 85 q 712 171 664 141 q 809 228 760 200 q 902 279 857 256 l 902 222 q 842 185 880 209 q 757 132 804 161 q 658 74 710 104 q 555 20 606 44 q 458 -19 505 -4 q 378 -35 412 -35 q 344 -32 360 -35 q 313 -26 328 -30 q 274 -97 292 -63 q 240 -159 255 -131 q 216 -208 226 -187 q 201 -238 205 -228 q 186 -255 197 -249 q 166 -262 176 -262 q 155 -258 159 -262 q 150 -245 150 -254 q 152 -235 150 -241 q 158 -220 153 -229 l 273 -7 q 237 24 252 5 q 212 64 222 42 q 198 111 203 86 q 194 160 194 135 q 200 222 194 191 q 217 281 206 253 q 244 334 229 310 q 278 374 259 358 l 20 222 l 20 279 q 160 361 89 322 q 297 430 231 401 q 422 477 363 460 q 528 494 481 494 q 535 494 532 494 q 543 494 539 494 q 591 580 565 535 q 640 663 616 625 q 683 725 664 701 q 711 749 702 749 q 720 745 716 749 q 724 733 724 741 q 719 710 724 726 q 704 670 715 694 m 520 454 q 508 456 514 456 q 466 440 488 456 q 420 398 444 425 q 376 338 397 372 q 339 268 355 304 q 313 193 323 231 q 303 123 303 155 q 306 93 303 107 q 313 67 308 79 l 476 370 q 493 405 483 385 q 520 454 504 425 z "},"":{"ha":1760,"x_min":16,"x_max":1685,"o":"m 342 -168 q 463 -149 407 -168 q 566 -96 518 -130 q 656 -15 614 -62 q 734 88 697 32 q 627 162 681 129 q 518 218 574 195 q 405 254 463 241 q 288 267 348 267 q 218 250 248 267 q 168 205 188 233 q 137 142 147 178 q 126 67 126 106 q 139 -18 126 24 q 179 -94 153 -60 q 246 -148 205 -127 q 342 -168 287 -168 m 1404 1104 q 1348 1076 1375 1104 q 1294 999 1320 1048 q 1239 882 1267 949 q 1182 738 1212 815 q 1294 811 1248 768 q 1370 900 1341 854 q 1413 988 1400 945 q 1427 1061 1427 1031 q 1421 1092 1427 1080 q 1404 1104 1415 1104 m 766 141 q 834 273 805 209 q 887 392 863 337 q 644 414 747 404 q 463 433 541 423 q 451 438 458 435 q 437 444 444 441 q 425 452 430 448 q 420 464 420 456 q 437 474 420 470 q 485 481 454 479 q 560 485 516 484 q 658 486 604 486 q 787 485 720 486 q 924 481 854 484 l 975 608 q 919 610 952 608 q 847 616 885 612 q 772 629 810 621 q 703 647 734 636 q 654 673 673 659 q 635 707 635 688 q 644 738 635 724 q 666 751 654 751 q 672 750 665 751 q 828 707 758 720 q 963 694 899 694 q 1011 696 987 694 q 1090 863 1049 785 q 1178 1000 1131 941 q 1282 1093 1225 1059 q 1407 1126 1338 1126 q 1470 1102 1450 1126 q 1491 1038 1491 1078 q 1479 970 1491 1007 q 1447 895 1468 934 q 1396 818 1426 857 q 1326 744 1365 779 q 1241 681 1288 709 q 1142 634 1195 652 q 1112 556 1127 595 q 1079 477 1096 517 q 1184 473 1134 475 q 1274 470 1234 471 q 1345 468 1315 469 q 1390 467 1375 467 q 1416 468 1397 467 q 1459 469 1434 468 q 1512 470 1484 469 q 1568 472 1541 471 q 1617 473 1594 473 q 1653 473 1640 473 q 1680 458 1680 473 q 1662 431 1680 447 q 1608 399 1644 414 q 1520 374 1573 385 q 1397 363 1467 363 q 1319 365 1361 363 q 1231 368 1277 366 q 1136 373 1185 370 q 1036 380 1086 376 q 1026 356 1035 374 q 1004 311 1018 338 q 973 253 991 285 q 935 188 955 221 q 895 123 916 155 q 854 64 874 91 q 927 4 889 37 q 1004 -62 964 -29 q 1085 -126 1044 -95 q 1170 -180 1126 -157 q 1256 -218 1213 -203 q 1345 -232 1300 -232 q 1412 -223 1379 -232 q 1479 -193 1444 -214 q 1599 -124 1553 -148 q 1668 -100 1646 -100 q 1685 -113 1685 -100 q 1646 -176 1685 -132 q 1522 -283 1608 -220 q 1442 -327 1482 -314 q 1364 -339 1403 -339 q 1265 -321 1314 -339 q 1169 -275 1217 -304 q 1075 -209 1121 -246 q 984 -132 1029 -172 q 898 -53 940 -92 q 817 18 856 -14 q 721 -78 772 -35 q 612 -154 670 -122 q 489 -202 554 -185 q 349 -220 423 -220 q 201 -195 264 -220 q 97 -131 138 -171 q 36 -40 56 -91 q 16 64 16 12 q 35 167 16 117 q 90 256 54 217 q 181 319 127 295 q 306 342 235 342 q 381 333 340 342 q 466 307 422 323 q 553 269 509 290 q 636 226 596 248 q 709 181 675 203 q 766 141 743 159 z "},"":{"ha":879,"x_min":79,"x_max":800,"o":"m 571 740 q 599 733 585 736 q 625 724 612 729 q 672 803 655 775 q 700 845 689 831 q 717 861 710 858 q 736 863 724 863 q 757 859 751 863 q 764 844 764 855 q 761 827 764 836 q 755 810 758 819 q 748 796 751 802 q 742 786 744 789 l 683 697 q 772 609 745 661 q 800 500 800 558 q 782 404 800 452 q 734 311 765 355 q 659 230 703 267 q 562 170 614 193 q 570 150 564 163 q 583 122 576 138 q 595 89 590 106 q 602 55 601 71 q 601 50 602 53 q 596 42 599 46 q 590 36 593 39 q 585 34 587 34 q 554 60 576 34 q 503 149 532 85 q 453 139 479 142 q 402 136 428 136 q 319 144 361 136 q 242 167 277 153 q 193 98 212 124 q 160 58 173 73 q 140 39 147 44 q 130 35 134 35 q 122 37 127 35 q 114 44 118 40 q 107 52 110 48 q 104 60 104 56 q 115 90 104 71 q 138 129 125 109 q 165 168 151 149 q 185 196 178 186 q 103 281 128 233 q 79 384 79 329 q 94 471 79 427 q 136 556 109 515 q 201 632 163 597 q 285 694 239 668 l 256 758 q 248 781 252 765 q 243 812 243 797 q 247 828 243 822 q 260 834 250 834 q 287 826 276 834 q 305 803 297 818 q 321 768 313 789 q 339 720 329 747 q 410 742 374 734 q 486 749 447 749 q 527 747 506 749 q 571 740 548 745 m 661 528 q 651 608 661 575 q 625 661 642 640 q 585 692 608 682 q 536 701 562 701 q 463 687 501 701 q 388 648 425 673 q 317 589 351 623 q 257 516 283 555 q 215 434 231 477 q 200 349 200 392 q 210 276 200 307 q 236 227 219 246 q 276 199 253 208 q 326 190 299 190 q 398 203 360 190 q 473 239 436 216 q 545 294 511 262 q 604 364 578 326 q 645 443 630 401 q 661 528 661 485 z "},"":{"ha":1563,"x_min":68,"x_max":1533,"o":"m 545 -218 q 531 -206 534 -211 q 527 -189 527 -201 q 541 -177 527 -182 q 578 -170 555 -172 q 630 -166 601 -168 q 690 -165 659 -165 q 774 -167 723 -165 q 884 -170 825 -168 l 919 -100 q 885 -99 899 -99 q 861 -98 870 -98 q 839 -98 854 -98 q 806 -97 825 -98 q 766 -95 787 -96 q 726 -91 745 -93 q 692 -84 707 -88 q 669 -75 677 -81 q 654 -71 664 -72 q 635 -69 645 -70 q 619 -66 626 -68 q 612 -58 612 -64 q 626 -46 612 -51 q 661 -39 639 -42 q 709 -36 682 -37 q 765 -35 736 -35 q 844 -36 796 -35 q 948 -39 891 -37 q 1022 109 987 40 q 1085 229 1057 178 q 969 153 1033 185 q 844 100 906 121 q 729 69 783 79 q 643 59 675 59 q 553 83 591 59 q 494 158 515 106 q 491 175 491 163 q 509 237 491 200 q 553 317 526 273 q 610 409 579 361 q 667 505 641 457 q 711 599 694 553 q 729 682 729 644 q 710 769 729 730 q 659 834 691 807 q 583 876 626 861 q 493 890 541 890 q 403 877 449 890 q 314 835 357 863 q 232 763 271 807 q 166 659 194 720 q 121 519 138 598 q 104 342 104 441 q 107 280 104 312 q 118 214 110 248 l 89 220 q 73 311 78 267 q 68 395 68 354 q 83 578 68 497 q 124 720 98 659 q 185 824 150 781 q 261 895 220 867 q 347 934 302 922 q 437 947 392 947 q 520 937 479 947 q 598 909 562 927 q 667 867 635 892 q 721 812 698 842 q 756 748 743 782 q 769 677 769 713 q 757 592 769 637 q 726 500 745 547 q 686 409 707 454 q 645 323 664 363 q 614 251 627 283 q 602 197 602 218 q 617 168 602 179 q 654 152 633 157 q 697 144 675 146 q 735 142 720 142 q 868 170 802 142 q 998 243 935 197 q 1120 347 1061 289 q 1231 467 1179 406 q 1327 586 1283 528 q 1404 690 1371 644 q 1459 764 1438 736 q 1487 791 1480 791 q 1510 792 1501 791 q 1525 793 1520 793 q 1533 790 1533 793 q 1525 774 1533 786 q 1487 715 1502 740 q 1460 669 1472 690 q 1438 632 1448 649 q 1416 596 1428 614 q 1314 432 1362 513 q 1224 270 1267 351 q 1142 111 1181 190 q 1065 -44 1103 33 q 1199 -50 1134 -47 q 1317 -56 1265 -53 q 1432 -62 1378 -58 q 1457 -72 1445 -63 q 1468 -90 1468 -81 q 1449 -104 1468 -101 q 1389 -107 1430 -107 q 1326 -106 1361 -107 q 1251 -104 1291 -105 q 1167 -101 1211 -102 q 1079 -100 1124 -100 l 1038 -100 l 1002 -174 q 1100 -178 1051 -176 q 1193 -182 1149 -180 q 1276 -186 1238 -184 q 1342 -190 1314 -189 q 1386 -193 1370 -191 l 1402 -193 q 1428 -204 1415 -195 q 1440 -223 1440 -214 q 1424 -237 1440 -232 q 1380 -243 1409 -241 q 1310 -246 1352 -245 q 1214 -246 1267 -246 q 1099 -246 1159 -246 q 982 -245 1040 -245 l 967 -245 q 943 -293 957 -266 q 917 -345 930 -320 l 886 -404 l 932 -385 l 952 -441 l 853 -490 q 819 -577 841 -535 q 770 -655 798 -618 q 712 -720 743 -691 q 648 -770 680 -749 q 586 -803 616 -791 q 529 -814 555 -814 q 473 -792 494 -814 q 451 -718 451 -769 q 472 -616 451 -659 q 533 -541 493 -573 q 630 -483 573 -508 q 760 -433 688 -457 l 848 -245 q 788 -244 814 -245 q 749 -243 763 -243 q 728 -243 743 -243 q 692 -242 712 -243 q 649 -239 671 -241 q 606 -235 626 -238 q 569 -229 585 -233 q 545 -218 553 -224 m 557 -747 q 599 -726 575 -747 q 648 -672 623 -705 q 694 -598 672 -639 q 730 -520 716 -558 q 644 -553 682 -536 q 578 -588 606 -570 q 537 -627 551 -606 q 522 -673 522 -648 q 523 -696 522 -683 q 528 -720 524 -709 q 538 -739 532 -731 q 557 -747 545 -747 z "},"":{"ha":278,"x_min":54,"x_max":323,"o":"m 100 319 q 110 416 104 367 q 124 505 116 465 q 144 570 132 545 q 172 595 155 595 q 196 590 187 595 q 208 576 204 585 q 212 556 212 567 q 213 534 213 545 q 210 469 213 505 q 201 397 206 432 q 193 332 197 361 q 187 290 189 303 q 161 75 172 163 q 144 -74 151 -14 q 134 -167 138 -133 q 130 -218 131 -201 q 124 -236 129 -228 q 113 -250 119 -244 q 99 -260 106 -256 q 83 -263 91 -263 q 63 -253 71 -263 q 54 -218 54 -243 q 60 -116 56 -171 q 69 5 63 -60 q 82 149 75 71 q 100 319 90 227 m 187 1036 q 196 1119 191 1068 q 208 1226 201 1169 q 223 1340 215 1282 q 241 1443 231 1397 q 261 1518 250 1489 q 283 1547 271 1547 q 304 1542 296 1547 q 316 1529 312 1537 q 321 1513 320 1522 q 323 1495 323 1503 q 320 1436 323 1476 q 312 1344 317 1395 q 301 1237 307 1293 q 290 1133 295 1181 q 281 1050 285 1085 q 275 1006 277 1016 q 262 900 268 943 q 253 828 257 856 q 247 784 250 800 q 243 761 245 768 q 242 751 242 753 q 241 748 241 749 q 240 745 241 747 q 239 734 240 743 q 234 715 239 724 q 222 701 229 707 q 208 692 216 695 q 193 688 200 688 q 170 701 177 688 q 162 747 162 714 q 163 774 162 755 q 166 827 164 793 q 174 912 169 861 q 187 1036 179 963 z "},"":{"ha":671,"x_min":28,"x_max":642,"o":"m 408 217 l 411 208 q 415 183 415 195 q 417 160 416 172 q 404 97 417 126 q 369 45 391 68 q 319 3 347 21 q 259 -26 290 -14 q 195 -45 227 -39 q 134 -51 163 -51 q 92 -47 112 -51 q 58 -36 73 -43 q 36 -16 44 -28 q 28 12 28 -4 q 31 42 28 31 q 41 59 35 53 q 58 67 48 65 q 82 70 68 70 q 111 62 98 70 q 125 35 125 54 q 123 26 125 29 q 120 19 122 22 q 117 12 118 16 q 115 -1 115 7 q 119 -11 115 -7 q 134 -14 123 -14 q 197 -5 164 -14 q 257 23 229 5 q 302 71 284 42 q 319 137 319 99 q 310 186 319 166 q 285 221 300 206 q 253 251 270 237 q 220 281 235 264 q 196 320 205 298 q 186 375 186 342 q 190 402 186 387 q 203 436 193 418 q 229 472 213 454 q 271 507 245 490 q 257 541 262 524 q 252 576 252 558 q 280 667 252 627 q 351 733 309 706 q 443 773 393 760 q 536 787 492 787 q 577 784 558 787 q 611 772 597 780 q 633 752 625 764 q 642 724 642 741 q 629 674 642 688 q 588 660 616 660 q 558 668 572 660 q 545 694 545 675 q 547 704 545 700 q 550 713 548 709 q 553 723 552 718 q 555 738 555 729 q 551 747 555 743 q 536 751 547 751 q 473 741 506 751 q 413 713 441 732 q 368 665 386 694 q 351 600 351 637 q 360 542 351 566 q 385 498 370 517 q 416 460 399 478 q 448 423 433 443 q 472 379 463 404 q 482 321 482 354 q 480 296 482 309 q 471 269 478 283 q 450 241 464 255 q 411 213 435 227 l 408 217 m 270 391 q 279 363 270 376 q 302 338 288 351 q 334 311 317 325 q 366 281 351 298 l 362 288 q 391 304 382 295 q 399 324 399 313 q 390 351 399 336 q 366 383 380 366 q 333 421 351 401 q 299 463 315 441 l 308 449 q 279 417 288 431 q 270 391 270 404 z "},"":{"ha":940,"x_min":135,"x_max":672,"o":"m 570 36 q 536 41 550 36 q 514 56 523 47 q 501 78 505 66 q 497 104 497 91 q 504 143 497 123 q 524 178 511 162 q 553 204 536 194 q 591 214 570 214 q 627 209 612 214 q 653 193 643 203 q 667 170 663 182 q 672 142 672 157 q 665 105 672 124 q 644 71 657 86 q 611 46 630 56 q 570 36 593 36 m 185 36 q 162 41 172 36 q 146 55 153 46 q 138 74 140 63 q 135 97 135 85 q 142 137 135 117 q 161 175 149 158 q 191 203 173 193 q 230 214 208 214 q 269 209 253 214 q 294 193 284 203 q 308 171 303 184 q 312 145 312 159 q 300 103 312 123 q 271 68 289 83 q 230 45 252 54 q 185 36 208 36 z "},"":{"ha":1455,"x_min":79,"x_max":1374,"o":"m 677 202 q 596 219 631 202 q 539 267 562 237 q 505 338 516 297 q 494 425 494 378 q 511 540 494 482 q 563 645 528 598 q 650 721 598 692 q 773 751 703 751 q 874 732 841 751 q 908 681 908 713 q 901 644 908 660 q 882 616 894 627 q 855 599 870 605 q 824 593 840 593 q 799 604 812 593 q 785 637 785 614 q 775 695 785 677 q 750 713 766 713 q 714 698 734 713 q 673 656 694 682 q 632 596 652 631 q 596 525 612 562 q 571 449 581 487 q 562 376 562 410 q 570 318 562 342 q 593 281 578 295 q 627 260 608 267 q 670 254 647 254 q 735 263 701 254 q 802 286 769 272 q 863 317 834 300 q 911 349 891 334 q 934 358 923 358 q 947 353 942 358 q 952 340 952 349 q 941 315 952 330 q 910 285 930 300 q 865 255 891 270 q 808 228 838 240 q 744 209 777 216 q 677 202 711 202 m 836 1247 q 1080 1204 978 1247 q 1247 1088 1181 1161 q 1343 918 1312 1015 q 1374 712 1374 821 q 1348 501 1374 609 q 1273 292 1322 393 q 1155 100 1225 191 q 998 -57 1085 10 q 808 -163 911 -124 q 589 -202 705 -202 q 354 -165 451 -202 q 196 -65 257 -129 q 106 83 134 -2 q 79 266 79 169 q 96 430 79 345 q 143 598 113 514 q 218 762 174 682 q 315 915 262 843 q 430 1048 368 987 q 557 1153 491 1109 q 694 1222 624 1198 q 836 1247 764 1247 m 836 1160 q 666 1123 746 1160 q 517 1022 585 1086 q 393 875 448 959 q 299 696 338 791 q 239 502 260 602 q 218 309 218 402 q 239 137 218 218 q 306 -4 260 56 q 422 -99 351 -64 q 592 -134 493 -134 q 777 -97 688 -134 q 942 3 865 -60 q 1082 151 1019 66 q 1190 330 1145 235 q 1259 524 1234 425 q 1283 717 1283 623 q 1258 888 1283 808 q 1179 1029 1233 969 q 1040 1125 1125 1090 q 836 1160 955 1160 z "},"":{"ha":746,"x_min":81,"x_max":682,"o":"m 522 808 q 586 804 556 808 q 636 794 615 801 q 670 779 658 788 q 682 758 682 770 q 677 753 682 754 q 667 751 673 751 q 627 752 646 751 q 587 753 607 753 q 576 718 583 741 q 561 672 568 695 q 549 632 554 650 q 544 611 544 614 q 539 588 544 604 q 529 551 535 573 q 516 500 523 528 q 504 438 509 471 q 511 444 504 438 q 535 460 519 448 q 578 493 551 473 q 644 542 604 513 q 659 547 652 547 q 669 542 666 547 q 673 531 673 538 q 666 511 673 522 q 644 490 659 500 l 469 366 q 434 353 448 353 q 408 371 416 353 q 400 421 400 389 q 416 543 400 469 q 381 455 403 493 q 332 393 359 418 q 275 356 305 368 q 214 343 244 343 q 162 352 186 343 q 120 378 138 361 q 91 420 102 395 q 81 479 81 446 q 91 549 81 512 q 123 623 101 587 q 179 693 144 659 q 263 752 214 726 q 376 792 312 777 q 522 808 440 808 m 463 755 q 379 741 418 755 q 307 703 340 727 q 248 648 274 679 q 203 584 221 617 q 175 516 184 550 q 165 454 165 483 q 179 403 165 422 q 224 385 193 385 q 262 396 241 385 q 302 426 282 408 q 342 468 323 444 q 378 516 361 492 q 406 564 394 541 q 422 605 417 587 l 463 755 z "},"":{"ha":1158,"x_min":292,"x_max":920,"o":"m 320 378 q 429 458 381 424 q 514 515 477 492 q 578 549 551 538 q 627 561 606 561 q 639 559 633 561 q 651 554 646 557 q 660 546 656 551 q 664 534 664 541 q 644 506 664 524 q 590 466 623 489 q 514 414 557 443 q 427 352 471 385 l 402 333 q 448 277 422 305 q 497 224 474 248 q 538 181 521 199 q 560 157 556 163 q 588 100 588 119 q 583 84 588 90 q 571 74 578 77 q 559 68 565 70 q 551 66 553 66 q 503 90 533 66 q 437 150 473 114 q 367 228 402 186 q 303 305 331 269 q 295 320 297 313 q 292 333 292 327 q 295 348 292 341 q 303 361 298 355 q 312 372 307 368 q 320 378 317 376 m 574 372 q 686 455 638 419 q 769 514 733 490 q 830 550 804 538 q 876 562 856 562 q 888 560 880 562 q 902 556 895 559 q 915 549 909 553 q 920 539 920 545 q 897 508 920 528 q 840 464 875 489 q 761 408 805 438 q 675 345 718 378 l 650 326 q 694 269 670 298 q 738 214 718 239 q 774 169 759 188 q 794 143 790 150 q 822 86 822 105 q 817 70 822 77 q 805 60 812 64 q 793 55 799 56 q 785 53 787 53 q 756 64 772 53 q 722 95 741 76 q 682 140 703 115 q 640 192 661 165 q 598 247 619 219 q 557 298 577 274 q 549 313 551 306 q 547 326 547 319 q 550 341 547 334 q 557 355 553 349 q 566 365 562 361 q 574 372 571 370 z "},"":{"ha":1031,"x_min":124,"x_max":913,"o":"m 169 317 q 136 331 147 317 q 124 363 124 345 q 128 383 124 373 q 141 400 132 393 q 162 413 149 408 q 194 418 176 418 l 412 418 q 491 418 450 418 q 567 416 532 418 l 646 414 q 714 415 683 414 q 771 415 745 415 q 836 414 808 415 q 880 407 863 412 q 905 393 897 402 q 913 367 913 383 q 905 326 913 350 q 879 267 896 301 q 849 215 864 237 q 816 170 833 193 q 780 118 799 147 q 737 43 760 88 q 715 13 728 25 q 686 0 703 0 q 668 4 677 0 q 659 22 659 7 q 660 34 659 27 q 665 49 661 40 q 673 67 665 52 q 692 101 682 82 q 712 138 703 120 q 727 164 722 156 q 757 221 743 197 q 783 264 771 246 q 805 295 795 283 q 824 317 815 308 l 552 321 q 357 319 450 320 q 169 317 263 317 z "},"":{"ha":1158,"x_min":363,"x_max":886,"o":"m 370 230 q 363 245 363 235 q 369 267 363 258 q 382 279 374 275 q 402 284 391 283 q 427 286 414 286 q 613 284 535 286 q 745 282 692 283 q 829 278 798 280 q 871 274 859 276 q 883 268 880 273 q 886 254 886 262 q 879 227 886 240 q 859 213 871 214 q 820 211 843 212 q 768 209 796 210 q 708 208 740 208 q 645 208 677 208 q 570 208 606 208 q 503 208 533 208 l 479 208 q 452 209 467 208 q 422 212 437 210 q 394 218 408 214 q 370 230 380 222 z "},"":{"ha":1455,"x_min":79,"x_max":1374,"o":"m 1374 641 q 1358 485 1374 564 q 1314 326 1343 405 q 1242 173 1284 248 q 1148 31 1200 98 q 1033 -92 1095 -36 q 899 -188 970 -147 q 750 -251 828 -228 q 589 -273 672 -273 q 354 -237 451 -273 q 196 -137 257 -200 q 106 12 134 -73 q 79 195 79 98 q 96 358 79 274 q 143 527 113 443 q 218 691 174 610 q 315 844 262 772 q 430 977 368 916 q 557 1082 491 1038 q 694 1151 624 1126 q 836 1176 764 1176 q 1080 1133 978 1176 q 1247 1017 1181 1090 q 1343 846 1312 943 q 1374 641 1374 749 m 592 -205 q 734 -184 665 -205 q 864 -124 802 -163 q 982 -33 926 -85 q 1083 82 1037 20 q 1167 215 1130 145 q 1230 358 1204 285 q 1270 504 1256 431 q 1283 646 1283 577 q 1258 817 1283 736 q 1179 958 1233 898 q 1040 1054 1125 1019 q 836 1088 955 1088 q 666 1052 746 1088 q 517 951 585 1015 q 393 804 448 888 q 299 625 338 720 q 239 431 260 530 q 218 237 218 331 q 222 159 218 197 q 235 84 226 121 q 308 105 276 85 q 363 155 340 126 q 403 214 387 183 q 429 266 419 245 q 442 299 431 273 q 469 367 452 325 q 509 463 486 408 q 558 582 532 517 q 614 717 585 646 q 675 864 644 789 q 747 874 712 871 q 814 878 781 878 q 970 856 901 878 q 1086 800 1039 835 q 1158 720 1133 764 q 1183 629 1183 675 q 1166 555 1183 592 q 1111 488 1148 519 q 1017 435 1074 458 q 881 404 960 413 q 871 374 878 396 q 853 322 863 352 q 832 260 843 293 q 811 197 821 227 q 794 144 801 167 q 785 112 787 121 q 783 98 783 104 q 814 71 783 71 q 873 90 838 71 l 1090 218 q 1099 220 1095 220 q 1107 210 1107 220 q 1090 186 1107 197 q 992 127 1041 157 q 899 76 943 98 q 815 39 854 53 q 748 24 777 24 q 700 43 718 24 q 682 107 682 62 q 685 141 682 123 q 692 182 687 159 q 709 239 697 207 q 733 302 720 271 q 756 361 745 334 q 772 404 768 388 q 764 403 768 404 q 757 403 760 403 q 712 412 731 403 q 682 437 694 422 q 663 474 669 453 q 657 517 657 494 q 659 543 657 530 q 616 426 637 481 q 578 325 596 370 q 547 246 561 279 q 524 195 533 212 q 472 134 505 159 q 401 92 440 109 q 321 67 363 75 q 241 58 279 59 q 288 -48 258 0 q 360 -132 317 -96 q 461 -186 404 -167 q 592 -205 519 -205 m 766 849 q 748 781 759 814 q 724 718 736 749 q 700 660 712 688 q 680 606 688 631 q 721 650 696 632 q 781 668 746 668 q 840 656 817 668 q 875 625 863 644 q 892 582 888 606 q 897 533 897 557 q 893 473 897 500 q 889 432 889 446 l 889 429 q 966 466 933 444 q 1020 516 998 488 q 1052 575 1041 543 q 1062 638 1062 606 q 1046 717 1062 679 q 998 785 1029 755 q 920 833 966 815 q 814 852 873 852 q 790 851 802 852 q 766 849 779 850 m 776 426 q 789 464 782 443 q 803 505 797 484 q 814 545 810 526 q 819 580 819 564 q 808 616 819 602 q 769 630 798 630 q 728 620 745 630 q 698 595 710 610 q 680 559 686 579 q 674 519 674 539 q 679 483 674 500 q 693 452 684 466 q 718 431 703 439 q 751 422 732 422 q 776 426 759 422 z "},"":{"ha":1031,"x_min":280,"x_max":722,"o":"m 320 10 q 291 22 301 10 q 280 50 280 35 q 284 68 280 59 q 295 84 288 77 q 314 95 302 91 q 342 100 326 100 q 382 99 355 100 q 440 96 410 98 q 497 94 470 95 q 536 93 524 93 q 627 92 591 93 q 684 86 663 90 q 714 76 705 83 q 722 58 722 69 q 718 44 722 51 q 705 31 713 37 q 688 22 698 26 q 669 18 679 18 q 488 14 573 18 q 320 10 402 10 z "},"":{"ha":940,"x_min":325,"x_max":586,"o":"m 586 892 q 567 825 586 855 q 521 775 549 795 q 460 743 493 754 q 397 732 427 732 q 341 745 357 732 q 325 785 325 759 q 340 859 325 824 q 380 920 355 894 q 440 962 406 947 q 513 977 475 977 q 567 953 548 977 q 586 892 586 928 m 398 757 q 454 770 429 757 q 498 805 479 784 q 527 852 517 827 q 537 903 537 878 q 526 934 537 922 q 487 947 514 947 q 445 930 465 947 q 407 889 424 913 q 380 838 391 865 q 370 791 370 811 q 377 766 370 776 q 398 757 384 757 z "},"":{"ha":770,"x_min":42,"x_max":729,"o":"m 368 846 q 387 860 376 857 q 410 863 397 863 l 421 863 q 440 849 432 863 q 452 811 448 835 q 458 756 456 787 q 460 689 460 724 q 459 614 460 652 q 455 539 457 576 q 498 537 473 538 q 551 535 524 536 q 607 534 579 534 q 656 532 634 533 q 692 530 678 531 q 705 528 705 529 q 724 518 718 528 q 729 493 729 509 q 727 472 729 483 q 721 453 724 462 q 712 439 718 445 q 703 433 707 433 q 662 432 688 433 q 602 431 636 432 q 529 429 568 430 q 448 425 489 427 q 446 355 446 388 q 444 289 445 323 q 442 219 444 256 q 438 138 441 182 q 426 116 438 122 q 397 109 413 109 q 367 115 380 109 q 353 132 353 121 q 350 174 351 149 q 347 228 349 199 q 345 287 346 257 q 342 345 343 317 q 340 393 341 372 q 338 426 339 414 q 307 426 321 426 q 281 427 292 426 q 256 428 273 427 q 218 429 239 428 q 172 432 196 430 q 126 436 148 433 q 87 444 104 439 q 60 454 69 448 q 45 473 49 462 q 42 496 42 484 q 42 502 42 499 q 43 507 43 504 q 57 526 43 519 q 96 538 71 534 q 153 545 120 543 q 222 547 185 547 q 279 546 250 547 q 339 543 309 545 l 341 625 q 341 649 341 633 q 343 688 342 666 q 346 733 344 709 q 350 780 347 758 q 357 819 353 802 q 368 846 361 837 z "},"":{"ha":1158,"x_min":3,"x_max":690,"o":"m 592 31 q 562 17 583 22 q 518 10 541 12 q 476 7 496 7 q 450 6 457 6 q 428 6 442 6 q 396 5 414 5 q 329 6 367 5 q 249 7 290 6 q 168 9 208 7 q 95 12 128 10 q 40 16 62 14 q 12 21 17 18 q 4 28 6 22 q 3 39 3 33 q 7 57 3 48 q 20 66 12 65 l 37 69 q 58 73 46 71 q 85 79 70 75 l 86 79 q 299 239 210 159 q 444 400 387 319 q 527 563 500 481 q 553 727 553 645 q 545 783 553 760 q 520 821 536 806 q 482 841 505 835 q 433 847 460 847 q 366 840 403 847 q 293 822 330 833 q 281 819 287 820 q 273 819 276 819 q 259 825 262 819 q 256 839 256 831 q 258 846 256 842 q 262 851 259 850 q 304 873 280 863 q 356 889 329 882 q 411 899 382 896 q 466 903 439 903 q 550 892 509 903 q 621 857 590 881 q 671 794 652 833 q 690 700 690 755 q 668 561 690 626 q 607 439 646 496 q 518 332 569 382 q 411 240 468 283 q 296 160 355 197 q 182 94 237 124 q 223 99 199 96 q 275 103 248 101 q 333 108 303 106 q 388 112 362 110 q 436 114 414 113 q 469 116 457 115 q 485 117 475 116 q 506 120 495 119 q 530 123 517 121 q 554 124 542 124 q 595 117 577 124 q 612 88 612 109 q 608 56 612 71 q 592 31 603 40 z "},"":{"ha":1158,"x_min":54,"x_max":770,"o":"m 149 182 q 200 169 186 178 q 214 146 214 160 q 205 122 214 131 q 185 110 197 114 q 163 104 174 105 q 149 103 153 103 q 143 98 146 103 q 138 86 140 93 q 133 74 135 79 q 132 66 132 68 q 131 59 131 62 q 130 54 130 56 q 148 11 130 28 q 192 -19 165 -7 q 252 -36 219 -31 q 315 -41 285 -41 q 411 -15 369 -41 q 481 53 452 11 q 524 147 509 94 q 538 253 538 199 q 529 336 538 296 q 500 412 520 377 q 451 475 481 448 q 378 520 420 503 l 389 572 q 492 591 447 574 q 570 633 538 608 q 618 687 602 659 q 635 741 635 716 q 627 779 635 761 q 603 809 618 796 q 567 830 587 823 q 523 838 546 838 q 477 835 500 838 q 433 829 454 833 q 392 822 411 826 q 360 815 373 819 q 353 814 356 814 q 332 830 332 814 q 337 838 332 836 q 464 879 403 867 q 578 891 524 891 q 656 879 621 891 q 717 846 692 866 q 756 799 743 825 q 770 745 770 772 q 755 686 770 719 q 707 624 741 654 q 618 570 673 593 q 484 538 563 547 q 580 481 539 515 q 648 407 621 448 q 689 321 675 366 q 702 229 702 275 q 677 108 702 167 q 604 3 652 49 q 481 -72 555 -43 q 311 -100 408 -100 q 213 -90 260 -100 q 132 -60 167 -79 q 75 -13 96 -41 q 54 51 54 15 q 56 73 54 61 q 74 127 62 106 q 100 160 86 148 q 126 177 113 172 q 149 182 140 182 z "},"":{"ha":1157,"x_min":533,"x_max":879,"o":"m 749 543 q 761 543 751 543 q 785 542 771 543 q 816 538 800 541 q 846 529 832 535 q 869 515 859 524 q 879 493 878 506 l 581 98 l 562 82 q 543 89 550 82 q 533 103 536 96 l 749 543 z "},"":{"ha":1189,"x_min":-34,"x_max":1219,"o":"m 176 -256 q 165 -292 172 -271 q 146 -330 157 -312 q 121 -360 136 -348 q 88 -373 106 -373 q 53 -358 64 -373 q 41 -320 41 -344 q 47 -288 41 -307 q 64 -245 54 -268 q 86 -200 74 -223 q 111 -155 99 -176 q 131 -118 122 -134 q 144 -94 140 -102 q 252 114 205 24 q 334 271 299 203 q 392 388 369 339 q 430 473 416 437 q 352 430 398 456 q 251 371 307 404 q 131 300 195 338 q 0 222 67 262 q -14 218 -7 218 q -28 224 -22 218 q -34 238 -34 229 q -26 257 -34 246 q 0 279 -18 267 q 163 374 86 331 q 303 449 241 418 q 411 497 366 479 q 475 514 455 514 q 532 498 515 514 q 549 453 549 481 q 534 386 549 424 q 498 306 519 347 q 451 222 476 264 q 404 143 426 180 q 368 77 382 106 q 353 32 353 47 q 369 16 353 16 q 437 33 397 16 q 524 80 477 50 q 623 149 571 109 q 725 233 674 189 q 825 326 777 278 q 913 419 873 373 q 917 434 916 423 q 922 455 918 444 q 936 475 926 467 q 966 484 946 484 q 994 479 983 484 q 1009 468 1004 475 q 1015 451 1014 461 q 1017 429 1017 441 q 1011 396 1017 417 q 996 347 1005 374 q 974 288 986 319 q 949 223 962 256 q 925 160 937 191 q 904 102 913 128 q 930 117 913 106 q 969 140 947 127 q 1016 170 991 154 q 1065 201 1040 185 l 1189 279 q 1199 281 1194 281 q 1213 276 1206 281 q 1219 261 1219 270 q 1212 242 1219 252 q 1189 222 1205 233 l 848 7 q 808 -7 826 -7 q 785 0 794 -7 q 777 20 777 7 q 784 60 777 35 q 804 116 792 85 q 831 179 816 146 q 861 243 846 212 q 888 303 876 275 q 908 351 901 331 q 848 281 884 321 q 769 201 812 242 q 676 121 725 160 q 575 51 627 81 q 472 1 524 20 q 371 -18 420 -18 q 325 -14 347 -18 q 281 2 302 -9 q 254 -71 270 -34 q 223 -142 239 -108 q 195 -206 208 -176 q 176 -256 182 -235 z "},"":{"ha":792,"x_min":62,"x_max":728,"o":"m 414 -13 q 473 245 446 133 q 520 439 499 357 q 556 579 541 522 q 581 672 571 635 q 596 728 591 709 q 601 755 601 747 q 597 772 601 766 q 587 782 593 779 q 573 786 581 785 q 554 787 564 787 q 521 786 536 787 q 496 784 506 785 q 473 692 486 747 q 445 572 459 637 q 414 437 430 507 q 385 300 399 368 l 313 -36 q 304 -54 311 -46 q 287 -68 297 -62 q 265 -77 277 -74 q 241 -79 253 -79 q 218 -77 229 -79 q 198 -68 207 -74 q 184 -53 189 -62 q 179 -32 179 -44 q 179 -25 179 -28 q 180 -19 180 -22 l 313 498 q 213 520 259 503 q 134 562 168 536 q 81 618 100 587 q 62 686 62 650 q 77 769 62 733 q 119 830 92 804 q 181 873 145 856 q 259 901 217 890 q 346 915 300 911 q 437 919 392 919 q 502 918 468 919 q 567 911 535 916 q 629 896 600 905 q 680 869 658 886 q 715 827 702 852 q 728 767 728 802 q 722 718 728 745 l 551 -30 q 527 -64 546 -54 q 485 -75 507 -75 q 458 -72 471 -75 q 435 -61 446 -68 q 419 -44 425 -54 q 412 -22 412 -35 q 414 -13 412 -20 z "},"":{"ha":940,"x_min":318,"x_max":629,"o":"m 406 326 q 367 334 383 326 q 339 358 350 343 q 323 392 328 373 q 318 433 318 412 q 330 504 318 467 q 363 570 341 540 q 415 620 385 600 q 485 639 446 639 q 553 629 525 639 q 597 602 581 618 q 622 563 614 585 q 629 517 629 541 q 609 443 629 478 q 556 382 589 408 q 485 341 524 356 q 406 326 445 326 z "},"":{"ha":913,"x_min":273,"x_max":591,"o":"m 275 -229 q 308 -178 285 -191 q 358 -165 330 -165 q 394 -169 376 -165 q 430 -177 412 -172 q 462 -184 447 -181 q 489 -188 477 -188 q 508 -183 500 -188 q 515 -164 515 -178 q 501 -136 515 -147 q 452 -125 487 -125 q 440 -126 446 -125 q 429 -126 435 -126 q 407 -120 416 -126 q 397 -92 397 -115 l 440 4 l 500 4 l 441 -87 q 510 -95 481 -88 q 556 -112 538 -101 q 583 -136 574 -122 q 591 -165 591 -149 q 567 -211 591 -189 q 507 -249 543 -233 q 429 -275 471 -265 q 352 -284 387 -284 q 295 -274 317 -284 q 273 -242 273 -264 q 275 -229 273 -236 z "},"":{"ha":677,"x_min":151,"x_max":656,"o":"m 151 62 q 155 79 151 73 q 164 89 159 85 q 174 96 169 93 q 184 104 180 99 q 204 147 192 119 q 231 208 217 175 q 259 277 245 241 q 286 341 274 312 q 307 392 298 371 q 317 417 315 413 q 346 472 330 438 q 382 546 363 505 q 424 630 402 586 q 469 718 446 675 q 513 801 491 762 q 556 870 536 840 q 595 918 577 900 q 627 935 613 935 q 649 917 643 935 q 656 876 656 899 q 643 826 652 857 q 615 742 634 795 q 564 609 595 689 q 482 410 532 528 q 454 346 472 386 q 412 261 435 307 q 361 169 389 215 q 307 85 334 123 q 252 24 279 47 q 202 1 225 1 q 181 2 191 1 q 165 8 172 3 q 154 24 158 14 q 151 55 151 35 l 151 62 z "},"":{"ha":650,"x_min":75,"x_max":574,"o":"m 441 804 q 501 793 476 804 q 543 765 526 783 q 567 723 559 747 q 574 671 574 699 q 563 598 574 636 q 531 524 552 560 q 478 453 509 487 q 407 394 447 420 q 320 354 368 369 q 218 339 273 339 q 153 347 180 339 q 108 369 125 355 q 83 402 91 382 q 75 446 75 422 q 85 521 75 481 q 115 601 95 561 q 165 677 135 640 q 236 742 195 713 q 328 787 277 770 q 441 804 379 804 m 219 387 q 282 400 249 387 q 347 435 315 413 q 408 486 379 457 q 459 545 437 514 q 494 607 481 576 q 507 664 507 637 q 500 697 507 682 q 479 723 494 712 q 443 740 465 734 q 387 746 420 746 q 333 731 360 746 q 281 693 306 717 q 235 638 256 669 q 198 574 214 607 q 174 510 182 542 q 165 452 165 477 q 178 405 165 423 q 219 387 191 387 z "},"":{"ha":1158,"x_min":219,"x_max":846,"o":"m 819 254 q 709 173 757 208 q 625 116 661 139 q 561 82 588 94 q 512 71 533 71 q 487 78 500 71 q 475 98 475 84 q 495 126 475 109 q 549 166 515 143 q 624 218 582 189 q 711 280 667 246 l 736 299 q 690 355 716 326 q 641 408 665 383 q 600 451 618 433 q 578 475 583 469 q 551 532 551 513 q 556 548 551 542 q 567 558 561 555 q 580 564 574 562 q 588 566 586 566 q 617 554 600 566 q 655 525 634 543 q 701 482 677 506 q 748 431 724 458 q 794 377 771 404 q 836 327 817 351 q 843 312 841 319 q 846 299 846 305 q 836 270 846 282 q 819 254 825 258 m 564 260 q 453 177 500 212 q 370 117 406 141 q 308 82 334 94 q 262 71 282 71 q 251 72 258 71 q 236 76 243 73 q 224 83 229 79 q 219 93 219 87 q 241 122 219 103 q 298 168 263 142 q 377 224 333 193 q 464 287 420 254 l 489 306 q 445 362 469 333 q 400 418 421 392 q 364 463 380 444 q 345 489 349 482 q 317 546 317 527 q 322 562 317 555 q 333 572 327 568 q 345 577 339 576 q 353 579 351 579 q 380 568 364 579 q 415 537 396 556 q 455 492 434 517 q 498 440 476 467 q 541 385 519 412 q 581 334 562 357 q 589 319 587 326 q 592 306 591 312 q 582 277 592 289 q 564 260 571 265 z "},"":{"ha":1591,"x_min":30,"x_max":1550,"o":"m 1270 1240 q 1258 1221 1263 1227 q 1249 1210 1253 1214 q 1241 1202 1244 1205 q 1234 1194 1238 1199 q 1200 1148 1221 1179 q 1154 1082 1179 1118 q 1102 1006 1128 1045 q 1054 933 1076 966 q 1017 878 1031 901 q 999 850 1002 854 q 951 782 985 831 q 870 660 918 732 q 763 499 822 588 q 639 313 703 410 q 509 116 575 216 q 380 -77 442 16 q 262 -252 317 -170 q 163 -394 206 -334 q 94 -490 121 -455 q 62 -526 67 -526 q 59 -526 62 -526 q 50 -527 58 -527 q 37 -524 43 -527 q 30 -513 30 -522 q 39 -490 30 -506 q 193 -254 115 -374 q 351 -14 271 -134 q 508 225 430 106 q 663 457 587 344 q 810 675 739 570 q 947 875 882 781 q 981 924 960 895 q 1026 988 1002 954 q 1078 1061 1050 1023 q 1132 1135 1105 1099 q 1184 1204 1158 1171 q 1230 1262 1209 1237 q 1266 1301 1251 1286 q 1289 1316 1282 1316 q 1298 1306 1298 1316 q 1292 1284 1298 1299 q 1270 1240 1286 1269 m 160 62 q 164 79 161 73 q 173 89 168 85 q 184 96 178 93 q 193 104 189 99 q 214 147 201 119 q 240 209 226 175 q 268 277 254 242 q 295 342 283 312 q 315 392 307 372 q 327 417 324 413 q 356 472 339 438 q 392 546 372 505 q 434 630 412 586 q 478 718 456 675 q 523 801 500 762 q 566 870 545 840 q 605 918 587 900 q 636 935 623 935 q 659 917 652 935 q 665 876 665 899 q 652 826 661 857 q 624 742 644 795 q 573 609 605 689 q 492 410 541 528 q 463 346 481 386 q 421 261 445 307 q 371 169 398 215 q 316 85 344 123 q 261 24 288 47 q 212 1 235 1 q 191 2 200 1 q 174 8 181 3 q 164 24 168 14 q 160 55 160 35 l 160 62 m 705 101 q 804 170 746 127 q 933 271 862 212 q 1089 405 1005 330 q 1266 574 1173 481 l 1379 570 q 1397 591 1388 584 q 1413 597 1407 597 q 1426 583 1426 597 q 1423 570 1426 577 q 1362 396 1392 480 q 1302 235 1331 311 q 1247 91 1274 158 q 1198 -34 1221 23 q 1213 -35 1206 -35 q 1227 -35 1219 -35 l 1248 -35 q 1320 -28 1281 -35 q 1396 -12 1358 -20 q 1465 4 1433 -3 q 1518 12 1497 12 q 1547 -2 1543 12 l 1549 -16 q 1550 -24 1550 -18 q 1532 -52 1550 -41 q 1485 -67 1514 -62 q 1418 -74 1455 -73 q 1342 -76 1381 -76 q 1260 -76 1299 -76 q 1184 -75 1221 -76 q 1131 -220 1155 -156 q 1088 -327 1107 -283 q 1058 -394 1070 -371 q 1042 -416 1046 -416 q 1044 -417 1042 -417 q 1046 -418 1045 -417 q 1031 -422 1046 -420 q 995 -427 1017 -425 q 949 -432 974 -430 q 906 -433 925 -433 q 875 -431 881 -433 q 915 -372 893 -405 q 961 -296 936 -339 q 1017 -197 987 -252 q 1083 -70 1047 -141 q 902 -53 981 -64 q 764 -30 824 -41 q 629 -92 682 -92 q 556 -74 579 -92 q 534 -31 534 -56 q 549 12 534 -9 q 589 51 564 33 q 644 82 613 68 q 705 101 674 95 m 832 20 q 888 8 859 14 q 949 -3 916 2 q 1020 -14 981 -9 q 1107 -23 1059 -19 q 1218 196 1160 71 q 1330 477 1275 321 q 1216 357 1277 419 q 1089 235 1154 295 q 959 120 1025 175 q 832 20 893 64 z "},"":{"ha":1356,"x_min":22,"x_max":1290,"o":"m 1261 1240 q 1250 1221 1255 1227 q 1240 1210 1244 1214 q 1233 1202 1236 1205 q 1225 1194 1230 1199 q 1192 1148 1213 1179 q 1145 1082 1171 1118 q 1094 1006 1120 1045 q 1045 933 1067 966 q 1008 878 1023 901 q 991 850 994 854 q 943 782 977 831 q 862 660 909 732 q 754 499 814 588 q 631 313 695 410 q 500 116 567 216 q 372 -77 434 16 q 254 -252 309 -170 q 155 -394 198 -334 q 86 -490 113 -455 q 54 -526 59 -526 q 51 -526 54 -526 q 42 -527 50 -527 q 28 -524 35 -527 q 22 -513 22 -522 q 31 -490 22 -506 q 185 -254 106 -374 q 342 -14 263 -134 q 500 225 422 106 q 654 457 578 344 q 802 675 730 570 q 939 875 873 781 q 973 924 952 895 q 1018 988 994 954 q 1069 1061 1042 1023 q 1123 1135 1097 1099 q 1176 1204 1150 1171 q 1222 1262 1201 1237 q 1258 1301 1243 1286 q 1280 1316 1274 1316 q 1290 1306 1290 1316 q 1284 1284 1290 1299 q 1261 1240 1278 1269 m 109 62 q 114 79 110 73 q 122 89 117 85 q 133 96 127 93 q 142 104 138 99 q 163 147 151 119 q 189 209 175 175 q 217 277 203 242 q 244 342 232 312 q 264 392 256 372 q 276 417 273 413 q 305 472 288 438 q 341 546 321 505 q 383 630 361 586 q 427 718 405 675 q 472 801 450 762 q 515 870 494 840 q 554 918 536 900 q 585 935 572 935 q 608 917 602 935 q 614 876 614 899 q 602 826 610 857 q 573 742 593 795 q 522 609 554 689 q 441 410 490 528 q 412 346 431 386 q 371 261 394 307 q 320 169 347 215 q 265 85 293 123 q 211 24 237 47 q 161 1 184 1 q 140 2 149 1 q 123 8 130 3 q 113 24 117 14 q 109 55 109 35 l 109 62 m 1098 -464 q 1068 -477 1088 -473 q 1024 -485 1047 -482 q 982 -488 1002 -487 q 956 -488 963 -488 q 934 -489 948 -488 q 902 -489 920 -489 q 834 -489 873 -489 q 755 -488 796 -488 q 674 -486 714 -487 q 601 -483 634 -484 q 546 -478 568 -481 q 517 -473 523 -476 q 510 -467 512 -472 q 509 -456 509 -461 q 513 -438 509 -446 q 526 -429 517 -429 l 543 -425 q 564 -421 552 -424 q 591 -416 576 -419 l 592 -415 q 805 -255 716 -336 q 950 -94 893 -175 q 1033 69 1006 -13 q 1059 233 1059 151 q 1050 289 1059 266 q 1026 326 1042 312 q 988 347 1010 340 q 939 353 966 353 q 872 346 909 353 q 799 328 836 339 q 787 325 793 326 q 779 324 782 324 q 765 331 768 324 q 762 345 762 337 q 764 352 762 348 q 768 357 765 355 q 810 378 786 369 q 862 395 835 388 q 917 405 888 401 q 972 408 945 408 q 1056 397 1015 408 q 1127 362 1096 387 q 1177 300 1158 338 q 1196 205 1196 261 q 1174 67 1196 132 q 1113 -55 1152 2 q 1024 -162 1075 -113 q 917 -255 974 -212 q 802 -334 861 -298 q 688 -401 743 -370 q 729 -396 705 -398 q 781 -391 753 -393 q 839 -387 809 -389 q 894 -383 868 -385 q 942 -380 920 -381 q 975 -378 963 -378 q 991 -377 981 -378 q 1012 -374 1001 -376 q 1036 -372 1023 -373 q 1060 -370 1048 -370 q 1101 -378 1083 -370 q 1118 -406 1118 -385 q 1114 -439 1118 -423 q 1098 -464 1109 -454 z "},"":{"ha":1721,"x_min":16,"x_max":1657,"o":"m 1536 1240 q 1524 1221 1529 1227 q 1515 1210 1519 1214 q 1508 1202 1511 1205 q 1500 1194 1504 1199 q 1467 1148 1488 1179 q 1420 1082 1445 1118 q 1369 1006 1395 1045 q 1320 933 1342 966 q 1283 878 1298 901 q 1265 850 1268 854 q 1218 782 1252 831 q 1136 660 1184 732 q 1029 499 1088 588 q 906 313 970 410 q 775 116 842 216 q 646 -77 709 16 q 528 -252 584 -170 q 430 -394 473 -334 q 360 -490 387 -455 q 329 -526 334 -526 q 326 -526 328 -526 q 317 -527 324 -527 q 303 -524 310 -527 q 296 -513 296 -522 q 306 -490 296 -506 q 459 -254 381 -374 q 617 -14 538 -134 q 775 225 696 106 q 929 457 853 344 q 1077 675 1005 570 q 1213 875 1148 781 q 1247 924 1227 895 q 1293 988 1268 954 q 1344 1061 1317 1023 q 1398 1135 1371 1099 q 1450 1204 1425 1171 q 1497 1262 1476 1237 q 1533 1301 1518 1286 q 1555 1316 1548 1316 q 1565 1306 1565 1316 q 1559 1284 1565 1299 q 1536 1240 1553 1269 m 111 182 q 162 169 148 178 q 176 146 176 160 q 168 122 176 131 q 147 110 159 114 q 125 104 136 105 q 111 103 115 103 q 105 98 109 103 q 100 86 102 93 q 95 74 97 79 q 94 66 94 68 q 93 59 93 62 q 92 54 92 56 q 110 11 92 28 q 154 -19 127 -7 q 214 -36 181 -31 q 277 -41 247 -41 q 373 -15 331 -41 q 443 53 414 11 q 486 147 471 94 q 500 253 500 199 q 491 336 500 296 q 463 412 482 377 q 413 475 443 448 q 340 520 382 503 l 351 572 q 454 591 409 574 q 532 633 500 608 q 581 687 564 659 q 597 741 597 716 q 589 779 597 761 q 565 809 580 796 q 529 830 549 823 q 485 838 508 838 q 439 835 463 838 q 395 829 416 833 q 354 822 373 826 q 322 815 335 819 q 315 814 318 814 q 294 830 294 814 q 299 838 294 836 q 426 879 365 867 q 540 891 486 891 q 618 879 583 891 q 679 846 654 866 q 719 799 705 825 q 732 745 732 772 q 718 686 732 719 q 669 624 703 654 q 580 570 635 593 q 446 538 525 547 q 542 481 501 515 q 610 407 583 448 q 651 321 637 366 q 664 229 664 275 q 639 108 664 167 q 566 3 614 49 q 444 -72 517 -43 q 273 -100 370 -100 q 175 -90 222 -100 q 94 -60 129 -79 q 37 -13 58 -41 q 16 51 16 15 q 18 73 16 61 q 36 127 24 106 q 62 160 48 148 q 89 177 75 172 q 111 182 102 182 m 812 -55 q 911 14 853 -28 q 1041 115 969 56 q 1196 249 1112 174 q 1373 418 1280 325 l 1487 414 q 1505 435 1495 428 q 1520 441 1514 441 q 1533 427 1533 441 q 1531 414 1533 421 q 1469 240 1499 324 q 1410 79 1438 155 q 1355 -65 1381 2 q 1305 -190 1329 -133 q 1320 -191 1313 -191 q 1334 -191 1326 -191 l 1355 -191 q 1427 -184 1388 -191 q 1503 -168 1466 -176 q 1572 -152 1540 -159 q 1626 -144 1605 -144 q 1654 -158 1650 -144 l 1656 -172 q 1657 -180 1657 -174 q 1639 -208 1657 -197 q 1592 -223 1621 -218 q 1525 -230 1563 -229 q 1449 -232 1488 -232 q 1367 -232 1407 -232 q 1291 -231 1328 -232 q 1238 -376 1262 -312 q 1196 -483 1214 -439 q 1165 -550 1177 -527 q 1149 -572 1154 -572 q 1152 -573 1149 -573 q 1153 -574 1152 -573 q 1138 -578 1153 -576 q 1102 -583 1124 -581 q 1057 -588 1081 -586 q 1013 -589 1032 -589 q 982 -587 988 -589 q 1022 -528 1000 -561 q 1068 -452 1043 -495 q 1124 -353 1094 -408 q 1190 -226 1154 -297 q 1009 -209 1088 -220 q 871 -186 931 -197 q 736 -248 789 -248 q 664 -230 686 -248 q 641 -187 641 -212 q 656 -144 641 -165 q 696 -105 671 -123 q 751 -74 720 -87 q 812 -55 781 -61 m 939 -136 q 995 -148 966 -142 q 1056 -159 1023 -154 q 1127 -170 1088 -165 q 1214 -179 1166 -175 q 1325 40 1267 -85 q 1437 321 1382 165 q 1323 201 1384 263 q 1197 79 1261 139 q 1066 -36 1132 19 q 939 -136 1000 -92 z "},"":{"ha":1031,"x_min":35,"x_max":961,"o":"m 666 762 q 690 753 690 762 q 669 724 690 743 q 611 674 647 704 q 530 604 576 644 q 438 511 485 563 q 345 397 391 460 q 264 259 300 334 q 207 98 229 184 q 185 -87 185 12 q 198 -145 185 -118 q 238 -193 210 -173 q 310 -226 265 -214 q 417 -238 354 -238 q 569 -219 495 -238 q 701 -161 643 -199 q 794 -65 759 -122 q 829 69 829 -7 q 814 146 829 115 q 776 198 799 178 q 726 230 753 218 q 676 248 699 242 q 638 257 653 254 q 623 262 623 260 q 619 272 623 264 q 616 288 616 279 q 621 301 616 295 q 643 307 627 307 q 786 289 726 307 q 885 240 846 271 q 942 169 924 210 q 961 85 961 129 q 936 -17 961 32 q 866 -108 910 -66 q 764 -184 823 -150 q 638 -243 705 -218 q 499 -280 571 -267 q 357 -294 427 -294 q 232 -279 291 -294 q 130 -232 174 -264 q 60 -150 86 -200 q 35 -28 35 -100 q 59 127 35 51 q 123 273 83 203 q 216 407 163 343 q 324 525 268 471 q 435 623 380 579 q 538 697 491 667 q 619 745 585 728 q 666 762 653 762 m 768 1104 q 802 1097 788 1104 q 825 1077 816 1089 q 838 1048 834 1065 q 842 1015 842 1032 q 832 956 842 986 q 805 900 823 925 q 761 859 787 875 q 703 842 735 842 q 647 851 670 842 q 610 873 624 859 q 589 906 595 888 q 583 944 583 924 q 600 1006 583 977 q 643 1057 616 1035 q 703 1091 670 1078 q 768 1104 736 1104 z "},"":{"ha":2127,"x_min":-437,"x_max":2466,"o":"m 2084 279 q 2092 281 2088 281 q 2107 273 2100 281 q 2114 255 2114 264 q 2107 236 2114 245 q 2086 217 2100 227 q 2049 195 2072 208 q 1996 163 2027 182 q 1945 131 1977 152 q 1873 84 1912 109 q 1788 32 1833 58 q 1699 -17 1744 5 q 1612 -53 1654 -39 q 1536 -67 1570 -67 q 1498 -61 1515 -67 q 1468 -41 1480 -55 q 1449 -5 1456 -27 q 1442 49 1442 17 q 1457 145 1442 92 q 1493 257 1471 199 q 1542 372 1515 314 q 1596 481 1569 430 q 1645 572 1622 532 q 1679 636 1667 613 q 1588 640 1636 637 q 1498 649 1541 643 q 1423 664 1456 655 q 1375 685 1390 673 q 1233 526 1312 608 q 1064 367 1154 444 q 875 221 974 290 q 672 101 776 153 q 463 20 569 50 q 253 -10 357 -10 q 176 -7 213 -10 q 106 2 140 -5 q 41 21 72 9 q -20 52 9 33 q -43 68 -31 60 q -65 84 -56 76 q -82 100 -75 92 q -89 115 -88 108 l -75 115 q -59 109 -74 115 q -18 96 -43 104 q 39 78 7 87 q 108 60 72 68 q 182 46 144 52 q 254 41 220 41 q 424 71 341 41 q 585 154 506 102 q 740 277 664 207 q 891 426 817 347 q 1039 588 966 505 q 1184 749 1112 671 q 1329 898 1257 828 q 1475 1021 1402 968 q 1624 1104 1549 1074 q 1777 1135 1699 1135 q 1868 1120 1832 1135 q 1924 1081 1904 1105 q 1953 1024 1945 1057 q 1962 957 1962 992 q 1954 878 1962 918 q 1938 800 1947 837 q 1919 734 1928 764 q 1908 688 1910 705 l 1907 683 q 2111 738 2024 703 q 2258 814 2199 772 q 2347 906 2317 857 q 2376 1003 2376 954 q 2336 1113 2376 1059 q 2215 1207 2296 1166 q 2012 1273 2134 1248 q 1725 1297 1889 1297 q 1564 1290 1653 1297 q 1374 1269 1475 1282 q 1161 1240 1272 1256 q 935 1206 1050 1223 q 703 1173 820 1189 q 474 1143 587 1156 q 254 1123 361 1131 q 53 1115 148 1115 q -87 1122 -23 1115 q -200 1145 -151 1129 q -228 1160 -208 1147 q -275 1191 -248 1173 q -330 1230 -301 1209 q -382 1270 -358 1251 q -421 1304 -406 1289 q -437 1323 -437 1318 q -433 1325 -437 1325 q -417 1321 -429 1325 q -386 1306 -406 1316 q -147 1233 -283 1254 q 166 1211 -10 1211 q 378 1221 260 1211 q 631 1244 496 1230 q 915 1274 766 1258 q 1220 1304 1064 1291 q 1537 1328 1377 1318 q 1855 1337 1697 1337 q 2131 1311 2016 1337 q 2321 1240 2246 1284 q 2431 1138 2395 1196 q 2466 1019 2466 1081 q 2448 928 2466 974 q 2395 841 2430 883 q 2309 762 2360 800 q 2193 697 2258 725 q 2048 650 2127 669 q 1878 627 1969 632 q 1854 585 1872 614 q 1811 516 1836 556 q 1755 430 1786 477 q 1695 336 1725 384 q 1636 241 1664 288 q 1585 155 1607 194 q 1550 86 1563 115 q 1537 45 1537 58 q 1546 13 1537 22 q 1573 3 1556 3 q 1628 16 1595 3 q 1702 53 1662 30 q 1790 104 1743 75 q 1886 164 1836 133 q 1986 224 1935 195 q 2084 279 2036 254 m 1707 685 q 1751 773 1727 726 q 1796 865 1775 819 q 1831 953 1817 911 q 1845 1028 1845 996 q 1834 1072 1845 1059 q 1803 1084 1822 1084 q 1744 1067 1778 1084 q 1671 1022 1710 1050 q 1594 957 1633 994 q 1519 881 1554 920 q 1457 803 1485 842 q 1415 730 1429 764 q 1452 711 1423 720 q 1522 697 1481 703 q 1612 688 1564 691 q 1707 685 1661 685 m 1957 1221 q 1946 1207 1953 1214 q 1927 1200 1940 1200 l 1909 1217 l 1611 1611 q 1620 1633 1611 1624 q 1643 1648 1629 1642 q 1672 1656 1656 1653 q 1702 1660 1687 1659 q 1727 1662 1716 1662 q 1741 1662 1737 1662 l 1957 1221 z "}}}
